<?xml version="1.0" encoding="utf-8"?>
<!-- Generator: Adobe Illustrator 19.0.0, SVG Export Plug-In . SVG Version: 6.00 Build 0)  -->
<svg version="1.1" xmlns="http://www.w3.org/2000/svg" xmlns:xlink="http://www.w3.org/1999/xlink" x="0px" y="0px"
	 viewBox="0 0 3200 2760" style="enable-background:new 0 0 3200 2760;" xml:space="preserve">
<style type="text/css">
	.st0{fill:#73A3C2;stroke:#000000;stroke-width:2;stroke-miterlimit:10;}
	.st1{fill:#75CFE9;stroke:#000000;stroke-width:2;stroke-miterlimit:10;}
	.st2{fill:#FFFFFF;stroke:#000000;stroke-width:2;stroke-miterlimit:10;}
	.st3{fill:#E5EA8E;stroke:#000000;stroke-width:2;stroke-miterlimit:10;}
	.st4{fill:#F3F6D4;stroke:#000000;stroke-width:2;stroke-miterlimit:10;}
	.st5{fill:#0D0909;}
	.st6{fill:#120B0A;}
	.st7{fill:#070707;}
	.st8{fill:#0B0909;}
	.st9{fill:#FFFFFF;}
	.st10{fill:#C5D6E5;stroke:#000000;stroke-width:3;stroke-miterlimit:10;}
	.st11{font-family:'HelveticaNeue-Thin';}
	.st12{font-size:105px;}
	.st13{font-size:77.7192px;}
	.st14{font-size:92.348px;}
	.st15{font-size:61.2709px;}
	.st16{font-size:55.5414px;}
	.st17{font-size:77.9228px;}
	.st18{font-size:54.4307px;}
	.st19{font-size:74.6795px;}
	.st20{font-size:71.0166px;}
	.st21{font-size:84.5374px;}
	.st22{font-size:47.0285px;}
	.st23{font-size:87.9188px;}
	.st24{font-size:80.5657px;}
	.st25{fill:#353535;}
</style>
<g id="Layer_1">
</g>
<g id="Layer_2">
	<g id="XMLID_9_">
		<rect id="XMLID_1_" x="451.7" y="488.4" class="st0" width="628.8" height="823.2"/>
		<rect id="XMLID_3_" x="1242.8" y="490.9" class="st0" width="622.8" height="816.4"/>
		<polygon id="XMLID_4_" class="st0" points="2965,1306.6 2228.6,1305.1 2231.2,490.9 2963.5,489.1 		"/>
		<polygon id="XMLID_2_" class="st0" points="781.5,1770.1 784.1,2015.3 455,2017.1 455,1475.1 1075.4,1475.1 1073,1769 		"/>
		<rect id="XMLID_5_" x="1248.9" y="1473.9" class="st0" width="620" height="553.4"/>
		<rect id="XMLID_6_" x="2224.6" y="1473.9" class="st0" width="739.1" height="542.9"/>
		<polygon id="XMLID_7_" class="st0" points="2966.5,2412 2224.6,2412.6 2224.6,2135.9 2965,2136.1 		"/>
	</g>
	<rect id="XMLID_11_" x="1903.8" y="389.2" class="st1" width="284.8" height="2136.3"/>
	<g id="_x32_OiiOb.tif">
		<g id="XMLID_8_">
			<path id="XMLID_70_" d="M992.9,1809.6c0,9.3,0,18.6,0,27.9c0,19.3-0.1,38.5,0.1,57.8c0,1.5,1.6,2.9,2.5,4.4
				c1-1.2,2.7-2.4,2.7-3.6c0.6-28.8,0.9-57.6,1.3-86.4c0-0.3-0.2-0.6-0.4-1.3c-15.2,0-30.5,0-46.1,0c-0.2-1.7-0.4-3.1-0.6-5.3
				c18.5,0,36.7,0,55.2,0c0,33.6,0,67.3,0,101.4c-18.2,0-36.3,0-54.8,0c0-1.5,0-2.9,0-4.6c12,0,23.9,0,35.3,0
				c-0.7-2.2-1.8-4.2-1.8-6.1c-0.1-26.3,0-52.6-0.2-78.9C986.2,1810.4,987.8,1808.7,992.9,1809.6z"/>
			<path id="XMLID_69_" d="M976.9,1812.5c0,27.9,0,55.3,0,82.9c-4.9,0.6-6.6-0.9-6.6-5.7c0.2-23.9,0.2-47.8,0-71.7
				C970.2,1813.3,972.4,1812.4,976.9,1812.5z"/>
			<path id="XMLID_68_" d="M963.2,1815.7c0,25.8,0,51.1,0,76.6c-4.9,0.9-6.5-0.8-6.5-5.5c0.2-21.9,0.2-43.8,0-65.8
				C956.6,1816.6,958.4,1815,963.2,1815.7z"/>
			<path id="XMLID_67_" d="M947.5,1818.7c0,23.7,0,47,0,70.5c-4.5,0.4-6.7-0.6-6.6-5.6c0.2-19.7,0.2-39.4,0-59.2
				C940.8,1820,942.7,1818.6,947.5,1818.7z"/>
			<path id="XMLID_66_" d="M931.4,1822.5c0,21.2,0,42,0,63.1c-4.5,0.9-6.4-0.3-6.4-4.9c0.1-17.7,0.2-35.5,0-53.2
				C925,1823.1,926.8,1821.7,931.4,1822.5z"/>
			<path id="XMLID_65_" d="M917.3,1882.6c-4.6,0.9-6.4-0.7-6.4-5.2c0.1-15.6,0.1-31.1,0-46.7c0-4.4,1.7-6.1,6.4-5.2
				C917.3,1844.6,917.3,1863.6,917.3,1882.6z"/>
			<path id="XMLID_64_" d="M900.3,1879.3c-4.2,0.5-6-0.8-6-4.9c0.1-13.6,0.1-27.1,0-40.7c0-4.1,1.9-5.3,6-4.8
				C900.3,1845.7,900.3,1862.5,900.3,1879.3z"/>
			<path id="XMLID_63_" d="M885,1832c0,14.7,0,29.3,0,44.1c-4.4,0.5-6.6-0.6-6.4-5.6c0.3-10.9,0.3-21.8,0-32.6
				C878.4,1833.1,880.2,1831.6,885,1832z"/>
			<path id="XMLID_62_" d="M869,1872.6c-4.7,0.7-6.5-1-6.4-5.4c0.2-8.7,0.2-17.4,0-26.1c-0.1-4.3,1.5-6.3,6.4-5.4
				C869,1847.8,869,1860,869,1872.6z"/>
			<path id="XMLID_61_" d="M853.4,1838.8c0,10.3,0,20.2,0,30.4c-4.3,0.6-6.5-0.5-6.3-5.1c0.2-6.7,0.2-13.4,0-20
				C846.9,1839.8,848.8,1838.3,853.4,1838.8z"/>
		</g>
	</g>
	<g id="_x32_OiiOb.tif_1_">
		<g id="XMLID_12_">
			<path id="XMLID_22_" d="M1733.6,2193.7c9.3,0,18.6,0,27.9,0c19.3,0,38.5,0.1,57.8-0.1c1.5,0,2.9-1.6,4.4-2.5
				c-1.2-1-2.4-2.7-3.6-2.7c-28.8-0.6-57.6-0.9-86.4-1.3c-0.3,0-0.6,0.2-1.3,0.4c0,15.2,0,30.5,0,46.1c-1.7,0.2-3.1,0.4-5.3,0.6
				c0-18.5,0-36.7,0-55.2c33.6,0,67.3,0,101.4,0c0,18.2,0,36.3,0,54.8c-1.5,0-2.9,0-4.6,0c0-12,0-23.9,0-35.3
				c-2.2,0.7-4.2,1.8-6.1,1.8c-26.3,0.1-52.6,0-78.9,0.2C1734.5,2200.4,1732.8,2198.9,1733.6,2193.7z"/>
			<path id="XMLID_21_" d="M1736.6,2209.7c27.9,0,55.3,0,82.9,0c0.6,4.9-0.9,6.6-5.7,6.6c-23.9-0.2-47.8-0.2-71.7,0
				C1737.4,2216.4,1736.4,2214.2,1736.6,2209.7z"/>
			<path id="XMLID_20_" d="M1739.8,2223.5c25.8,0,51.1,0,76.6,0c0.9,4.9-0.8,6.5-5.5,6.5c-21.9-0.2-43.8-0.2-65.8,0
				C1740.6,2230,1739.1,2228.3,1739.8,2223.5z"/>
			<path id="XMLID_19_" d="M1742.8,2239.1c23.7,0,47,0,70.5,0c0.4,4.5-0.6,6.7-5.6,6.6c-19.7-0.2-39.4-0.2-59.2,0
				C1744,2245.8,1742.6,2243.9,1742.8,2239.1z"/>
			<path id="XMLID_18_" d="M1746.6,2255.2c21.2,0,42,0,63.1,0c0.9,4.5-0.3,6.4-4.9,6.4c-17.7-0.1-35.5-0.2-53.2,0
				C1747.2,2261.6,1745.8,2259.9,1746.6,2255.2z"/>
			<path id="XMLID_17_" d="M1806.7,2269.3c0.9,4.6-0.7,6.4-5.2,6.4c-15.6-0.1-31.1-0.1-46.7,0c-4.4,0-6.1-1.7-5.2-6.4
				C1768.7,2269.3,1787.6,2269.3,1806.7,2269.3z"/>
			<path id="XMLID_16_" d="M1803.3,2286.4c0.5,4.2-0.8,6-4.9,6c-13.6-0.1-27.1-0.1-40.7,0c-4.1,0-5.3-1.9-4.8-6
				C1769.8,2286.4,1786.5,2286.4,1803.3,2286.4z"/>
			<path id="XMLID_15_" d="M1756,2301.6c14.7,0,29.3,0,44.1,0c0.5,4.4-0.6,6.6-5.6,6.4c-10.9-0.3-21.8-0.3-32.6,0
				C1757.2,2308.2,1755.6,2306.4,1756,2301.6z"/>
			<path id="XMLID_14_" d="M1796.6,2317.6c0.7,4.7-1,6.5-5.4,6.4c-8.7-0.2-17.4-0.2-26.1,0c-4.3,0.1-6.3-1.5-5.4-6.4
				C1771.9,2317.6,1784.1,2317.6,1796.6,2317.6z"/>
			<path id="XMLID_13_" d="M1762.9,2333.2c10.3,0,20.2,0,30.4,0c0.6,4.3-0.5,6.5-5.1,6.3c-6.7-0.2-13.4-0.2-20,0
				C1763.9,2339.7,1762.4,2337.9,1762.9,2333.2z"/>
		</g>
	</g>
	<g id="_x32_OiiOb.tif_2_">
		<g id="XMLID_23_">
			<path id="XMLID_33_" d="M3084.6,2351.3c-9.2,0-18.6,0-27.9,0c-19.3,0-38.5-0.1-57.8,0.1c-1.5,0-2.9,1.6-4.4,2.5
				c1.2,1,2.4,2.7,3.6,2.7c28.8,0.6,57.6,0.9,86.4,1.3c0.3,0,0.6-0.2,1.3-0.4c0-15.2,0-30.5,0-46.1c1.7-0.2,3.1-0.4,5.3-0.6
				c0,18.6,0,36.7,0,55.2c-33.6,0-67.3,0-101.4,0c0-18.2,0-36.3,0-54.8c1.5,0,2.9,0,4.6,0c0,12,0,23.9,0,35.3
				c2.2-0.7,4.2-1.8,6.1-1.8c26.3-0.1,52.6,0,78.9-0.2C3083.7,2344.7,3085.4,2346.2,3084.6,2351.3z"/>
			<path id="XMLID_32_" d="M3081.6,2335.3c-27.9,0-55.3,0-82.9,0c-0.6-4.9,0.9-6.6,5.7-6.6c23.9,0.2,47.8,0.2,71.7,0
				C3080.8,2328.7,3081.7,2330.8,3081.6,2335.3z"/>
			<path id="XMLID_31_" d="M3078.4,2321.6c-25.8,0-51.1,0-76.6,0c-0.9-4.9,0.8-6.5,5.5-6.5c21.9,0.2,43.9,0.2,65.8,0
				C3077.6,2315.1,3079.1,2316.8,3078.4,2321.6z"/>
			<path id="XMLID_30_" d="M3075.4,2305.9c-23.7,0-47,0-70.5,0c-0.4-4.5,0.6-6.7,5.6-6.6c19.7,0.2,39.4,0.2,59.2,0
				C3074.2,2299.3,3075.6,2301.1,3075.4,2305.9z"/>
			<path id="XMLID_29_" d="M3071.6,2289.9c-21.2,0-42,0-63.1,0c-0.9-4.5,0.3-6.4,4.9-6.4c17.7,0.1,35.5,0.2,53.2,0
				C3071,2283.5,3072.4,2285.2,3071.6,2289.9z"/>
			<path id="XMLID_28_" d="M3011.5,2275.7c-0.9-4.6,0.7-6.4,5.2-6.4c15.6,0.1,31.1,0.1,46.7,0c4.4,0,6.1,1.7,5.2,6.4
				C3049.5,2275.7,3030.6,2275.7,3011.5,2275.7z"/>
			<path id="XMLID_27_" d="M3014.9,2258.7c-0.5-4.2,0.8-6,4.9-6c13.6,0.1,27.1,0.1,40.7,0c4.1,0,5.3,1.9,4.8,6
				C3048.4,2258.7,3031.6,2258.7,3014.9,2258.7z"/>
			<path id="XMLID_26_" d="M3062.2,2243.4c-14.7,0-29.3,0-44.1,0c-0.5-4.4,0.6-6.6,5.6-6.4c10.9,0.3,21.8,0.3,32.6,0
				C3061,2236.8,3062.6,2238.7,3062.2,2243.4z"/>
			<path id="XMLID_25_" d="M3021.6,2227.5c-0.7-4.7,1-6.5,5.4-6.4c8.7,0.2,17.4,0.2,26.1,0c4.3-0.1,6.3,1.5,5.4,6.4
				C3046.3,2227.5,3034.1,2227.5,3021.6,2227.5z"/>
			<path id="XMLID_24_" d="M3055.3,2211.9c-10.3,0-20.2,0-30.4,0c-0.6-4.3,0.5-6.5,5.1-6.3c6.7,0.2,13.4,0.2,20,0
				C3054.3,2205.3,3055.8,2207.2,3055.3,2211.9z"/>
		</g>
	</g>
	<g id="_x32_OiiOb.tif_3_">
		<g id="XMLID_34_">
			<path id="XMLID_44_" d="M261.2,2234.7c9.3,0,18.6,0,27.9,0c19.3,0,38.5,0.1,57.8,0c1.5,0,2.9-1.6,4.4-2.5c-1.2-1-2.4-2.7-3.6-2.7
				c-28.8-0.6-57.6-1-86.4-1.5c-0.3,0-0.6,0.2-1.3,0.4c0,15.2-0.1,30.5-0.1,46.1c-1.7,0.2-3.1,0.3-5.3,0.6c0-18.5,0.1-36.7,0.1-55.2
				c33.6,0.1,67.3,0.1,101.4,0.2c0,18.2-0.1,36.3-0.1,54.8c-1.5,0-2.9,0-4.6,0c0-12,0-23.9,0.1-35.3c-2.2,0.7-4.2,1.7-6.1,1.8
				c-26.3,0.1-52.6-0.1-78.9,0C262.1,2241.3,260.4,2239.8,261.2,2234.7z"/>
			<path id="XMLID_43_" d="M264.2,2250.7c27.9,0,55.3,0.1,82.9,0.1c0.6,4.9-0.9,6.6-5.7,6.6c-23.9-0.2-47.8-0.3-71.7-0.1
				C264.9,2257.3,264,2255.2,264.2,2250.7z"/>
			<path id="XMLID_42_" d="M267.3,2264.4c25.8,0,51.1,0.1,76.6,0.1c0.9,4.9-0.8,6.5-5.5,6.5c-21.9-0.2-43.8-0.2-65.8-0.1
				C268.2,2271,266.6,2269.2,267.3,2264.4z"/>
			<path id="XMLID_41_" d="M270.3,2280.1c23.7,0,47,0.1,70.5,0.1c0.4,4.5-0.6,6.7-5.6,6.6c-19.7-0.3-39.4-0.3-59.2-0.1
				C271.6,2286.7,270.2,2284.9,270.3,2280.1z"/>
			<path id="XMLID_40_" d="M274.1,2296.1c21.2,0,42,0.1,63.1,0.1c0.9,4.5-0.3,6.4-4.9,6.4c-17.7-0.2-35.5-0.2-53.2-0.1
				C274.7,2302.6,273.3,2300.8,274.1,2296.1z"/>
			<path id="XMLID_39_" d="M334.2,2310.4c0.9,4.6-0.7,6.4-5.2,6.4c-15.6-0.2-31.1-0.2-46.7-0.1c-4.4,0-6.1-1.7-5.2-6.4
				C296.1,2310.3,315.1,2310.4,334.2,2310.4z"/>
			<path id="XMLID_38_" d="M330.8,2327.4c0.5,4.2-0.9,6-4.9,6c-13.6-0.1-27.1-0.2-40.7-0.1c-4.1,0-5.3-1.9-4.8-6
				C297.2,2327.4,314,2327.4,330.8,2327.4z"/>
			<path id="XMLID_37_" d="M283.5,2342.6c14.7,0,29.3,0,44.1,0.1c0.4,4.4-0.6,6.6-5.6,6.4c-10.9-0.3-21.8-0.4-32.6,0
				C284.6,2349.2,283.1,2347.4,283.5,2342.6z"/>
			<path id="XMLID_36_" d="M324,2358.6c0.7,4.7-1,6.5-5.4,6.4c-8.7-0.2-17.4-0.2-26.1,0c-4.3,0.1-6.3-1.5-5.4-6.4
				C299.3,2358.6,311.5,2358.6,324,2358.6z"/>
			<path id="XMLID_35_" d="M290.3,2374.2c10.3,0,20.2,0,30.4,0.1c0.6,4.3-0.5,6.5-5.2,6.3c-6.7-0.2-13.4-0.2-20,0
				C291.2,2380.7,289.8,2378.8,290.3,2374.2z"/>
		</g>
	</g>
	<rect id="XMLID_10_" x="1976.6" y="2504" class="st2" width="141" height="38.1"/>
	<rect id="XMLID_46_" x="1972.4" y="367.7" class="st2" width="141" height="38.1"/>
	<rect id="XMLID_45_" x="1110.8" y="515.7" class="st3" width="99" height="777.1"/>
	<rect id="XMLID_47_" x="1110.8" y="1478.8" class="st3" width="102" height="336"/>
	<rect id="XMLID_48_" x="393" y="377" class="st3" width="1544" height="76"/>
	<rect id="XMLID_49_" x="2149" y="377" class="st3" width="908" height="80"/>
	<rect id="XMLID_50_" x="1713.8" y="2363.9" class="st3" width="114" height="96"/>
	<polygon id="XMLID_51_" class="st0" points="1713.8,2459.9 1239.8,2459.9 1239.8,2126.9 1652,2126 1652,2179 1713.8,2179.6 	"/>
	<rect id="XMLID_52_" x="2229.9" y="2033.9" class="st3" width="696.1" height="72"/>
	<polygon id="XMLID_53_" class="st3" points="2009,1268 1903.8,1286.8 1903.8,515.7 2009,547 	"/>
	<polygon id="XMLID_59_" class="st3" points="2006,1974 1904,1991 1903,1489 2006,1506 	"/>
	<polygon id="XMLID_60_" class="st3" points="2083.6,1974.3 2188.4,1994.7 2188.7,1488.3 2082,1509 	"/>
	<polygon id="XMLID_73_" class="st3" points="2084,2350.7 2188,2370.7 2188.1,2118.7 2083,2136.7 	"/>
	<polygon id="XMLID_74_" class="st3" points="1903.7,2288.3 2009,2267 2009.7,2139 1903.3,2115.3 	"/>
	<polygon id="XMLID_55_" class="st3" points="2188,1288 2083.5,1268 2083,547.7 2187.9,522.4 	"/>
	<polygon id="XMLID_54_" class="st4" points="342.5,798 223,798 223.7,686.6 342.5,686 	"/>
	<polygon id="XMLID_57_" class="st4" points="1826.6,1446.1 1225.1,1446.1 1249.1,1333.6 1859.6,1335.1 	"/>
	<polygon id="XMLID_107_" class="st4" points="1065,1443.7 494.3,1445 469,1331.7 1087.7,1333 	"/>
	<polygon id="XMLID_58_" class="st4" points="2933.7,1445 2224,1445 2241.9,1333.3 2957,1332.3 	"/>
	<g id="_x39_EclLV.tif">
		<g id="XMLID_56_">
			<path id="XMLID_97_" d="M2045.7,1409.4c-17.1,0-34.2,0-51.3,0c-2.2,0-2.3,0-2.4-2.2c-0.1-3.2-0.1-6.4-0.1-9.7
				c0-19.1,0-38.2,0-57.3c0-0.8,0.1-1.6,0.1-2.4c0-1,0.6-1.4,1.6-1.4c1.7,0,3.4,0,5.1,0c32.8,0,65.5,0,98.3,0c2.3,0,2.4,0.1,2.4,2.4
				c0,22.6,0,45.3,0,67.9c0,0.4,0,0.7,0,1.1c0,1.1-0.5,1.6-1.6,1.6c-2.3,0-4.7,0-7,0C2075.8,1409.4,2060.8,1409.4,2045.7,1409.4
				C2045.7,1409.4,2045.7,1409.4,2045.7,1409.4z M2045.8,1398.4C2045.8,1398.4,2045.8,1398.4,2045.8,1398.4c13.6,0,27.3,0,40.9,0
				c1.7,0,1.7,0,1.7-1.7c0-15.4,0.1-30.8,0-46.1c0-3.1,0.7-3.3-3.3-3.3c-24,0-48.1,0-72.1,0c-2.7,0-5.4,0-8.1,0c-1.7,0-2,0.4-2,2
				c0,3.1,0,6.1,0,9.2c0,12.7,0.1,25.5,0.1,38.2c0,1.7,0.2,1.8,1.8,1.8C2018.6,1398.4,2032.2,1398.4,2045.8,1398.4z"/>
			<path id="XMLID_96_" d="M2044.8,1426.2c-4.4,0.2-8.6-0.8-12.7-2.2c-4.1-1.5-7.8-3.7-10.9-6.9c-0.2-0.2-0.5-0.7-0.4-0.9
				c0.1-0.3,0.5-0.7,0.9-0.7c1.6-0.1,3.2-0.2,4.9-0.2c14.3,0,28.6,0,42.9,0c0.4,0,1.1,0.3,1.2,0.5c0.1,0.4-0.1,1-0.5,1.3
				c-2,1.9-4.2,3.6-6.6,4.9c-2.8,1.5-5.7,2.4-8.7,3.2C2051.5,1426.2,2048.2,1426.1,2044.8,1426.2z"/>
		</g>
	</g>
	<rect id="XMLID_71_" x="783" y="1919" class="st4" width="420" height="124"/>
	<polygon id="XMLID_72_" class="st4" points="1239.8,2459.9 993,2461 994.3,2128.3 1052,2129 1053,2196 1168.5,2196.5 1169,2129 
		1239.8,2129 	"/>
	<rect id="XMLID_75_" x="826" y="2128" class="st4" width="167" height="333"/>
	<rect id="XMLID_76_" x="370.2" y="2127.1" class="st3" width="455.8" height="333.9"/>
	<g id="cc9j3t.tif">
		<g id="XMLID_77_">
			<path id="XMLID_122_" class="st5" d="M540.8,2273.3c4,0,8,0,12,0c3.2,0,3.6,0.4,3.1,3.7c-0.9,6.7-2.7,13.2-5,19.5
				c-6.2,16.7-16.3,30.6-30,41.9c-1.6,1.3-3.3,2.5-5,3.7c-0.5,0.4-1.2,0.8-1.8,0.4c-0.6-0.4-0.4-1.1-0.3-1.6
				c1.4-5.4,2.7-10.8,4.2-16.2c0.3-0.9,1.3-1.7,2-2.5c9.2-9.5,16-20.6,20.1-33.2c0.9-2.7,0.5-3.3-2.4-3.3c-3.6,0-7.2,0-10.7,0
				c-2.2,0-3-1-2.8-3.1c0.3-2.2,0.6-4.5,0.7-6.7c0.1-2,1-2.9,2.9-2.8C532.1,2273.2,536.5,2273.2,540.8,2273.3
				C540.8,2273.2,540.8,2273.2,540.8,2273.3z"/>
			<path id="XMLID_121_" class="st6" d="M455.1,2241.1c-0.9,3.5-3.3,6.1-5.9,8.5c-0.8,0.7-1.6,0.3-1.4-0.7c1-5.8-2.4-9.8-5.4-14
				c-4.6-6.5-1.4-12.2,2.9-17c0.7-0.8,1.7-0.9,1.6,0.4c-0.2,4.9,2.8,8.1,5.6,11.6c1.1,1.3,2.3,2.6,2.6,4.5
				C455.8,2236.6,455.7,2238.9,455.1,2241.1z"/>
			<path id="XMLID_113_" class="st7" d="M511.3,2294c-2,14.9-4.8,29.6-9,44c-0.2,0.6-0.2,1.3-0.3,2c-1.9,3.6-2.6,7.5-3.9,11.3
				c-2.9,8.4-6.2,16.6-9.5,24.9c-1,2.4-2.5,3.1-4.9,3.1c-12.5-0.1-25,0-37.5,0c-3.7,0-7.3,0-11,0c-2,0-3.2-1-4-2.8
				c-5-12.1-9.8-24.2-13.2-36.8c-0.2-0.6-0.6-1.2-0.9-1.7c-1.1-4.9-2.2-9.7-3.4-14.6c-2.5-10.2-4.2-20.6-5.4-31
				c-1.2-10.1-2.3-20.2-2.4-30.4c0-4,0.1-4.2,4.1-4.2c33,0,66,0,99,0c0.7,0,1.5,0.1,2.2,0c2-0.1,2.8,0.8,2.8,2.8
				c-0.1,6.4-0.8,12.8-1.4,19.2C512.2,2284.6,511.7,2289.3,511.3,2294z"/>
			<path id="XMLID_112_" class="st8" d="M479.9,2231.6c-0.1,3.1-1.3,5.8-2.9,8.4c-1.9,3.1-4.5,5.8-7.1,8.3c-0.3,0.3-0.7,0.8-1.2,0.7
				c-0.6-0.1-0.6-0.8-0.5-1.2c1.9-7.4-2.4-12.5-6.4-17.8c-1.5-2.1-3-4.1-3.8-6.7c-1.5-4.9,0.2-9.2,2.8-13.2c1-1.5,2.2-2.9,3.3-4.4
				c0.3-0.4,0.7-1,1.4-0.7c0.6,0.2,0.5,0.8,0.5,1.3c-0.2,5.3,2.6,9.1,6.1,12.6c2.4,2.5,4.9,4.8,6.4,7.9
				C479.3,2228.3,480,2229.9,479.9,2231.6z"/>
		</g>
	</g>
	<g id="XMLID_80_">
		<g id="Kdsb7q.tif">
			<g id="XMLID_78_">
				<path id="XMLID_156_" d="M912.7,2136.8c10.1,0,20.1,0,30.2,0c4.4,0,8,1.5,10.1,5.5c0.9,1.7,1.5,3.9,1.5,5.8
					c0.1,19.7,0.1,39.5,0.1,59.2c0,7-5.1,11.8-11.9,11.8c-19.6,0-39.1,0.1-58.7,0c-5.8,0-9.5-2.8-11.4-8.3c-0.2-0.7-0.2-1.4-0.2-2.1
					c0-20.6,0-41.1,0-61.7c0-4.9,4.9-10,9.5-10c10.3,0,20.6,0,30.8,0C912.7,2136.9,912.7,2136.8,912.7,2136.8z M949.4,2177.5
					C949.3,2177.5,949.3,2177.5,949.4,2177.5c-0.1-9.7-0.2-19.4,0-29.2c0.1-4.3-2.2-6.6-6.5-6.6c-3.2,0-6.3,0-9.5,0
					c-9,0-18-0.1-27-0.1c-7.6,0-15.1,0-22.7,0.1c-3.6,0-6.4,2.1-6.3,6.2c0.1,19.8,0.1,39.7,0,59.5c0,4.2,2.7,6.4,6.5,6.5
					c6.7,0,13.3,0,20,0c7.8,0,15.5,0,23.3,0c5.3,0,10.7,0,16,0c3.7,0,6.1-2.4,6.1-6C949.4,2197.7,949.4,2187.6,949.4,2177.5z"/>
				<path id="XMLID_88_" d="M915.6,2169.2c0-1.2-0.8-2.7-1.6-3.6c-1.2-1.3-2.8-2.3-4.4-3.6c0.1-0.2-0.5,0.3-0.4,0.2
					c-4.3,3.3-9.9,3.3-14.3,0.3c-2.8,0.3-4.1,2.4-5.5,4.1c-0.6,0.7-1.1,1.7-1.1,2.5c-0.1,6.6-0.1,13.1,0,19.7c0,1.2,1.9,3.7,3.1,3.8
					c1.3,0.1,1.3,0.9,1.3,1.8c0,3.7,0,7.4,0,11.2c0,2.5,2.3,4.9,4.6,4.9c2.1,0,4.4-2.6,4.4-4.7c0-2.7,0-5.3,0-8
					c0-0.6,0.1-1.2,0.1-1.7c0.3-0.1,0.5-0.1,0.8-0.2c0.1,0.6,0.4,1.2,0.4,1.8c0,2.8,0,5.6,0,8.3c-0.1,3.5,0.4,3.2,3,4.4
					c2.7,1.2,5.8-0.9,5.8-3.8c0-3.9,0.1-7.8,0-11.7c0-1.5,0.4-2.4,1.9-2.8c1.3-0.4,2.2-1.2,2.2-2.7
					C915.7,2182.6,915.8,2175.9,915.6,2169.2z"/>
				<path id="XMLID_145_" d="M930.2,2187c2,0,4-0.1,6,0c2.3,0.1,3.4,1.8,2.3,3.9c-1.9,3.6-3.9,7.1-6,10.6c-1.2,2.1-3.7,1.7-5.1-0.8
					c-1.8-3.4-3.6-6.8-5.4-10.2c-1-1.8-0.1-3.5,2-3.6C926.1,2186.9,928.2,2187,930.2,2187C930.2,2187,930.2,2187,930.2,2187z"/>
				<path id="XMLID_142_" d="M930.3,2168.6c-2,0-4.1,0.2-6.1,0c-2.4-0.3-3-1.7-1.9-3.8c1.8-3.3,3.5-6.6,5.3-9.9
					c1.5-2.8,3.6-2.9,5.2-0.2c2,3.3,3.9,6.6,5.7,10c1,1.9,0.1,3.7-2,3.9C934.5,2168.8,932.4,2168.7,930.3,2168.6
					C930.3,2168.7,930.3,2168.6,930.3,2168.6z"/>
			</g>
		</g>
		<circle id="XMLID_79_" cx="902.1" cy="2154.2" r="9.5"/>
	</g>
	<g id="opP1B0.tif">
		<g id="XMLID_81_">
			<path id="XMLID_140_" d="M1994.2,2370.6c-9.5,0-19,0-28.5,0c-1.9,0-2.2-0.4-2.2-2.3c0-14,0-28,0-42.1c0-2.2,0.2-2.5,2.5-2.5
				c4.9,0,9.7,0,14.6,0c0.6,0,1.3,0.1,1.9,0.1c1,0,1.4,0.6,1.5,1.6c0,0.9,0.1,1.8,0.1,2.7c0,1.5-0.6,2.2-2.1,2.2
				c-3.5,0-6.9,0-10.4,0c-1.5,0-1.7,0.2-1.7,1.7c0,10,0,20,0,30c0,1.7,0.3,1.9,1.9,1.9c14.6,0,29.2,0,43.7,0c0.3,0,0.6,0,0.9,0
				c1.3,0.1,1.7-0.5,1.7-1.7c0-6.7,0-13.3,0-20c0-3.4,0-6.8,0-10.3c0-1.2-0.4-1.6-1.6-1.6c-3.3,0-6.6,0-9.9,0c-2.4,0-2.9-0.6-2.9-3
				c0-3.3,0.3-3.6,3.6-3.6c5.1,0,10.3,0,15.4,0.1c1.7,0,1.9,0.2,1.9,2c0,13.2,0,26.3,0,39.5c0,1.2,0,2.5,0,3.7
				c0,1.1-0.5,1.5-1.6,1.5c-2.1,0-4.3,0-6.4,0C2009.2,2370.6,2001.7,2370.6,1994.2,2370.6z"/>
			<path id="XMLID_139_" d="M1986.5,2359.3c-3,0-6,0.1-9,0c-0.7,0-1.9-0.4-2-0.9c-0.3-0.9-0.2-2.1,0.2-3c0.8-1.8,2.6-2,4.3-2.5
				c0.8-0.2,1.5-0.5,2.2-0.9c0.9-0.4,0.9-1.1,0.6-2c-0.8-1.9-1.5-3.9-1.9-5.9c-0.4-2.2,0.2-4.3,2-5.7c2.5-2,6.5-1.1,8.3,1.6
				c1.1,1.7,1,3.5,0.6,5.3c-0.3,1.4-0.9,2.7-1.5,3.9c-0.9,1.8-0.4,3,1.6,3.6c1.1,0.3,2.3,0.6,3.4,1c1.7,0.7,2.8,3.1,1.9,4.7
				c-0.3,0.5-1.2,0.8-1.9,0.9C1992.3,2359.3,1989.4,2359.3,1986.5,2359.3z"/>
			<path id="XMLID_136_" d="M2000.2,2319.8c0,2.7,0,5.5,0,8.2c0,1.7-0.4,2.2-2.2,2.3c-2.6,0.1-5.2,0.1-7.8,0c-1.7,0-2.3-0.5-2.3-2.3
				c0-2.4,0-4.9,0-7.3c0-2.9,0-5.8,0-8.7c0-2.3,0.3-2.6,2.6-2.7c2.6-0.1,5.1-0.1,7.7,0c1.8,0.1,2,0.4,2.1,2.2
				C2000.2,2314.2,2000.2,2317,2000.2,2319.8C2000.2,2319.8,2000.2,2319.8,2000.2,2319.8z M1994.2,2317.9c-0.9,0-2.1,0.9-2.1,1.7
				c0,0.7,1.3,2,2.1,1.9c0.9-0.2,1.7-0.7,1.7-1.8C1996,2318.9,1995.1,2317.9,1994.2,2317.9z"/>
			<path id="XMLID_135_" d="M2005.6,2337.4c1.9,0,3.8,0,5.8,0c1.5,0,1.9,0.5,1.9,2c0.1,2.8-0.4,3.3-3.2,3.3c-3.1,0-6.2,0-9.4,0
				c-2.5,0-3.8-2.1-2.5-4.3c0.3-0.5,1.2-0.9,1.8-0.9C2001.8,2337.3,2003.7,2337.4,2005.6,2337.4
				C2005.6,2337.4,2005.6,2337.4,2005.6,2337.4z"/>
			<path id="XMLID_134_" d="M2005.5,2350.9c-1.8,0-3.6,0-5.4,0c-1.6,0-2.2-0.7-2.2-2.6c0-1.9,0.5-2.6,2.2-2.6c3.7,0,7.3,0,11,0
				c1.7,0,2.2,0.6,2.2,2.4c0,2.1-0.5,2.7-2.1,2.8C2009.3,2350.9,2007.4,2350.9,2005.5,2350.9
				C2005.5,2350.9,2005.5,2350.9,2005.5,2350.9z"/>
			<path id="XMLID_133_" d="M2008,2359.2c-1.1,0-2.3,0-3.4,0c-1.1,0-1.7-0.7-1.7-1.8c0-0.5,0-0.9,0-1.4c0-1.2,0.6-1.8,1.7-1.8
				c2.2-0.1,4.4-0.1,6.6-0.1c1.5,0,2,0.8,2,2.6c0,2-0.3,2.4-2.1,2.5C2010.2,2359.3,2009.1,2359.2,2008,2359.2z"/>
			<path id="XMLID_132_" class="st9" d="M1994.2,2317.9c0.9,0,1.8,1,1.7,1.9c-0.1,1.1-0.8,1.6-1.7,1.8c-0.8,0.1-2.1-1.1-2.1-1.9
				C1992.1,2318.8,1993.3,2317.9,1994.2,2317.9z"/>
		</g>
	</g>
	<g id="opP1B0.tif_1_">
		<g id="XMLID_83_">
			<path id="XMLID_94_" d="M2042.8,373.3c-9.5,0-19,0-28.5,0c-1.9,0-2.2-0.4-2.2-2.3c0-14,0-28,0-42.1c0-2.2,0.2-2.5,2.5-2.5
				c4.9,0,9.7,0,14.6,0c0.6,0,1.3,0.1,1.9,0.1c1,0,1.4,0.6,1.5,1.6c0,0.9,0.1,1.8,0.1,2.7c0,1.5-0.6,2.2-2.1,2.2
				c-3.5,0-6.9,0-10.4,0c-1.5,0-1.7,0.2-1.7,1.7c0,10,0,20,0,30c0,1.7,0.3,1.9,1.9,1.9c14.6,0,29.2,0,43.7,0c0.3,0,0.6,0,0.9,0
				c1.3,0.1,1.7-0.5,1.7-1.7c0-6.7,0-13.3,0-20c0-3.4,0-6.8,0-10.3c0-1.2-0.4-1.6-1.6-1.6c-3.3,0-6.6,0-9.9,0c-2.4,0-2.9-0.6-2.9-3
				c0-3.3,0.3-3.6,3.6-3.6c5.1,0,10.3,0,15.4,0.1c1.7,0,1.9,0.2,1.9,2c0,13.2,0,26.3,0,39.5c0,1.2,0,2.5,0,3.7
				c0,1.1-0.5,1.5-1.6,1.5c-2.1,0-4.3,0-6.4,0C2057.8,373.3,2050.3,373.3,2042.8,373.3z"/>
			<path id="XMLID_93_" d="M2035.1,361.9c-3,0-6,0.1-9,0c-0.7,0-1.9-0.4-2-0.9c-0.3-0.9-0.2-2.1,0.2-3c0.8-1.8,2.6-2,4.3-2.5
				c0.8-0.2,1.5-0.5,2.2-0.9c0.9-0.4,0.9-1.1,0.6-2c-0.8-1.9-1.5-3.9-1.9-5.9c-0.4-2.2,0.2-4.3,2-5.7c2.5-2,6.5-1.1,8.3,1.6
				c1.1,1.7,1,3.5,0.6,5.3c-0.3,1.4-0.9,2.7-1.5,3.9c-0.9,1.8-0.4,3,1.6,3.6c1.1,0.3,2.3,0.6,3.4,1c1.7,0.7,2.8,3.1,1.9,4.7
				c-0.3,0.5-1.2,0.8-1.9,0.9C2040.9,362,2038,361.9,2035.1,361.9z"/>
			<path id="XMLID_90_" d="M2048.8,322.4c0,2.7,0,5.5,0,8.2c0,1.7-0.4,2.2-2.2,2.3c-2.6,0.1-5.2,0.1-7.8,0c-1.7,0-2.3-0.5-2.3-2.3
				c0-2.4,0-4.9,0-7.3c0-2.9,0-5.8,0-8.7c0-2.3,0.3-2.6,2.6-2.7c2.6-0.1,5.1-0.1,7.7,0c1.8,0.1,2,0.4,2.1,2.2
				C2048.8,316.9,2048.8,319.7,2048.8,322.4C2048.8,322.4,2048.8,322.4,2048.8,322.4z M2042.8,320.6c-0.9,0-2.1,0.9-2.1,1.7
				c0,0.7,1.3,2,2.1,1.9c0.9-0.2,1.7-0.7,1.7-1.8C2044.6,321.6,2043.7,320.6,2042.8,320.6z"/>
			<path id="XMLID_89_" d="M2054.2,340c1.9,0,3.8,0,5.8,0c1.5,0,1.9,0.5,1.9,2c0.1,2.8-0.4,3.3-3.2,3.3c-3.1,0-6.2,0-9.4,0
				c-2.5,0-3.8-2.1-2.5-4.3c0.3-0.5,1.2-0.9,1.8-0.9C2050.5,339.9,2052.3,340,2054.2,340C2054.2,340,2054.2,340,2054.2,340z"/>
			<path id="XMLID_87_" d="M2054.1,353.6c-1.8,0-3.6,0-5.4,0c-1.6,0-2.2-0.7-2.2-2.6c0-1.9,0.5-2.6,2.2-2.6c3.7,0,7.3,0,11,0
				c1.7,0,2.2,0.6,2.2,2.4c0,2.1-0.5,2.7-2.1,2.8C2057.9,353.6,2056,353.6,2054.1,353.6C2054.1,353.6,2054.1,353.6,2054.1,353.6z"/>
			<path id="XMLID_85_" d="M2056.7,361.9c-1.1,0-2.3,0-3.4,0c-1.1,0-1.7-0.7-1.7-1.8c0-0.5,0-0.9,0-1.4c0-1.2,0.6-1.8,1.7-1.8
				c2.2-0.1,4.4-0.1,6.6-0.1c1.5,0,2,0.8,2,2.6c0,2-0.3,2.4-2.1,2.5C2058.8,361.9,2057.7,361.9,2056.7,361.9z"/>
			<path id="XMLID_84_" class="st9" d="M2042.8,320.6c0.9,0,1.8,1,1.7,1.9c-0.1,1.1-0.8,1.6-1.7,1.8c-0.8,0.1-2.1-1.1-2.1-1.9
				C2040.7,321.5,2041.9,320.6,2042.8,320.6z"/>
		</g>
	</g>
	<g id="CWZxt4.tif">
		<g id="XMLID_82_">
			<path id="XMLID_293_" d="M1082.7,2406.6c0,4.3,0,8.2,0,12.1c0,7.7,0,15.3,0,23c0,4.3-2,6.5-5.6,6.4c-3.3,0-5.4-2.5-5.4-6.5
				c0-11,0-22,0-33c0-0.7-0.5-1.3-0.8-2c-0.3,0.7-0.8,1.3-0.8,2c-0.1,11.1,0,22.2-0.1,33.2c0,3.6-1.9,5.9-5,6.1
				c-3.8,0.3-6.1-1.9-6.1-6.1c0-9.6,0-19.2,0-28.7c0-1.5-0.1-3,0-4.5c0.1-1.7-0.6-2.1-2.2-2.1c-2.7,0.1-5.5,0-8.2,0.1
				c-1.8,0-2.6-0.5-2-2.5c3.3-11.1,6.5-22.2,9.7-33.3c1.2-4,2.3-8.1,3.4-12.1c-0.3-0.1-0.5-0.2-0.8-0.3c-0.5,1.1-1.1,2.2-1.4,3.4
				c-2.1,7.3-4.2,14.7-6.4,22.1c-0.2,0.6-0.5,1.2-0.7,1.9c-1.2,2.8-3.6,4.1-5.9,3.4c-2.8-0.9-4.2-3.6-3.4-6.6
				c0.8-2.9,1.7-5.8,2.5-8.6c2.3-7.3,4.5-14.6,6.8-21.9c1.9-5.7,7-9.5,13-9.7c4.3-0.1,8.7-0.1,13-0.1c7.8,0.1,13.2,3.9,15.5,11.3
				c3,9.6,5.9,19.3,8.7,28.9c0.3,1.2,0.4,2.9-0.3,3.8c-1,1.3-2.7,2.9-4.2,2.9c-1.4,0-3.4-1.4-4.2-2.8c-1.2-2-1.7-4.5-2.4-6.8
				c-2-6.5-3.9-13.1-5.9-19.6c-0.2-0.6-0.5-1.1-0.8-1.6c-0.2,0.1-0.4,0.1-0.7,0.2c0.1,0.7,0.1,1.3,0.2,2c2.8,9.4,5.6,18.8,8.4,28.2
				c1.5,4.9,2.9,9.9,4.4,14.8c0.7,2.5,0.3,3-2.2,3C1089.7,2406.6,1086.3,2406.6,1082.7,2406.6z"/>
			<path id="XMLID_292_" d="M1170.5,2360.2c0,1.1,0,2.1,0,3.2c0,25.9,0,51.8,0,77.7c0,3.1-1.6,5.6-4.2,6.5c-2.7,1-5.7,0.2-7.5-2.4
				c-0.9-1.3-1.3-3.1-1.3-4.6c-0.1-14.6-0.1-29.2-0.1-43.7c0-0.9-0.1-1.9-0.2-2.8c-0.3,0-0.5,0-0.8,0c-0.1,0.8-0.2,1.6-0.2,2.4
				c0,14.7,0,29.3,0,44c0,4.5-2.4,7.3-6.3,7.5c-3.9,0.1-6.6-2.5-6.9-6.7c-0.1-2.7,0-5.3,0-8c0-23.7,0.1-47.3,0.1-71
				c0-0.7-0.1-1.4-0.2-2c-0.2,0-0.4,0-0.7,0c-0.1,0.7-0.2,1.5-0.2,2.2c0,8.3,0.1,16.7-0.1,25c0,1.7-0.4,3.6-1.4,4.9
				c-2.5,3.2-7.3,2-8.5-1.9c-0.3-1-0.4-2.1-0.4-3.2c0-9.7,0-19.5,0-29.2c0-5.5,1.7-10.3,6.5-13.3c2.2-1.3,4.9-2.3,7.5-2.4
				c7.2-0.3,14.5-0.2,21.7-0.1c8.2,0.1,14,6.2,14,14.4c0,10.7,0,21.3,0,32c0,3.2-2,5.5-4.8,5.5c-2.7,0-5-2.4-5-5.5
				c-0.1-8.6,0-17.2,0-25.7c0-0.9-0.1-1.9-0.2-2.8C1171.1,2360.1,1170.8,2360.1,1170.5,2360.2z"/>
			<path id="XMLID_291_" d="M1121.2,2383.3c0,20.1,0,40.1,0,60.2c0,4.1-0.1,4.1-4.3,4.1c-2.2,0-4.3,0-6.5,0c-1.6,0-2.5-0.8-2.4-2.5
				c0-1.2,0-2.5,0-3.7c0-39.4,0-78.8,0-118.2c0-3.4,0.3-3.8,3.7-3.7c2.1,0,4.2,0,6.2,0c3,0,3.3,0.3,3.3,3.4
				C1121.2,2342.9,1121.2,2363.1,1121.2,2383.3C1121.2,2383.3,1121.2,2383.3,1121.2,2383.3z"/>
			<path id="XMLID_290_" d="M1055.9,2232.9c0.2,4.7,0.5,9.2,0.7,13.7c0.1,1.7,1.2,1.6,2.2,1.6c5.2,0,10.3,0,15.5,0
				c3.1,0,3.3,0.3,3.3,3.3c0,6.1,0.6,5.8-5.8,5.7c-4.7,0-9.3,0-14,0c-1,3.3-0.6,4,2.9,3.9c7.5-0.1,15,0,22.5-0.2
				c1.7,0,2.6,0.6,3.2,2.1c3.3,7.7,6.7,15.4,9.9,23.2c0.8,1.8,1.6,2.6,3.5,1.5c0.7-0.4,1.5-0.6,2.3-0.9c4.1-1.4,4.1-1.4,5.9,2.3
				c1.4,2.8,1.3,3.1-1.6,4.2c-4,1.6-8.1,3.1-12,4.8c-1.7,0.7-2.4,0.2-3.1-1.3c-2.2-5.1-4.4-10.2-6.5-15.4c-1.3-3.1-2.7-6.1-3.9-9.2
				c-0.7-1.8-1.7-2.5-3.8-2.5c-8.2,0.1-16.3,0-24.5,0.1c-2.1,0-2.9-0.6-3-2.8c-0.9-12.7-2-25.4-3-38.1c0-0.6-0.2-1.2-0.3-1.7
				c-1.6-4.8,0.8-10,5.2-11.4c4.7-1.6,9.6,1,11.3,6c1.4,4.1-1.2,8.7-5.7,10.5C1056.7,2232.6,1056.4,2232.7,1055.9,2232.9z"/>
			<path id="XMLID_289_" d="M1215.1,2235.6c-4.7,0.3-10,0.3-14.4,3.8c-1.6,1.2-2.9,2.7-4.5,4c-1.5,1.3-1.4,2.2,0,3.6
				c4,4,5.7,8.8,4.4,14.3c-0.5,2-1.4,3.9-2.4,5.7c-1.2,2.1-2.4,2.2-4.1,0.5c-6.7-6.6-13.3-13.3-20-20c-3.1-3.1-6.1-6.1-9.2-9.2
				c-1.8-1.8-1.7-2.5,0.3-3.9c6-4.4,14.5-3.7,20,1.5c2.7,2.6,2.9,2.7,5.3,0c7.9-8.9,18.4-10.3,29.4-10.1c1.5,0,2.4,0.7,2.3,2.3
				c0,0.2,0,0.3,0,0.5C1222.2,2236.4,1223.2,2235.6,1215.1,2235.6z"/>
			<path id="XMLID_288_" d="M1058.6,2308.8c-18.4-0.4-32.6-16.1-30.6-34.4c1.2-10.3,6.8-18.1,15.6-23.4c2.1-1.3,2.7-0.9,2.9,1.5
				c0,0.2,0,0.3,0,0.5c0.8,3.9-0.2,6.7-3.3,9.9c-11.8,12.3-6.2,31,10.2,35.8c10.2,3,22.9-4.4,25.3-14.9c0.2-0.6,0.2-1.3,0.5-1.9
				c0.2-0.4,0.7-0.8,1.1-0.8c0.4,0,0.9,0.4,1.1,0.8c1.3,2.7,2.7,5.3,3.8,8.1c0.4,1,0.1,2.5-0.4,3.5c-4.3,7.2-10.5,11.9-18.6,14
				C1063.7,2308.1,1061.1,2308.4,1058.6,2308.8z"/>
			<path id="XMLID_287_" d="M1195.1,2285.9c-0.7-0.5-1.4-0.9-2-1.5c-12.3-12.3-24.5-24.6-36.8-37c-2.8-2.8-5.5-5.6-8.4-8.2
				c-1.4-1.3-1.5-2.4-0.1-3.7c1.3-1.2,2.6-2.4,3.7-3.7c1.5-1.7,2.6-1.4,4.1,0.1c13.5,13.6,27.1,27.1,40.6,40.7
				c1.5,1.5,3.1,3.1,4.6,4.6c1.1,1,1.5,2,0.3,3.2c-1.5,1.5-3,3.1-4.6,4.6C1196.3,2285.3,1195.7,2285.5,1195.1,2285.9z"/>
			<path id="XMLID_286_" d="M1167.6,2329.2c0,6.2-4.6,11-10.7,11.1c-5.9,0.1-11.1-5.1-11.1-10.9c0-5.9,5-11,10.9-11.1
				C1162.7,2318.3,1167.5,2323.1,1167.6,2329.2z"/>
			<path id="XMLID_285_" d="M1071,2340.3c-5.9-0.1-11-5.2-10.9-11.1c0-5.7,5.3-10.9,11-10.8c5.9,0,11.1,5.2,11.1,11
				C1082,2335.2,1076.9,2340.4,1071,2340.3z"/>
			<path id="XMLID_284_" d="M1156.3,2262.1c-1.1-0.8-2-1.1-2.2-1.8c-0.3-0.6-0.2-1.8,0.3-2.2c1.3-1.2,2.7-2.2,4.2-3
				c0.5-0.3,1.7,0.1,2.2,0.6c0.5,0.5,0.9,1.9,0.6,2.1C1159.8,2259.3,1158,2260.6,1156.3,2262.1z"/>
			<path id="XMLID_283_" d="M1129.3,2258.7c0.1,2.4-4.7,5.7-6.6,4.8c-1.3-0.6-2.1-1.9-0.9-3c1.3-1.3,2.9-2.5,4.6-3.3
				C1127.9,2256.5,1128.9,2257.6,1129.3,2258.7z"/>
			<path id="XMLID_282_" d="M1143,2256.2c1.1,0.9,2,1.2,2.3,1.9c0.3,0.5,0.1,1.7-0.3,2c-1.3,1.2-2.8,2.4-4.4,3.2
				c-0.5,0.3-1.7-0.1-2.2-0.6c-0.5-0.5-0.8-1.9-0.5-2.2C1139.5,2259,1141.2,2257.7,1143,2256.2z"/>
			<path id="XMLID_281_" d="M1134.8,2257.6c-0.9-0.7-1.8-1.1-2.1-1.7c-0.3-0.6-0.2-1.9,0.3-2.2c1.4-1.1,3-2.1,4.6-2.7
				c0.6-0.2,1.9,0.5,2.4,1.2c0.3,0.5,0,1.9-0.5,2.3C1138.2,2255.7,1136.5,2256.5,1134.8,2257.6z"/>
			<path id="XMLID_280_" d="M1168.7,2299.2c-1.3,1.8-2.4,3.6-3.8,5.1c-0.3,0.3-1.8,0.1-2.3-0.4c-0.5-0.5-0.8-1.7-0.6-2.4
				c0.6-1.4,1.5-2.8,2.6-3.9c0.5-0.5,1.7-0.7,2.4-0.5C1167.5,2297.3,1167.9,2298.2,1168.7,2299.2z"/>
			<path id="XMLID_279_" d="M1162.2,2292.7c-1.6,1.8-3,3.5-4.6,5c-0.3,0.3-1.6-0.2-2.1-0.7c-0.4-0.4-0.6-1.5-0.4-2
				c0.8-1.5,1.8-2.9,3-4.2c0.4-0.4,1.6-0.6,2.2-0.3C1160.9,2290.7,1161.3,2291.6,1162.2,2292.7z"/>
			<path id="XMLID_278_" d="M1189,2284.6c-1.4,1.7-2.7,3.4-4.2,4.8c-0.4,0.3-1.8,0-2.4-0.5c-0.5-0.4-0.7-1.7-0.4-2.2
				c0.8-1.5,1.9-2.9,3.1-4.2c0.4-0.4,1.6-0.5,2.3-0.2C1188,2282.6,1188.3,2283.5,1189,2284.6z"/>
			<path id="XMLID_277_" d="M1149,2244.2c0.9,0.7,1.9,1.1,2.1,1.7c0.2,0.7-0.1,2-0.6,2.4c-1.4,1-3,1.8-4.6,2.3
				c-0.6,0.2-1.9-0.4-2.2-1c-0.3-0.6-0.2-2.1,0.3-2.4C1145.5,2246,1147.2,2245.2,1149,2244.2z"/>
			<path id="XMLID_276_" d="M1134.9,2265.8c0.1,1.9-3.8,5.3-5.6,5c-1.5-0.3-2.4-2-1.4-3.2c1.1-1.4,2.6-2.6,4.2-3.4
				C1133.5,2263.4,1134.7,2264.2,1134.9,2265.8z"/>
			<path id="XMLID_275_" d="M1143.4,2284.3c-1.5,0-2.6-1.6-1.8-3c0.9-1.5,2.2-2.9,3.6-4c1.2-1,3.1,0.3,3.2,1.9
				C1148.4,2280.6,1144.8,2284.3,1143.4,2284.3z"/>
			<path id="XMLID_274_" d="M1182.1,2295.4c-1,1.7-1.8,3.3-2.9,4.5c-0.5,0.5-2,0.7-2.6,0.3c-0.6-0.4-1.1-1.8-0.9-2.5
				c0.5-1.5,1.3-2.9,2.4-4c0.5-0.6,1.8-0.8,2.6-0.6C1181.3,2293.4,1181.6,2294.5,1182.1,2295.4z"/>
			<path id="XMLID_273_" d="M1169,2309.7c0.4-3.2,2.8-6.4,4.2-5.8c0.8,0.3,1.9,1.6,1.9,2.3c-0.1,2.8-2.7,5.8-4.2,5.3
				C1170,2311.2,1169.4,2310.1,1169,2309.7z"/>
			<path id="XMLID_272_" d="M1146.8,2270.1c-2.2-0.4-3.4-2.3-2.3-3.7c1.1-1.3,2.5-2.4,3.9-3.3c0.5-0.3,1.7-0.1,2.2,0.3
				c0.5,0.3,0.9,1.6,0.7,1.9C1150,2266.9,1148.4,2268.5,1146.8,2270.1z"/>
			<path id="XMLID_271_" d="M1136.4,2277.6c-1.5-0.2-2.5-1.4-1.7-2.7c1-1.7,2.5-3.2,4.2-4.2c1.3-0.8,2.6,0.2,2.7,1.9
				C1141.6,2274.1,1138.1,2277.6,1136.4,2277.6z"/>
			<path id="XMLID_270_" d="M1156,2251.1c-0.1,2.5-4.9,5.5-6.5,4.7c-1.2-0.6-2.2-1.9-1-3c1.5-1.3,3.4-2.3,5.2-3
				C1154.3,2249.6,1155.4,2250.8,1156,2251.1z"/>
			<path id="XMLID_269_" d="M1170.3,2283.3c-1.6,1.6-3.1,3.5-5,4.7c-1.2,0.8-3-1.4-2.2-2.8c0.9-1.5,2.1-3,3.5-4.2
				C1167.7,2280.1,1169.7,2281.2,1170.3,2283.3z"/>
			<path id="XMLID_268_" d="M1178.8,2283.9c-1.7,0.1-2.9-1.5-2-3c0.9-1.5,2.2-2.9,3.5-4.1c1.1-0.9,2.9,0.1,3.2,1.5
				C1183.7,2280,1180.4,2283.8,1178.8,2283.9z"/>
			<path id="XMLID_267_" d="M1176.2,2289.3c-1.4,1.6-2.6,3.3-4.1,4.8c-0.3,0.3-1.7,0.1-2.2-0.3c-0.5-0.4-0.9-1.7-0.6-2.1
				c0.9-1.6,1.9-3.1,3.2-4.4c0.4-0.4,1.6-0.4,2.2-0.1C1175.3,2287.3,1175.5,2288.2,1176.2,2289.3z"/>
			<path id="XMLID_266_" d="M1153.6,2283.7c0.3,0.6,1.4,1.9,1.2,2.4c-0.9,1.8-2.2,3.5-3.7,4.7c-1.3,1-2.5-0.1-2.9-1.6
				C1147.8,2287.6,1151.1,2283.8,1153.6,2283.7z"/>
			<path id="XMLID_265_" d="M1166.8,2262.4c0.1,1.7-3.9,5.1-5.5,4.9c-1.5-0.2-2.4-2.3-1.4-3.5c1.1-1.3,2.6-2.4,4.1-3.1
				C1165.6,2259.9,1166.6,2260.9,1166.8,2262.4z"/>
			<path id="XMLID_264_" d="M1157.5,2270.7c0,1.8-3.5,5.1-5.1,5.1c-1.5-0.1-2.7-1.6-1.8-2.8c1.1-1.6,2.6-3.1,4.2-4
				C1156.2,2268.2,1157.3,2269.2,1157.5,2270.7z"/>
			<path id="XMLID_263_" d="M1172.5,2267.8c0.1,1.7-3.9,5.2-5.6,4.9c-1.5-0.3-2.3-2-1.3-3.3c1-1.3,2.3-2.4,3.6-3.4
				C1170.5,2265.1,1172.4,2266.3,1172.5,2267.8z"/>
			<path id="XMLID_262_" d="M1163.6,2276.9c0,1.5-3.2,4.9-4.7,5c-1.7,0.1-3-1.4-2.1-2.9c0.9-1.4,2.1-2.8,3.4-3.8
				C1161.7,2274,1163.6,2275.1,1163.6,2276.9z"/>
			<path id="XMLID_261_" d="M1178.4,2274c-1.7,1.5-3.3,3.3-5.3,4.3c-1.3,0.7-3-1.5-2.1-2.8c1.1-1.6,2.6-3,4.1-4.1
				C1176.3,2270.5,1178,2272,1178.4,2274z"/>
		</g>
	</g>
	<g id="XMLID_95_">
		<path id="XMLID_103_" d="M943.8,1404.8c0,2.9,0,5.6,0,8.3c0,5.3,0,10.6,0,15.9c0,2.9-1.2,4.5-3.5,4.4c-2.1,0-3.4-1.7-3.4-4.5
			c0-7.6,0-15.2,0-22.8c0-0.5-0.3-0.9-0.5-1.4c-0.2,0.5-0.5,0.9-0.5,1.4c0,7.7,0,15.3,0,23c0,2.5-1.2,4.1-3.2,4.2
			c-2.4,0.2-3.9-1.3-3.9-4.2c0-6.6,0-13.3,0-19.9c0-1-0.1-2.1,0-3.1c0.1-1.2-0.4-1.5-1.4-1.4c-1.8,0.1-3.5,0-5.3,0
			c-1.2,0-1.7-0.4-1.3-1.7c2.1-7.7,4.1-15.3,6.2-23c0.7-2.8,1.4-5.6,2.2-8.4c-0.2-0.1-0.3-0.1-0.5-0.2c-0.3,0.8-0.7,1.5-0.9,2.3
			c-1.4,5.1-2.7,10.2-4.1,15.3c-0.1,0.4-0.3,0.9-0.5,1.3c-0.8,1.9-2.3,2.9-3.7,2.3c-1.8-0.7-2.7-2.5-2.1-4.6c0.5-2,1.1-4,1.6-6
			c1.4-5.1,2.8-10.1,4.4-15.2c1.2-3.9,4.5-6.6,8.3-6.7c2.8-0.1,5.5-0.1,8.3,0c5,0,8.4,2.7,9.9,7.8c1.9,6.6,3.7,13.3,5.5,20
			c0.2,0.8,0.2,2-0.2,2.6c-0.6,0.9-1.7,2-2.7,2c-0.9,0-2.2-1-2.7-1.9c-0.8-1.4-1.1-3.1-1.5-4.7c-1.3-4.5-2.5-9-3.7-13.5
			c-0.1-0.4-0.3-0.7-0.5-1.1c-0.1,0-0.3,0.1-0.4,0.1c0,0.5,0,0.9,0.1,1.4c1.8,6.5,3.6,13,5.3,19.5c0.9,3.4,1.9,6.8,2.8,10.3
			c0.5,1.7,0.2,2.1-1.4,2.1C948.2,1404.8,946.1,1404.8,943.8,1404.8z"/>
		<path id="XMLID_100_" d="M936.3,1358.9c-3.8,0-7-3.6-7-7.7c0-3.9,3.4-7.5,7-7.5c3.8,0,7.1,3.6,7,7.6
			C943.3,1355.4,940,1359,936.3,1358.9z"/>
	</g>
	<g id="XMLID_104_">
		<path id="XMLID_102_" d="M1450,1372.9c0,0.7,0,1.5,0,2.2c0,18.3,0,36.5,0,54.8c0,2.2-1.2,3.9-3,4.6c-1.9,0.7-4.1,0.2-5.3-1.7
			c-0.6-0.9-0.9-2.2-0.9-3.3c-0.1-10.3,0-20.5-0.1-30.8c0-0.7-0.1-1.3-0.1-2c-0.2,0-0.4,0-0.5,0c0,0.6-0.1,1.2-0.1,1.7
			c0,10.3,0,20.7,0,31c0,3.2-1.7,5.2-4.4,5.3c-2.7,0.1-4.7-1.8-4.8-4.7c-0.1-1.9,0-3.8,0-5.6c0-16.7,0-33.3,0.1-50
			c0-0.5-0.1-1-0.1-1.4c-0.2,0-0.3,0-0.5,0c0,0.5-0.1,1-0.1,1.6c0,5.9,0,11.7,0,17.6c0,1.2-0.3,2.6-1,3.4c-1.7,2.2-5.1,1.4-6-1.3
			c-0.2-0.7-0.3-1.5-0.3-2.3c0-6.9,0-13.7,0-20.6c0-3.9,1.2-7.3,4.6-9.3c1.5-0.9,3.5-1.6,5.3-1.7c5.1-0.2,10.2-0.1,15.3-0.1
			c5.8,0.1,9.9,4.4,9.8,10.2c0,7.5,0,15,0,22.5c0,2.2-1.4,3.9-3.4,3.9c-1.9,0-3.5-1.7-3.5-3.9c0-6,0-12.1,0-18.1
			c0-0.7-0.1-1.3-0.1-2C1450.5,1372.8,1450.3,1372.9,1450,1372.9z"/>
		<path id="XMLID_101_" d="M1448,1351.1c0,4.4-3.3,7.8-7.5,7.8c-4.1,0-7.8-3.6-7.8-7.6c0-4.2,3.5-7.8,7.7-7.8
			C1444.5,1343.4,1448,1346.8,1448,1351.1z"/>
	</g>
	<g id="xI9Azl.tif">
		<g id="XMLID_105_">
			<path id="XMLID_160_" d="M264,743.6c7.9,0,15.7,0.1,23.6,0c2.3,0,4,1.3,4,3.9c-0.1,10.2-0.1,20.3,0,30.5c0,2.4-1.4,3.7-3.8,3.7
				c-15.3-0.1-30.5,0-45.8,0c-3,0-4.3-1.3-4.3-4.3c0-10.5,0-21.1,0-31.6c0-1.9,0.2-2.1,2.1-2.1c7.6,0,15.1,0,22.7,0
				C263,743.6,263.5,743.6,264,743.6z"/>
			<path id="XMLID_159_" d="M313.3,743.4c0,2.8,0,5.6,0,8.4c0,1.7,1.4,2.5,2.3,3.5c3.1,3.3,6.4,6.5,9.6,9.7
				c3.4,3.5,6.9,6.9,10.4,10.3c0.8,0.8,0.9,1.7,0.1,2.4c-2,1.7-4.1,3-6.9,2.6c-2.3-0.3-4.1-1.5-5.7-3.2c-4.1-4.3-8.2-8.7-12.4-12.9
				c-0.5-0.5-1.4-0.7-2.1-0.8c-4-0.1-8,0-12,0c-1.4,0-1.9-0.4-1.9-1.8c-0.1-2.1-0.1-4.2-0.1-6.3c0-1.7,0.3-2,2-2c1.8,0,3.6,0,5.5,0
				c1.1,0,1.6-0.5,1.6-1.5c0-1.5,0.1-3.1,0-4.6c0-0.5-0.4-1.2-0.9-1.5c-0.3-0.2-1,0.3-1.4,0.7c-1.7,1.6-3.4,3.3-5.1,5
				c-0.3,0.3-0.8,0.4-1.2,0.3c-0.2-0.1-0.5-0.6-0.5-1c0-1.2,0-2.4,0-3.6c0.1-1.7-0.3-3.2-1.4-4.6c-0.7-0.8-0.8-1.5,0.3-2.3
				c3.5-2.9,6.8-6.1,10.4-8.9c2.8-2.2,5.5-2.1,8.2,0.7c0.9,1,1.3,2.1,1.3,3.5c-0.1,1.3,0,2.6,0,4
				C313.2,740.8,313.2,742.1,313.3,743.4C313.3,743.4,313.3,743.4,313.3,743.4z"/>
			<path id="XMLID_155_" d="M269.8,739.8c-5.9,0-11.7,0-17.6,0c-1,0-1.8-0.2-2.2-1.2c-0.5-1.3-1.1-2.5-1.7-3.8
				c-0.5-1.1-0.8-2.2-1.3-3.3c-0.8-1.6-0.5-3.1,0-4.7c0.8-2.5,2.7-3.9,4.8-4.7c2.1-0.8,4.5-0.9,6.8,0.3c2.9,1.4,3.8,4.1,4.9,6.7
				c0.6,1.4,1.2,2.9,2,4.2c0.3,0.5,1.2,0.7,1.9,0.7c5,0,10.1,0,15.1,0c2.7,0,4.9,0.9,6.2,3.4c0.3,0.5,0.4,1.3,0.3,1.8
				c-0.1,0.3-1,0.5-1.5,0.5C281.7,739.8,275.8,739.8,269.8,739.8z"/>
			<path id="XMLID_154_" d="M242.3,739.9c-1.2,0-2.4,0-3.6,0c-0.9,0-1.6-0.4-2-1.2c-0.7-1.6-1.4-3.2-2.1-4.7c-0.9-2-1.8-4-2.6-5.9
				c-1.7-4.1,0.3-6.9,4.3-7.3c2.1-0.2,3.6,1.6,4.4,3.5c0.8,1.8,1.6,3.7,2.4,5.5c1.2,2.7,2.4,5.3,3.6,8c0,0.1,0,0.2,0.1,0.2
				c0.7,1.9,0.6,2-1.5,2C244.3,739.9,243.3,739.9,242.3,739.9C242.3,739.9,242.3,739.9,242.3,739.9z"/>
			<path id="XMLID_153_" d="M254.9,718.2c-4,0.4-7.7-3.8-7.5-7.5c0.2-3.7,3.4-7.3,7.6-7.2c4.5,0.1,7.3,3.7,7.4,7.4
				C262.5,714.5,259.3,718.5,254.9,718.2z"/>
		</g>
	</g>
	<g id="XMLID_166_">
		<path id="XMLID_170_" d="M1329.4,1350.2c0.1,1.8,0.2,3.5,0.3,5.3c0,0.6,0.4,0.6,0.9,0.6c2,0,4,0,6,0c1.2,0,1.3,0.1,1.3,1.3
			c0,2.4,0.2,2.2-2.2,2.2c-1.8,0-3.6,0-5.4,0c-0.4,1.3-0.2,1.5,1.1,1.5c2.9,0,5.8,0,8.6-0.1c0.7,0,1,0.2,1.2,0.8
			c1.3,3,2.6,5.9,3.8,8.9c0.3,0.7,0.6,1,1.3,0.6c0.3-0.2,0.6-0.2,0.9-0.3c1.6-0.6,1.6-0.6,2.3,0.9c0.5,1.1,0.5,1.2-0.6,1.6
			c-1.5,0.6-3.1,1.2-4.6,1.9c-0.6,0.3-0.9,0.1-1.2-0.5c-0.8-2-1.7-3.9-2.5-5.9c-0.5-1.2-1-2.3-1.5-3.5c-0.3-0.7-0.7-1-1.4-0.9
			c-3.1,0-6.3,0-9.4,0c-0.8,0-1.1-0.2-1.2-1.1c-0.3-4.9-0.7-9.8-1.1-14.6c0-0.2-0.1-0.4-0.1-0.7c-0.6-1.8,0.3-3.8,2-4.4
			c1.8-0.6,3.7,0.4,4.3,2.3c0.5,1.6-0.4,3.4-2.2,4.1C1329.7,1350,1329.6,1350.1,1329.4,1350.2z"/>
		<path id="XMLID_169_" d="M1330.4,1379.3c-7.1-0.2-12.5-6.2-11.7-13.2c0.4-4,2.6-6.9,6-9c0.8-0.5,1.1-0.4,1.1,0.6
			c0,0.1,0,0.1,0,0.2c0.3,1.5-0.1,2.6-1.3,3.8c-4.5,4.7-2.4,11.9,3.9,13.7c3.9,1.1,8.8-1.7,9.7-5.7c0.1-0.2,0.1-0.5,0.2-0.7
			c0.1-0.1,0.3-0.3,0.4-0.3c0.1,0,0.3,0.2,0.4,0.3c0.5,1,1.1,2,1.5,3.1c0.1,0.4,0,1-0.2,1.3c-1.6,2.8-4.1,4.6-7.2,5.4
			C1332.4,1379.1,1331.4,1379.1,1330.4,1379.3z"/>
	</g>
	<g id="bGRrOd.tif">
		<g id="XMLID_171_">
			<path id="XMLID_200_" d="M166.8,450.7c5.4,0,10.7,0,16,0c7.3,0,14.7,0.1,22,0c2.6-0.1,3.4,0.9,3.4,3.5
				c-0.1,33.9,0,67.8-0.1,101.7c0,1.2-0.5,2.8-1.3,3.4c-13.1,10.2-26.3,20.4-40,30.9C166.8,543.4,166.8,497.3,166.8,450.7z"/>
			<path id="XMLID_199_" d="M315.5,484.3c-0.7,3.6-1.1,6.6-2.1,9.5c-0.3,1-2.3,2.1-3.4,2c-3.2-0.3-6.3-1-9.4-1.8
				c-6.5-1.7-11,1-15.4,6.7c3.7,3.4,7.2,7.2,11.2,10.4c9.7,7.9,15.9,18.2,20.3,29.7c2.4,6.3,6.1,9.6,13.2,8.8
				c3.8-0.4,7.7,0,11.6-0.1c2.3-0.1,3.3,0.6,3.4,3.1c0.5,11.4,0.6,11.4-10.8,11.4c-4.7,0-9.3-0.1-14,0c-4,0-7.2-1.4-9.9-4.4
				c-1.8-2.1-3.8-4.1-5.6-6.2c-3-3.6-6.3-6.1-11.4-4c-5.5,2.2-8.8,6.3-9,12c-0.1,4.1,0,8.3,0,12.4c0,2.7-0.1,5.3,0,8
				c0.1,2-0.7,3-2.8,2.8c-0.3,0-0.5,0-0.8,0c-10.9,0.2-10.9,0.2-10.9-10.7c0-3.2,0.4-6.5-0.1-9.6c-1.3-9.6,2.2-17.5,8.2-24.5
				c0.9-1.1,1.7-2.4,2.7-3.8c-4.9-5.3-9.8-10.6-15-16.2c-2.7,3.7-5.3,7-7.7,10.5c-2.7,3.9-6,6-11,5.7c-6.2-0.4-12.5-0.1-19.4-0.1
				c0-3.6-0.2-6.9,0.1-10.1c0.1-0.7,1.7-1.8,2.6-1.9c3.6-0.2,7.2-0.2,10.8,0c3.3,0.2,5.8-1.1,7.4-3.8c7.7-13.7,20-23.1,30.9-33.7
				c5.2-5.1,10.7-7.4,18-5.3C303.1,482.4,309.1,483.1,315.5,484.3z"/>
			<path id="XMLID_198_" d="M252.9,471.3c7.6,0.2,13.9,6.8,13.7,14.3c-0.3,7.9-6.9,14.1-14.6,13.8c-7.4-0.2-14.1-7.2-13.8-14.4
				C238.5,477.1,244.9,471.1,252.9,471.3z"/>
		</g>
	</g>
	<g id="bGRrOd.tif_1_">
		<g id="XMLID_173_">
			<path id="XMLID_176_" d="M1941.5,141.2c5.4,0,10.7,0,16,0c7.3,0,14.7,0.1,22,0c2.6-0.1,3.4,0.9,3.4,3.5
				c-0.1,33.9,0,67.8-0.1,101.7c0,1.2-0.5,2.8-1.3,3.4c-13.1,10.2-26.3,20.4-40,30.9C1941.5,233.9,1941.5,187.8,1941.5,141.2z"/>
			<path id="XMLID_175_" d="M2090.2,174.9c-0.7,3.6-1.1,6.6-2.1,9.5c-0.3,1-2.3,2.1-3.4,2c-3.2-0.3-6.3-1-9.4-1.8
				c-6.5-1.7-11,1-15.4,6.7c3.7,3.4,7.2,7.2,11.2,10.4c9.7,7.9,15.9,18.2,20.3,29.7c2.4,6.3,6.1,9.6,13.2,8.8
				c3.8-0.4,7.7,0,11.6-0.1c2.3-0.1,3.3,0.6,3.4,3.1c0.5,11.4,0.6,11.4-10.8,11.4c-4.7,0-9.3-0.1-14,0c-4,0-7.2-1.4-9.9-4.4
				c-1.8-2.1-3.8-4.1-5.6-6.2c-3-3.6-6.3-6.1-11.4-4c-5.5,2.2-8.8,6.3-9,12c-0.1,4.1,0,8.3,0,12.4c0,2.7-0.1,5.3,0,8
				c0.1,2-0.7,3-2.8,2.8c-0.3,0-0.5,0-0.8,0c-10.9,0.2-10.9,0.2-10.9-10.7c0-3.2,0.4-6.5-0.1-9.6c-1.3-9.6,2.2-17.5,8.2-24.5
				c0.9-1.1,1.7-2.4,2.7-3.8c-4.9-5.3-9.8-10.6-15-16.2c-2.7,3.7-5.3,7-7.7,10.5c-2.7,3.9-6,6-11,5.7c-6.2-0.4-12.5-0.1-19.4-0.1
				c0-3.6-0.2-6.9,0.1-10.1c0.1-0.7,1.7-1.8,2.6-1.9c3.6-0.2,7.2-0.2,10.8,0c3.3,0.2,5.8-1.1,7.4-3.8c7.7-13.7,20-23.1,30.9-33.7
				c5.2-5.1,10.7-7.4,18-5.3C2077.8,172.9,2083.8,173.6,2090.2,174.9z"/>
			<path id="XMLID_174_" d="M2027.6,161.8c7.6,0.2,13.9,6.8,13.7,14.3c-0.3,7.9-6.9,14.1-14.6,13.8c-7.4-0.2-14.1-7.2-13.8-14.4
				C2013.2,167.6,2019.7,161.6,2027.6,161.8z"/>
		</g>
	</g>
	<g id="bGRrOd.tif_2_">
		<g id="XMLID_177_">
			<path id="XMLID_180_" d="M3001.3,686.4c5.4,0,10.7,0,16,0c7.3,0,14.7,0.1,22,0c2.6-0.1,3.4,0.9,3.4,3.5
				c-0.1,33.9,0,67.8-0.1,101.7c0,1.2-0.5,2.8-1.3,3.4c-13.1,10.2-26.3,20.4-40,30.9C3001.3,779.1,3001.3,733,3001.3,686.4z"/>
			<path id="XMLID_179_" d="M3149.9,720c-0.7,3.6-1.1,6.6-2.1,9.5c-0.3,1-2.3,2.1-3.4,2c-3.2-0.3-6.3-1-9.4-1.8
				c-6.5-1.7-11,1-15.4,6.7c3.7,3.4,7.2,7.2,11.2,10.4c9.7,7.9,15.9,18.2,20.3,29.7c2.4,6.3,6.1,9.6,13.2,8.8
				c3.8-0.4,7.7,0,11.6-0.1c2.3-0.1,3.3,0.6,3.4,3.1c0.5,11.4,0.6,11.4-10.8,11.4c-4.7,0-9.3-0.1-14,0c-4,0-7.2-1.4-9.9-4.4
				c-1.8-2.1-3.8-4.1-5.6-6.2c-3-3.6-6.3-6.1-11.4-4c-5.5,2.2-8.8,6.3-9,12c-0.1,4.1,0,8.3,0,12.4c0,2.7-0.1,5.3,0,8
				c0.1,2-0.7,3-2.8,2.8c-0.3,0-0.5,0-0.8,0c-10.9,0.2-10.9,0.2-10.9-10.7c0-3.2,0.4-6.5-0.1-9.6c-1.3-9.6,2.2-17.5,8.2-24.5
				c0.9-1.1,1.7-2.4,2.7-3.8c-4.9-5.3-9.8-10.6-15-16.2c-2.7,3.7-5.3,7-7.7,10.5c-2.7,3.9-6,6-11,5.7c-6.2-0.4-12.5-0.1-19.4-0.1
				c0-3.6-0.2-6.9,0.1-10.1c0.1-0.7,1.7-1.8,2.6-1.9c3.6-0.2,7.2-0.2,10.8,0c3.3,0.2,5.8-1.1,7.4-3.8c7.7-13.7,20-23.1,30.9-33.7
				c5.2-5.1,10.7-7.4,18-5.3C3137.5,718.1,3143.5,718.8,3149.9,720z"/>
			<path id="XMLID_178_" d="M3087.3,707c7.6,0.2,13.9,6.8,13.7,14.3c-0.3,7.9-6.9,14.1-14.6,13.8c-7.4-0.2-14.1-7.2-13.8-14.4
				C3072.9,712.8,3079.4,706.8,3087.3,707z"/>
		</g>
	</g>
	<g id="bGRrOd.tif_3_">
		<g id="XMLID_181_">
			<path id="XMLID_186_" d="M2995.3,2006.1c5.4,0,10.7,0,16,0c7.3,0,14.7,0.1,22,0c2.6-0.1,3.4,0.9,3.4,3.5
				c-0.1,33.9,0,67.8-0.1,101.7c0,1.2-0.5,2.8-1.3,3.4c-13.1,10.2-26.3,20.4-40,30.9C2995.3,2098.9,2995.3,2052.7,2995.3,2006.1z"/>
			<path id="XMLID_183_" d="M3143.9,2039.8c-0.7,3.6-1.1,6.6-2.1,9.5c-0.3,1-2.3,2.1-3.4,2c-3.2-0.3-6.3-1-9.4-1.8
				c-6.5-1.7-11,1-15.4,6.7c3.7,3.4,7.2,7.2,11.2,10.4c9.7,7.9,15.9,18.2,20.3,29.7c2.4,6.3,6.1,9.6,13.2,8.8
				c3.8-0.4,7.7,0,11.6-0.1c2.3-0.1,3.3,0.6,3.4,3.1c0.5,11.4,0.6,11.4-10.8,11.4c-4.7,0-9.3-0.1-14,0c-4,0-7.2-1.4-9.9-4.4
				c-1.8-2.1-3.8-4.1-5.6-6.2c-3-3.6-6.3-6.1-11.4-4c-5.5,2.2-8.8,6.3-9,12c-0.1,4.1,0,8.3,0,12.4c0,2.7-0.1,5.3,0,8
				c0.1,2-0.7,3-2.8,2.8c-0.3,0-0.5,0-0.8,0c-10.9,0.2-10.9,0.2-10.9-10.7c0-3.2,0.4-6.5-0.1-9.6c-1.3-9.6,2.2-17.5,8.2-24.5
				c0.9-1.1,1.7-2.4,2.7-3.8c-4.9-5.3-9.8-10.6-15-16.2c-2.7,3.7-5.3,7-7.7,10.5c-2.7,3.9-6,6-11,5.7c-6.2-0.4-12.5-0.1-19.4-0.1
				c0-3.6-0.2-6.9,0.1-10.1c0.1-0.7,1.7-1.8,2.6-1.9c3.6-0.2,7.2-0.2,10.8,0c3.3,0.2,5.8-1.1,7.4-3.8c7.7-13.7,20-23.1,30.9-33.7
				c5.2-5.1,10.7-7.4,18-5.3C3131.5,2037.9,3137.5,2038.5,3143.9,2039.8z"/>
			<path id="XMLID_182_" d="M3081.3,2026.7c7.6,0.2,13.9,6.8,13.7,14.3c-0.3,7.9-6.9,14.1-14.6,13.8c-7.4-0.2-14.1-7.2-13.8-14.4
				C3066.9,2032.5,3073.4,2026.5,3081.3,2026.7z"/>
		</g>
	</g>
	<g id="bGRrOd.tif_4_">
		<g id="XMLID_187_">
			<path id="XMLID_192_" d="M180.5,1945.9c5.4,0,10.7,0,16,0c7.3,0,14.7,0.1,22,0c2.6-0.1,3.4,0.9,3.4,3.5
				c-0.1,33.9,0,67.8-0.1,101.7c0,1.2-0.5,2.8-1.3,3.4c-13.1,10.2-26.3,20.4-40,30.9C180.5,2038.6,180.5,1992.5,180.5,1945.9z"/>
			<path id="XMLID_189_" d="M329.2,1979.5c-0.7,3.6-1.1,6.6-2.1,9.5c-0.3,1-2.3,2.1-3.4,2c-3.2-0.3-6.3-1-9.4-1.8
				c-6.5-1.7-11,1-15.4,6.7c3.7,3.4,7.2,7.2,11.2,10.4c9.7,7.9,15.9,18.2,20.3,29.7c2.4,6.3,6.1,9.6,13.2,8.8
				c3.8-0.4,7.7,0,11.6-0.1c2.3-0.1,3.3,0.6,3.4,3.1c0.5,11.4,0.6,11.4-10.8,11.4c-4.7,0-9.3-0.1-14,0c-4,0-7.2-1.4-9.9-4.4
				c-1.8-2.1-3.8-4.1-5.6-6.2c-3-3.6-6.3-6.1-11.4-4c-5.5,2.2-8.8,6.3-9,12c-0.1,4.1,0,8.3,0,12.4c0,2.7-0.1,5.3,0,8
				c0.1,2-0.7,3-2.8,2.8c-0.3,0-0.5,0-0.8,0c-10.9,0.2-10.9,0.2-10.9-10.7c0-3.2,0.4-6.5-0.1-9.6c-1.3-9.6,2.2-17.5,8.2-24.5
				c0.9-1.1,1.7-2.4,2.7-3.8c-4.9-5.3-9.8-10.6-15-16.2c-2.7,3.7-5.3,7-7.7,10.5c-2.7,3.9-6,6-11,5.7c-6.2-0.4-12.5-0.1-19.4-0.1
				c0-3.6-0.2-6.9,0.1-10.1c0.1-0.7,1.7-1.8,2.6-1.9c3.6-0.2,7.2-0.2,10.8,0c3.3,0.2,5.8-1.1,7.4-3.8c7.7-13.7,20-23.1,30.9-33.7
				c5.2-5.1,10.7-7.4,18-5.3C316.8,1977.6,322.8,1978.3,329.2,1979.5z"/>
			<path id="XMLID_188_" d="M266.6,1966.5c7.6,0.2,13.9,6.8,13.7,14.3c-0.3,7.9-6.9,14.1-14.6,13.8c-7.4-0.2-14.1-7.2-13.8-14.4
				C252.2,1972.3,258.6,1966.3,266.6,1966.5z"/>
		</g>
	</g>
	<g id="wAVeDs.tif">
		<g id="XMLID_172_">
			<path id="XMLID_328_" d="M2130.2,1809.6c0.6-0.7,1-1.1,1.2-1.6c2-4.8,4-9.7,6-14.5c0.2-0.5,0.7-0.9,1.1-1.4
				c0.4,0.5,0.9,0.9,1.1,1.4c2.7,7.5,5.4,15.1,8.4,23.2c0.7-1.3,1.2-2,1.6-2.8c1.7-3.9,3.4-7.9,5.1-11.9c1-2.2,6.3-3.9,8.3-2.5
				c0.4,0.3,0.7,1.1,0.7,1.7c0,7.7,0,15.5,0.1,23.2c0,2-1.3,1.8-2.5,1.8c-12.2,0-24.5,0-36.7,0c-4,0-8,0-12,0
				c-1.4,0-2.1-0.3-2.1-1.9c0.1-6.3,0.1-12.7,0-19c0-1.9,0.7-2.6,2.5-2.4c0.6,0.1,1.2-0.1,1.7,0c3.8,0.8,6.4-0.7,7.7-4.4
				c0.2-0.5,0.8-0.9,1.2-1.4c0.4,0.5,1,1,1.3,1.6C2126.6,1802.4,2128.3,1805.8,2130.2,1809.6z"/>
			<path id="XMLID_327_" d="M2138.5,1783.3c-2.7,6.2-5.3,12.4-8,18.6c-0.3,0-0.5-0.1-0.8-0.1c-1.9-3.8-3.8-7.6-5.9-11.9
				c-1.6,2.7-2.8,5-4.2,7.2c-1.4,2.4-5.9,4-8.3,2.8c-0.4-0.2-0.9-1-0.9-1.6c-0.1-7.8,0-15.7-0.1-23.5c0-1.8,1.2-1.7,2.4-1.7
				c10.8,0,21.6,0,32.5,0c5.3,0,10.7,0.1,16,0c1.8,0,2.5,0.5,2.4,2.4c-0.1,6.2-0.1,12.3,0,18.5c0,1.9-0.6,2.6-2.5,2.4
				c-0.2,0-0.3,0-0.5,0c-7.1,0-7.1,0.1-9.9,6.7c-0.7,1.6-1.4,3.2-2,4.8c-0.3-0.1-0.5-0.1-0.8-0.2c-3-8.1-5.9-16.2-8.9-24.3
				C2138.9,1783.4,2138.7,1783.3,2138.5,1783.3z"/>
			<path id="XMLID_326_" d="M2097.2,1775c0-1.8-0.1-3.7,0-5.5c0.2-5.4,4.1-9.4,9.5-9.4c3.8-0.1,7.6,0,11.5-0.1
				c1.8-0.1,2.7,0.5,2.4,2.4c-0.1,0.7-0.1,1.3,0,2c0.2,1.6-0.5,2.2-2.1,2.2c-3.4,0-6.8,0-10.2,0c-3.2,0-4.5,1.4-4.4,4.6
				c0.1,3.2,0,6.5,0.1,9.7c0,1.6-0.4,2.6-2.3,2.3c-0.7-0.1-1.3-0.1-2,0c-1.8,0.2-2.6-0.5-2.5-2.4
				C2097.3,1779,2097.2,1777,2097.2,1775z"/>
			<path id="XMLID_325_" d="M2112,1839.5c-1.7,0-3.5,0-5.2,0c-5.3-0.1-9.3-3.9-9.6-9.2c-0.2-4,0-8,0-12c0-1.4,0.5-2.2,2.1-2.1
				c0.2,0,0.3,0,0.5,0c4.2,0,4.2,0,4.1,4.2c0,2.7-0.1,5.5,0,8.2c0.1,2.8,1.3,4.2,4.1,4.2c3.3,0.1,6.7,0.1,10-0.1
				c1.9-0.1,2.9,0.5,2.6,2.5c-0.1,0.7-0.1,1.3,0,2c0.2,1.6-0.5,2.3-2.1,2.2c-2.2-0.1-4.3,0-6.5,0
				C2112,1839.6,2112,1839.5,2112,1839.5z"/>
			<path id="XMLID_324_" d="M2162,1760.1c1.8,0,3.7,0,5.5,0c5,0.2,9,4.1,9.2,9.1c0.1,4.1,0,8.2,0,12.2c0,1.5-0.6,2.1-2.1,2
				c-0.7-0.1-1.5-0.1-2.2,0c-1.8,0.2-2.3-0.7-2.3-2.3c0.1-3.3,0.1-6.7,0-10c0-3.1-1.2-4.3-4.2-4.3c-3.1-0.1-6.2,0-9.2-0.1
				c-3.2,0-3.2-0.1-3.2-3.4c0-0.5-0.2-1.1,0-1.5c0.5-0.7,1.1-1.6,1.8-1.7C2157.5,1759.9,2159.8,1760,2162,1760.1
				C2162,1760.1,2162,1760.1,2162,1760.1z"/>
			<path id="XMLID_323_" d="M2176.7,1824.6c0,1.7,0,3.5,0,5.2c0,5.6-4.1,9.7-9.8,9.7c-3.7,0-7.5-0.1-11.2,0c-1.8,0-2.4-0.6-2.2-2.3
				c0.1-0.6,0-1.2,0-1.7c-0.2-1.8,0.5-2.6,2.4-2.5c3.1,0.1,6.2,0.1,9.2,0.1c3.8,0,5.1-1.3,5-5.1c0-3.2,0.1-6.3,0-9.5
				c0-1.6,0.6-2.3,2.2-2.2c0.8,0.1,1.7,0.1,2.5,0c1.4-0.1,2,0.5,1.9,1.9C2176.7,1820.3,2176.7,1822.4,2176.7,1824.6
				C2176.7,1824.6,2176.7,1824.6,2176.7,1824.6z"/>
			<path id="XMLID_322_" d="M2126.9,1766.6c-3.4,0-3.4,0-3.4-3.6c0-3,0-3,3.8-3.1c3.2,0,3.3,0.1,3.3,3.3
				C2130.6,1766.7,2130.6,1766.7,2126.9,1766.6z"/>
			<path id="XMLID_321_" d="M2101,1793.3c-3.9,0-3.9,0-3.9-3.7c0-3.2,0.1-3.1,4.1-3.3c3.7-0.2,2.4,2.4,2.7,4.2
				C2104.3,1793.2,2102.9,1793.8,2101,1793.3z"/>
			<path id="XMLID_320_" d="M2097.2,1810.1c0-3.9,0-3.9,3.6-3.9c3.1,0,3.1,0,3,3.8c0,3.2,0,3.1-3.9,3.3
				C2096.9,1813.5,2097,1811.8,2097.2,1810.1z"/>
			<path id="XMLID_319_" d="M2097.2,1800.7c0-4.4,0-4.4,3.3-4.4c1.9,0,3.6-0.2,3.5,2.7c-0.2,4.3-0.1,4.2-4.2,4.4
				C2096.8,1803.6,2097.2,1801.7,2097.2,1800.7z"/>
			<path id="XMLID_318_" d="M2136.9,1766.7c-3.4,0-3.2,0-3.5-3.7c-0.2-2.9,1.3-3.1,3.5-3c3.6,0.1,3.4,0,3.6,4.1
				C2140.7,1767.2,2138.7,1766.7,2136.9,1766.7z"/>
			<path id="XMLID_317_" d="M2147.1,1766.7c-3.8-0.1-3.8-0.1-3.7-4.5c0.1-3.7,3.1-2,4.7-2.1c3.5-0.4,2.1,2.5,2.3,4.2
				C2150.9,1767.3,2148.5,1766.5,2147.1,1766.7z"/>
			<path id="XMLID_316_" d="M2176.7,1800c0.2,1.9,0.3,3.6-2.8,3.4c-3.8-0.3-3.8-0.1-3.8-4.1c0-3,0-2.8,3.9-3
				C2177.2,1796,2176.8,1797.9,2176.7,1800z"/>
			<path id="XMLID_315_" d="M2173.7,1793.3c-3.5,0-3.5,0-3.5-3.5c0-3.6,0-3.6,3.8-3.6c2.8,0,2.6,0,2.8,4.3
				C2176.9,1793.5,2175.4,1793.6,2173.7,1793.3z"/>
			<path id="XMLID_314_" d="M2172.9,1813.3c-2.2,0.6-2.9-0.7-2.8-3c0.1-4,0-3.9,3.9-4.1c2.3-0.1,2.9,0.7,2.8,2.8
				C2176.7,1813.2,2176.8,1813.2,2172.9,1813.3z"/>
			<path id="XMLID_313_" d="M2126.4,1839.5c-1.4,0.1-3.1,0.3-2.9-2.5c0.2-4.1,0.1-4.2,3.3-4.1c1.6,0.1,3.9-0.9,3.8,2.3
				C2130.5,1839.5,2130.6,1839.5,2126.4,1839.5z"/>
			<path id="XMLID_312_" d="M2140.5,1836.8c0.6,2.2-0.6,3-2.8,2.7c-1.6-0.3-4.3,1.3-4.2-2.3c0.1-4.1,0-4.1,3-4.2
				C2140.4,1832.9,2140.4,1832.9,2140.5,1836.8z"/>
			<path id="XMLID_311_" d="M2147,1839.5c-3.5,0-3.4,0-3.6-4c-0.2-3.5,2.4-2.4,4.1-2.6c2-0.2,3.2,0.3,3.1,2.8
				C2150.3,1839.5,2150.5,1839.5,2147,1839.5z"/>
		</g>
	</g>
</g>
<g id="Layer_3">
	<path id="XMLID_106_" class="st10" d="M1018.1,688.6H512.6c-6.6,0-12-5.4-12-12v-120c0-6.6,5.4-12,12-12h505.5c6.6,0,12,5.4,12,12
		v120C1030.1,683.2,1024.7,688.6,1018.1,688.6z"/>
	<path id="XMLID_120_" class="st10" d="M932.4,952.1H648.6c-6.6,0-12-5.4-12-12V836.6c0-6.6,5.4-12,12-12h283.8c6.6,0,12,5.4,12,12
		v103.5C944.4,946.7,939,952.1,932.4,952.1z"/>
	<path id="XMLID_123_" class="st10" d="M518.3,1149.7H387.8c-6.6,0-12-5.4-12-12V795.5c0-6.6,5.4-12,12-12h130.5c6.6,0,12,5.4,12,12
		v342.2C530.3,1144.3,524.9,1149.7,518.3,1149.7z"/>
	<path id="XMLID_124_" class="st10" d="M967.1,1242.5H686.6c-6.6,0-12-5.4-12-12v-99.8c0-6.6,5.4-12,12-12h280.4c6.6,0,12,5.4,12,12
		v99.8C979.1,1237.1,973.7,1242.5,967.1,1242.5z"/>
	<path id="XMLID_125_" class="st10" d="M2357.4,1663.8h-143.3c-6.6,0-12-5.4-12-12v-120.1c0-6.6,5.4-12,12-12h143.3
		c6.6,0,12,5.4,12,12v120.1C2369.4,1658.4,2364,1663.8,2357.4,1663.8z"/>
	<path id="XMLID_126_" class="st10" d="M2359.8,1956.6h-144.5c-6.6,0-12-5.4-12-12v-120c0-6.6,5.4-12,12-12h144.5
		c6.6,0,12,5.4,12,12v120C2371.8,1951.2,2366.4,1956.6,2359.8,1956.6z"/>
	<path id="XMLID_109_" class="st10" d="M1814.1,965.8h-505.5c-6.6,0-12-5.4-12-12V828.6c0-6.6,5.4-12,12-12h505.5
		c6.6,0,12,5.4,12,12v125.2C1826.1,960.4,1820.7,965.8,1814.1,965.8z"/>
	<path id="XMLID_110_" class="st10" d="M2926.1,952.6h-505.5c-6.6,0-12-5.4-12-12v-120c0-6.6,5.4-12,12-12h505.5c6.6,0,12,5.4,12,12
		v120C2938.1,947.2,2932.7,952.6,2926.1,952.6z"/>
	<path id="XMLID_119_" class="st10" d="M2834.1,670.6h-505.5c-6.6,0-12-5.4-12-12v-120c0-6.6,5.4-12,12-12h505.5c6.6,0,12,5.4,12,12
		v120C2846.1,665.2,2840.7,670.6,2834.1,670.6z"/>
	<path id="XMLID_111_" class="st10" d="M2838.1,1236.6h-505.5c-6.6,0-12-5.4-12-12v-120c0-6.6,5.4-12,12-12h505.5
		c6.6,0,12,5.4,12,12v120C2850.1,1231.2,2844.7,1236.6,2838.1,1236.6z"/>
	<path id="XMLID_114_" class="st10" d="M2934.1,1816.6h-505.5c-6.6,0-12-5.4-12-12v-120c0-6.6,5.4-12,12-12h505.5
		c6.6,0,12,5.4,12,12v120C2946.1,1811.2,2940.7,1816.6,2934.1,1816.6z"/>
	<path id="XMLID_117_" class="st10" d="M1818,1813.6h-505.5c-6.6,0-12-5.4-12-12v-120c0-6.6,5.4-12,12-12H1818c6.6,0,12,5.4,12,12
		v120C1830,1808.2,1824.6,1813.6,1818,1813.6z"/>
	<path id="XMLID_118_" class="st10" d="M1025.9,1719.6H520.5c-6.6,0-12-5.4-12-12v-120c0-6.6,5.4-12,12-12h505.5c6.6,0,12,5.4,12,12
		v120C1037.9,1714.2,1032.5,1719.6,1025.9,1719.6z"/>
	<path id="XMLID_115_" class="st10" d="M2846.1,2340.6h-505.5c-6.6,0-12-5.4-12-12v-120c0-6.6,5.4-12,12-12h505.5
		c6.6,0,12,5.4,12,12v120C2858.1,2335.2,2852.7,2340.6,2846.1,2340.6z"/>
	<path id="XMLID_116_" class="st10" d="M1665.1,2394.4h-394.4c-6.6,0-12-5.4-12-12v-113.8c0-6.6,5.4-12,12-12h394.4
		c6.6,0,12,5.4,12,12v113.8C1677.1,2389,1671.7,2394.4,1665.1,2394.4z"/>
	<text id="XMLID_108_" transform="matrix(1 0 0 1 627.7218 653.7466)" class="st11 st12">Cloud</text>
	<text id="XMLID_162_" transform="matrix(4.489659e-11 1 -1 4.489659e-11 416.3706 860.2929)" class="st11 st12">GBS</text>
	<text id="XMLID_128_" transform="matrix(1 0 0 1 1325.722 916.3675)" class="st11 st13">S&amp;S Renewals</text>
	<text id="XMLID_129_" transform="matrix(1 0 0 1 2485.0386 636.1518)" class="st11 st12">DOR</text>
	<text id="XMLID_130_" transform="matrix(1 0 0 1 2502.104 914.3743)" class="st11 st12">Fiberlink</text>
	<text id="XMLID_131_" transform="matrix(1 0 0 1 2357.9463 1196.5308)" class="st11 st14">Acquisitions</text>
	<text id="XMLID_141_" transform="matrix(1 0 0 1 2443.8691 1762.2617)" class="st11 st15">Systems Hardware</text>
	<text id="XMLID_143_" transform="matrix(1 0 0 1 1473.1038 1779.3752)" class="st11 st12">LDR</text>
	<text id="XMLID_146_" transform="matrix(1 0 0 1 627.5823 1635.4899)"><tspan x="0" y="0" class="st11 st16">Infrastructure</tspan><tspan x="49.5" y="66.6" class="st11 st16">Services</tspan></text>
	<text id="XMLID_148_" transform="matrix(1 0 0 1 770.104 1215.3752)" class="st11 st12">I.S.</text>
	<text id="XMLID_149_" transform="matrix(1 0 0 1 664.1039 912.1699)" class="st11 st17">Bluemix</text>
	<text id="XMLID_150_" transform="matrix(1 0 0 1 2496.6807 2305.6411)" class="st11 st12">TSS</text>
	<text id="XMLID_151_" transform="matrix(1 0 0 1 1404.1388 2311.3037)"><tspan x="0" y="0" class="st11 st18">Sales</tspan><tspan x="-47.5" y="65.3" class="st11 st18">Execution</tspan></text>
	<text id="XMLID_152_" transform="matrix(1 0 0 1 2221.2549 1912.2227)" class="st11 st19">TSS</text>
	<text id="XMLID_161_" transform="matrix(1 0 0 1 2216.6787 1619.449)" class="st11 st20">SSG</text>
	<text id="XMLID_127_" transform="matrix(1 0 0 1 1813.6395 2623.4639)" class="st11 st21">Main Entrance</text>
	<text id="XMLID_163_" transform="matrix(1 0 0 1 1949.4932 2459.4854)" class="st11 st22">Reception</text>
	<text id="XMLID_164_" transform="matrix(1 0 0 1 100.9936 1412.3691)" class="st11 st23">Canteen</text>
	<text id="XMLID_165_" transform="matrix(1 0 0 1 566.9961 2276.0657)"><tspan x="0" y="0" class="st11 st24">Caf</tspan><tspan x="0" y="96.7" class="st11 st24">Rapido</tspan></text>
	<g id="SVl4fr.tif">
		<g id="XMLID_167_">
			<path id="XMLID_185_" class="st25" d="M359.3,1490.9c0-11.1,0-22.3,0.1-33.4c0-0.8-0.4-1.1-1.4-1c-0.5,0-0.9,0-1.4,0
				c-46,0-92.1,0-138.1,0c-2.5,0-2.5,0-2.5-2c0-5.1,0-10.2,0-15.3c0-1.1-0.2-1-1.3-0.6c-15.4,6-30.9,11.9-46.3,17.9
				c-12,4.7-24.1,9.3-36.1,14c-2.4,0.9-4.7,1.8-7.1,2.8c-0.9,0.4-1.3,0.7,0.1,1.2c14.5,5.6,29,11.2,43.4,16.8
				c13.8,5.4,27.7,10.8,41.5,16.1c1.6,0.6,3.2,1.2,4.8,1.8c1.1,0.5,1,0.1,1-0.6c0-5.2,0-10.4,0-15.6c0-0.6-0.1-1.2,0.3-1.8
				c0.7-0.3,1.4-0.1,2.1-0.1c46.3,0,92.6,0,139,0C357.9,1491.1,358.6,1491.3,359.3,1490.9z"/>
			<path id="XMLID_184_" class="st25" d="M359.3,1490.9c-0.8,0-1.5,0-2.3,0c-46.1,0-92.3,0-138.4,0c-0.8,0-1.7-0.3-2.3,0.3
				c47,0,94,0,141,0C357.9,1491.2,358.7,1491.5,359.3,1490.9z"/>
		</g>
	</g>
	<g id="_x38_oqj76.tif">
		<g id="XMLID_168_">
			<path id="XMLID_191_" d="M268,1275.2c-2.7,0-5.4,0-8.1,0c-1.6,0-2.3-0.7-2.3-2.3c0-15.5,0-31.1,0-46.6c0-5.4,2.2-9.9,6.2-13.5
				c2.8-2.5,6-4.2,9.8-4.6c2.1-0.2,4.2-0.3,6.3-0.1c1.7,0.2,2.8,1.8,2.9,3.5c0,0.1,0,0.3,0,0.4c0,41.2,0,82.4,0,123.6
				c0,3.3-1.9,6.1-5,7.3c-4.5,1.7-9.6-1.8-9.8-6.6c0-0.3,0-0.6,0-0.9c0-19.7,0-39.5,0-59.2C268,1275.8,268,1275.5,268,1275.2z"/>
			<path id="XMLID_190_" d="M220.2,1295.9c0-12.9,0-25.8,0-38.7c0-0.5-0.1-0.7-0.6-0.9c-2.5-1.4-4.8-3.1-7-5
				c-1.4-1.2-2.6-2.5-3.9-3.8c-0.5-0.6-0.7-1.3-0.7-2.1c0-10.2,0-20.3,0-30.5c0-2.7,2.5-4.5,4.9-3.7c1.5,0.5,2.5,2,2.5,3.5
				c0,8,0,16,0,24c0,1.9,1.1,3.4,2.7,3.9c2.4,0.7,4.8-1.2,4.8-3.8c0-6.2,0-12.4,0-18.6c0-1.8,0-3.7,0-5.5c0-1.8,1.4-3.5,3.1-3.7
				c2-0.3,3.7,0.8,4.2,2.7c0.1,0.5,0.1,1,0.1,1.5c0,7.9,0,15.7,0,23.6c0,2.2,1.6,3.9,3.7,3.9c2.1,0,3.8-1.7,3.8-3.7c0-8,0-16,0-24.1
				c0-1.8,1-3.2,2.6-3.8c2.4-0.8,4.9,1,4.9,3.7c0,2.6,0,5.2,0,7.8c0,7.5,0,15,0,22.5c0,1-0.3,1.9-0.9,2.7c-2.6,3.4-5.7,6.3-9.4,8.6
				c-0.1,0.1-0.2,0.3-0.3,0.5c0,0.2,0,0.4,0,0.6c0,25.5,0,51.1,0,76.6c0,3.6-2.4,6.6-5.9,7.4c-4.2,0.9-8-2.3-8.7-5.8
				c-0.1-0.6-0.1-1.3-0.1-1.9C220.2,1321.1,220.2,1308.5,220.2,1295.9z"/>
		</g>
	</g>
</g>
</svg>
