<?xml version="1.0" encoding="UTF-8" standalone="no"?>
<!-- Generator: Adobe Illustrator 19.0.0, SVG Export Plug-In . SVG Version: 6.00 Build 0)  -->

<svg
   xmlns:dc="http://purl.org/dc/elements/1.1/"
   xmlns:cc="http://creativecommons.org/ns#"
   xmlns:rdf="http://www.w3.org/1999/02/22-rdf-syntax-ns#"
   xmlns:svg="http://www.w3.org/2000/svg"
   xmlns="http://www.w3.org/2000/svg"
   xmlns:sodipodi="http://sodipodi.sourceforge.net/DTD/sodipodi-0.dtd"
   xmlns:inkscape="http://www.inkscape.org/namespaces/inkscape"
   version="1.1"
   x="0px"
   y="0px"
   viewBox="0 0 3400 2760"
   xml:space="preserve"
   id="svg3951"
   sodipodi:docname="b4_floorplan.svg"
   inkscape:version="0.92.1 r15371"
   width="3400"
   height="2760"><metadata
     id="metadata3957"><rdf:RDF><cc:Work
         rdf:about=""><dc:format>image/svg+xml</dc:format><dc:type
           rdf:resource="http://purl.org/dc/dcmitype/StillImage" /><dc:title /></cc:Work></rdf:RDF></metadata><defs
     id="defs3955" /><sodipodi:namedview
     pagecolor="#ffffff"
     bordercolor="#666666"
     borderopacity="1"
     objecttolerance="10"
     gridtolerance="10"
     guidetolerance="10"
     inkscape:pageopacity="0"
     inkscape:pageshadow="2"
     inkscape:window-width="1600"
     inkscape:window-height="848"
     id="namedview3953"
     showgrid="false"
     inkscape:zoom="0.31930291"
     inkscape:cx="1715.6806"
     inkscape:cy="1586.5812"
     inkscape:window-x="-8"
     inkscape:window-y="-8"
     inkscape:window-maximized="1"
     inkscape:current-layer="svg3951" /><style
     type="text/css"
     id="style3680">
	.st0{fill:#73A3C2;stroke:#000000;stroke-width:2;stroke-miterlimit:10;}
	.st1{fill:#75CFE9;stroke:#000000;stroke-width:2;stroke-miterlimit:10;}
	.st2{fill:#FFFFFF;stroke:#000000;stroke-width:2;stroke-miterlimit:10;}
	.st3{fill:#E5EA8E;stroke:#000000;stroke-width:2;stroke-miterlimit:10;}
	.st4{fill:#F3F6D4;stroke:#000000;stroke-width:2;stroke-miterlimit:10;}
	.st5{fill:#0D0909;}
	.st6{fill:#120B0A;}
	.st7{fill:#070707;}
	.st8{fill:#0B0909;}
	.st9{fill:#FFFFFF;}
	.st10{fill:#C5D6E5;stroke:#000000;stroke-width:3;stroke-miterlimit:10;}
	.st11{font-family:'HelveticaNeue-Thin';}
	.st12{font-size:105px;}
	.st13{font-size:77.7192px;}
	.st14{font-size:92.348px;}
	.st15{font-size:61.2709px;}
	.st16{font-size:55.5414px;}
	.st17{font-size:77.9228px;}
	.st18{font-size:54.4307px;}
	.st19{font-size:74.6795px;}
	.st20{font-size:71.0166px;}
	.st21{font-size:84.5374px;}
	.st22{font-size:47.0285px;}
	.st23{font-size:87.9188px;}
	.st24{font-size:80.5657px;}
	.st25{fill:#353535;}
</style><g
     id="Layer_1"
     transform="translate(-13.080441,-332.41832)" /><g
     id="Layer_2"
     transform="translate(-13.080441,-332.41832)"><g
       id="XMLID_9_"><rect
         id="XMLID_1_"
         x="451.70001"
         y="488.39999"
         class="st0"
         width="628.79999"
         height="823.20001"
         style="fill:#ffffff;fill-opacity:1;stroke:#000000;stroke-width:2;stroke-miterlimit:10" /><rect
         id="XMLID_3_"
         x="1242.8"
         y="490.89999"
         class="st0"
         width="622.79999"
         height="816.40002"
         style="fill:#ffffff;fill-opacity:1;stroke:#000000;stroke-width:2;stroke-miterlimit:10" /><polygon
         id="XMLID_4_"
         class="st0"
         points="2231.2,490.9 2963.5,489.1 2965,1306.6 2228.6,1305.1 "
         style="fill:#ffffff;fill-opacity:1;stroke:#000000;stroke-width:2;stroke-miterlimit:10" /><polygon
         id="XMLID_2_"
         class="st0"
         points="1075.4,1475.1 1073,1769 781.5,1770.1 784.1,2015.3 455,2017.1 455,1475.1 "
         style="fill:#ffffff;fill-opacity:1;stroke:#000000;stroke-width:2;stroke-miterlimit:10" /><rect
         id="XMLID_5_"
         x="1248.9"
         y="1473.9"
         class="st0"
         width="620"
         height="553.40002"
         style="fill:#ffffff;fill-opacity:1;stroke:#000000;stroke-width:2;stroke-miterlimit:10" /><rect
         id="XMLID_6_"
         x="2224.6001"
         y="1473.9"
         class="st0"
         width="739.09998"
         height="542.90002"
         style="fill:#ffffff;fill-opacity:1;stroke:#000000;stroke-width:2;stroke-miterlimit:10" /><polygon
         id="XMLID_7_"
         class="st0"
         points="2224.6,2135.9 2965,2136.1 2966.5,2412 2224.6,2412.6 "
         style="fill:#ffffff;fill-opacity:1;stroke:#000000;stroke-width:2;stroke-miterlimit:10" /></g><rect
       id="XMLID_11_"
       x="1903.8"
       y="389.20001"
       class="st1"
       width="284.79999"
       height="2136.3"
       style="fill:#ffffff;fill-opacity:1;stroke:#000000;stroke-width:2;stroke-miterlimit:10" /><g
       id="_x32_OiiOb.tif"><g
         id="XMLID_8_"><path
           id="XMLID_70_"
           d="m 992.9,1809.6 c 0,9.3 0,18.6 0,27.9 0,19.3 -0.1,38.5 0.1,57.8 0,1.5 1.6,2.9 2.5,4.4 1,-1.2 2.7,-2.4 2.7,-3.6 0.6,-28.8 0.9,-57.6 1.3,-86.4 0,-0.3 -0.2,-0.6 -0.4,-1.3 -15.2,0 -30.5,0 -46.1,0 -0.2,-1.7 -0.4,-3.1 -0.6,-5.3 18.5,0 36.7,0 55.2,0 0,33.6 0,67.3 0,101.4 -18.2,0 -36.3,0 -54.8,0 0,-1.5 0,-2.9 0,-4.6 12,0 23.9,0 35.3,0 -0.7,-2.2 -1.8,-4.2 -1.8,-6.1 -0.1,-26.3 0,-52.6 -0.2,-78.9 0.1,-4.5 1.7,-6.2 6.8,-5.3 z"
           inkscape:connector-curvature="0" /><path
           id="XMLID_69_"
           d="m 976.9,1812.5 c 0,27.9 0,55.3 0,82.9 -4.9,0.6 -6.6,-0.9 -6.6,-5.7 0.2,-23.9 0.2,-47.8 0,-71.7 -0.1,-4.7 2.1,-5.6 6.6,-5.5 z"
           inkscape:connector-curvature="0" /><path
           id="XMLID_68_"
           d="m 963.2,1815.7 c 0,25.8 0,51.1 0,76.6 -4.9,0.9 -6.5,-0.8 -6.5,-5.5 0.2,-21.9 0.2,-43.8 0,-65.8 -0.1,-4.4 1.7,-6 6.5,-5.3 z"
           inkscape:connector-curvature="0" /><path
           id="XMLID_67_"
           d="m 947.5,1818.7 c 0,23.7 0,47 0,70.5 -4.5,0.4 -6.7,-0.6 -6.6,-5.6 0.2,-19.7 0.2,-39.4 0,-59.2 -0.1,-4.4 1.8,-5.8 6.6,-5.7 z"
           inkscape:connector-curvature="0" /><path
           id="XMLID_66_"
           d="m 931.4,1822.5 c 0,21.2 0,42 0,63.1 -4.5,0.9 -6.4,-0.3 -6.4,-4.9 0.1,-17.7 0.2,-35.5 0,-53.2 0,-4.4 1.8,-5.8 6.4,-5 z"
           inkscape:connector-curvature="0" /><path
           id="XMLID_65_"
           d="m 917.3,1882.6 c -4.6,0.9 -6.4,-0.7 -6.4,-5.2 0.1,-15.6 0.1,-31.1 0,-46.7 0,-4.4 1.7,-6.1 6.4,-5.2 0,19.1 0,38.1 0,57.1 z"
           inkscape:connector-curvature="0" /><path
           id="XMLID_64_"
           d="m 900.3,1879.3 c -4.2,0.5 -6,-0.8 -6,-4.9 0.1,-13.6 0.1,-27.1 0,-40.7 0,-4.1 1.9,-5.3 6,-4.8 0,16.8 0,33.6 0,50.4 z"
           inkscape:connector-curvature="0" /><path
           id="XMLID_63_"
           d="m 885,1832 c 0,14.7 0,29.3 0,44.1 -4.4,0.5 -6.6,-0.6 -6.4,-5.6 0.3,-10.9 0.3,-21.8 0,-32.6 -0.2,-4.8 1.6,-6.3 6.4,-5.9 z"
           inkscape:connector-curvature="0" /><path
           id="XMLID_62_"
           d="m 869,1872.6 c -4.7,0.7 -6.5,-1 -6.4,-5.4 0.2,-8.7 0.2,-17.4 0,-26.1 -0.1,-4.3 1.5,-6.3 6.4,-5.4 0,12.1 0,24.3 0,36.9 z"
           inkscape:connector-curvature="0" /><path
           id="XMLID_61_"
           d="m 853.4,1838.8 c 0,10.3 0,20.2 0,30.4 -4.3,0.6 -6.5,-0.5 -6.3,-5.1 0.2,-6.7 0.2,-13.4 0,-20 -0.2,-4.3 1.7,-5.8 6.3,-5.3 z"
           inkscape:connector-curvature="0" /></g></g><g
       id="_x32_OiiOb.tif_1_"><g
         id="XMLID_12_"><path
           id="XMLID_22_"
           d="m 1733.6,2193.7 c 9.3,0 18.6,0 27.9,0 19.3,0 38.5,0.1 57.8,-0.1 1.5,0 2.9,-1.6 4.4,-2.5 -1.2,-1 -2.4,-2.7 -3.6,-2.7 -28.8,-0.6 -57.6,-0.9 -86.4,-1.3 -0.3,0 -0.6,0.2 -1.3,0.4 0,15.2 0,30.5 0,46.1 -1.7,0.2 -3.1,0.4 -5.3,0.6 0,-18.5 0,-36.7 0,-55.2 33.6,0 67.3,0 101.4,0 0,18.2 0,36.3 0,54.8 -1.5,0 -2.9,0 -4.6,0 0,-12 0,-23.9 0,-35.3 -2.2,0.7 -4.2,1.8 -6.1,1.8 -26.3,0.1 -52.6,0 -78.9,0.2 -4.4,-0.1 -6.1,-1.6 -5.3,-6.8 z"
           inkscape:connector-curvature="0" /><path
           id="XMLID_21_"
           d="m 1736.6,2209.7 c 27.9,0 55.3,0 82.9,0 0.6,4.9 -0.9,6.6 -5.7,6.6 -23.9,-0.2 -47.8,-0.2 -71.7,0 -4.7,0.1 -5.7,-2.1 -5.5,-6.6 z"
           inkscape:connector-curvature="0" /><path
           id="XMLID_20_"
           d="m 1739.8,2223.5 c 25.8,0 51.1,0 76.6,0 0.9,4.9 -0.8,6.5 -5.5,6.5 -21.9,-0.2 -43.8,-0.2 -65.8,0 -4.5,0 -6,-1.7 -5.3,-6.5 z"
           inkscape:connector-curvature="0" /><path
           id="XMLID_19_"
           d="m 1742.8,2239.1 c 23.7,0 47,0 70.5,0 0.4,4.5 -0.6,6.7 -5.6,6.6 -19.7,-0.2 -39.4,-0.2 -59.2,0 -4.5,0.1 -5.9,-1.8 -5.7,-6.6 z"
           inkscape:connector-curvature="0" /><path
           id="XMLID_18_"
           d="m 1746.6,2255.2 c 21.2,0 42,0 63.1,0 0.9,4.5 -0.3,6.4 -4.9,6.4 -17.7,-0.1 -35.5,-0.2 -53.2,0 -4.4,0 -5.8,-1.7 -5,-6.4 z"
           inkscape:connector-curvature="0" /><path
           id="XMLID_17_"
           d="m 1806.7,2269.3 c 0.9,4.6 -0.7,6.4 -5.2,6.4 -15.6,-0.1 -31.1,-0.1 -46.7,0 -4.4,0 -6.1,-1.7 -5.2,-6.4 19.1,0 38,0 57.1,0 z"
           inkscape:connector-curvature="0" /><path
           id="XMLID_16_"
           d="m 1803.3,2286.4 c 0.5,4.2 -0.8,6 -4.9,6 -13.6,-0.1 -27.1,-0.1 -40.7,0 -4.1,0 -5.3,-1.9 -4.8,-6 16.9,0 33.6,0 50.4,0 z"
           inkscape:connector-curvature="0" /><path
           id="XMLID_15_"
           d="m 1756,2301.6 c 14.7,0 29.3,0 44.1,0 0.5,4.4 -0.6,6.6 -5.6,6.4 -10.9,-0.3 -21.8,-0.3 -32.6,0 -4.7,0.2 -6.3,-1.6 -5.9,-6.4 z"
           inkscape:connector-curvature="0" /><path
           id="XMLID_14_"
           d="m 1796.6,2317.6 c 0.7,4.7 -1,6.5 -5.4,6.4 -8.7,-0.2 -17.4,-0.2 -26.1,0 -4.3,0.1 -6.3,-1.5 -5.4,-6.4 12.2,0 24.4,0 36.9,0 z"
           inkscape:connector-curvature="0" /><path
           id="XMLID_13_"
           d="m 1762.9,2333.2 c 10.3,0 20.2,0 30.4,0 0.6,4.3 -0.5,6.5 -5.1,6.3 -6.7,-0.2 -13.4,-0.2 -20,0 -4.3,0.2 -5.8,-1.6 -5.3,-6.3 z"
           inkscape:connector-curvature="0" /></g></g><g
       id="_x32_OiiOb.tif_2_"><g
         id="XMLID_23_" /></g><g
       id="_x32_OiiOb.tif_3_"><g
         id="XMLID_34_" /></g><rect
       id="XMLID_10_"
       x="1976.6"
       y="2504"
       class="st2"
       width="141"
       height="38.099998"
       style="fill:#ffffff;stroke:#000000;stroke-width:2;stroke-miterlimit:10" /><rect
       id="XMLID_46_"
       x="1972.4"
       y="367.70001"
       class="st2"
       width="141"
       height="38.099998"
       style="fill:#ffffff;stroke:#000000;stroke-width:2;stroke-miterlimit:10" /><rect
       id="XMLID_45_"
       x="1110.8"
       y="515.70001"
       class="st3"
       width="99"
       height="777.09998"
       style="fill:#ffffff;fill-opacity:1;stroke:#000000;stroke-width:2;stroke-miterlimit:10" /><rect
       id="XMLID_47_"
       x="1110.8"
       y="1478.8"
       class="st3"
       width="102"
       height="336"
       style="fill:#ffffff;fill-opacity:1;stroke:#000000;stroke-width:2;stroke-miterlimit:10" /><rect
       id="XMLID_48_"
       x="393"
       y="377"
       class="st3"
       width="1544"
       height="76"
       style="fill:#ffffff;fill-opacity:1;stroke:#000000;stroke-width:2;stroke-miterlimit:10" /><rect
       id="XMLID_49_"
       x="2149"
       y="377"
       class="st3"
       width="908"
       height="80"
       style="fill:#ffffff;fill-opacity:1;stroke:#000000;stroke-width:2;stroke-miterlimit:10" /><rect
       id="XMLID_50_"
       x="1713.8"
       y="2363.8999"
       class="st3"
       width="114"
       height="96"
       style="fill:#ffffff;fill-opacity:1;stroke:#000000;stroke-width:2;stroke-miterlimit:10" /><polygon
       id="XMLID_51_"
       class="st0"
       points="1713.8,2459.9 1239.8,2459.9 1239.8,2126.9 1652,2126 1652,2179 1713.8,2179.6 "
       style="fill:#ffffff;fill-opacity:1;stroke:#000000;stroke-width:2;stroke-miterlimit:10" /><rect
       id="XMLID_52_"
       x="2229.8999"
       y="2033.9"
       class="st3"
       width="696.09998"
       height="72"
       style="fill:#ffffff;fill-opacity:1;stroke:#000000;stroke-width:2;stroke-miterlimit:10" /><polygon
       id="XMLID_53_"
       class="st3"
       points="1903.8,515.7 2009,547 2009,1268 1903.8,1286.8 "
       style="fill:#ffffff;fill-opacity:1;stroke:#000000;stroke-width:2;stroke-miterlimit:10" /><polygon
       id="XMLID_59_"
       class="st3"
       points="1903,1489 2006,1506 2006,1974 1904,1991 "
       style="fill:#ffffff;fill-opacity:1;stroke:#000000;stroke-width:2;stroke-miterlimit:10" /><polygon
       id="XMLID_60_"
       class="st3"
       points="2188.7,1488.3 2082,1509 2083.6,1974.3 2188.4,1994.7 "
       style="fill:#ffffff;fill-opacity:1;stroke:#000000;stroke-width:2;stroke-miterlimit:10" /><polygon
       id="XMLID_73_"
       class="st3"
       points="2188.1,2118.7 2083,2136.7 2084,2350.7 2188,2370.7 "
       style="fill:#ffffff;fill-opacity:1;stroke:#000000;stroke-width:2;stroke-miterlimit:10" /><polygon
       id="XMLID_74_"
       class="st3"
       points="2009.7,2139 1903.3,2115.3 1903.7,2288.3 2009,2267 "
       style="fill:#ffffff;fill-opacity:1;stroke:#000000;stroke-width:2;stroke-miterlimit:10" /><polygon
       id="XMLID_55_"
       class="st3"
       points="2083,547.7 2187.9,522.4 2188,1288 2083.5,1268 "
       style="fill:#ffffff;fill-opacity:1;stroke:#000000;stroke-width:2;stroke-miterlimit:10" /><polygon
       id="XMLID_57_"
       class="st4"
       points="1249.1,1333.6 1859.6,1335.1 1826.6,1446.1 1225.1,1446.1 "
       style="fill:#ffffff;fill-opacity:1;stroke:#000000;stroke-width:2;stroke-miterlimit:10" /><polygon
       id="XMLID_107_"
       class="st4"
       points="469,1331.7 1087.7,1333 1065,1443.7 494.3,1445 "
       style="fill:#ffffff;fill-opacity:1;stroke:#000000;stroke-width:2;stroke-miterlimit:10" /><polygon
       id="XMLID_58_"
       class="st4"
       points="2241.9,1333.3 2957,1332.3 2933.7,1445 2224,1445 "
       style="fill:#ffffff;fill-opacity:1;stroke:#000000;stroke-width:2;stroke-miterlimit:10" /><g
       id="_x39_EclLV.tif"><g
         id="XMLID_56_"><path
           id="XMLID_97_"
           d="m 2045.7,1409.4 c -17.1,0 -34.2,0 -51.3,0 -2.2,0 -2.3,0 -2.4,-2.2 -0.1,-3.2 -0.1,-6.4 -0.1,-9.7 0,-19.1 0,-38.2 0,-57.3 0,-0.8 0.1,-1.6 0.1,-2.4 0,-1 0.6,-1.4 1.6,-1.4 1.7,0 3.4,0 5.1,0 32.8,0 65.5,0 98.3,0 2.3,0 2.4,0.1 2.4,2.4 0,22.6 0,45.3 0,67.9 0,0.4 0,0.7 0,1.1 0,1.1 -0.5,1.6 -1.6,1.6 -2.3,0 -4.7,0 -7,0 -15,0 -30,0 -45.1,0 0,0 0,0 0,0 z m 0.1,-11 c 0,0 0,0 0,0 13.6,0 27.3,0 40.9,0 1.7,0 1.7,0 1.7,-1.7 0,-15.4 0.1,-30.8 0,-46.1 0,-3.1 0.7,-3.3 -3.3,-3.3 -24,0 -48.1,0 -72.1,0 -2.7,0 -5.4,0 -8.1,0 -1.7,0 -2,0.4 -2,2 0,3.1 0,6.1 0,9.2 0,12.7 0.1,25.5 0.1,38.2 0,1.7 0.2,1.8 1.8,1.8 13.8,-0.1 27.4,-0.1 41,-0.1 z"
           inkscape:connector-curvature="0" /><path
           id="XMLID_96_"
           d="m 2044.8,1426.2 c -4.4,0.2 -8.6,-0.8 -12.7,-2.2 -4.1,-1.5 -7.8,-3.7 -10.9,-6.9 -0.2,-0.2 -0.5,-0.7 -0.4,-0.9 0.1,-0.3 0.5,-0.7 0.9,-0.7 1.6,-0.1 3.2,-0.2 4.9,-0.2 14.3,0 28.6,0 42.9,0 0.4,0 1.1,0.3 1.2,0.5 0.1,0.4 -0.1,1 -0.5,1.3 -2,1.9 -4.2,3.6 -6.6,4.9 -2.8,1.5 -5.7,2.4 -8.7,3.2 -3.4,1 -6.7,0.9 -10.1,1 z"
           inkscape:connector-curvature="0" /></g></g><rect
       id="XMLID_71_"
       x="783"
       y="1919"
       class="st4"
       width="420"
       height="124"
       style="fill:#ffffff;fill-opacity:1;stroke:#000000;stroke-width:2;stroke-miterlimit:10" /><polygon
       id="XMLID_72_"
       class="st4"
       points="994.3,2128.3 1052,2129 1053,2196 1168.5,2196.5 1169,2129 1239.8,2129 1239.8,2459.9 993,2461 "
       style="fill:#ffffff;fill-opacity:1;stroke:#000000;stroke-width:2;stroke-miterlimit:10" /><rect
       id="XMLID_75_"
       x="826"
       y="2128"
       class="st4"
       width="167"
       height="333"
       style="fill:#ffffff;fill-opacity:1;stroke:#000000;stroke-width:2;stroke-miterlimit:10" /><rect
       id="XMLID_76_"
       x="370.20001"
       y="2127.1001"
       class="st3"
       width="455.79999"
       height="333.89999"
       style="fill:#ffffff;fill-opacity:1;stroke:#000000;stroke-width:2;stroke-miterlimit:10" /><g
       id="cc9j3t.tif"><g
         id="XMLID_77_"><path
           id="XMLID_122_"
           class="st5"
           d="m 540.8,2273.3 c 4,0 8,0 12,0 3.2,0 3.6,0.4 3.1,3.7 -0.9,6.7 -2.7,13.2 -5,19.5 -6.2,16.7 -16.3,30.6 -30,41.9 -1.6,1.3 -3.3,2.5 -5,3.7 -0.5,0.4 -1.2,0.8 -1.8,0.4 -0.6,-0.4 -0.4,-1.1 -0.3,-1.6 1.4,-5.4 2.7,-10.8 4.2,-16.2 0.3,-0.9 1.3,-1.7 2,-2.5 9.2,-9.5 16,-20.6 20.1,-33.2 0.9,-2.7 0.5,-3.3 -2.4,-3.3 -3.6,0 -7.2,0 -10.7,0 -2.2,0 -3,-1 -2.8,-3.1 0.3,-2.2 0.6,-4.5 0.7,-6.7 0.1,-2 1,-2.9 2.9,-2.8 4.3,0.1 8.7,0.1 13,0.2 0,-0.1 0,-0.1 0,0 z"
           inkscape:connector-curvature="0"
           style="fill:#0d0909" /><path
           id="XMLID_121_"
           class="st6"
           d="m 455.1,2241.1 c -0.9,3.5 -3.3,6.1 -5.9,8.5 -0.8,0.7 -1.6,0.3 -1.4,-0.7 1,-5.8 -2.4,-9.8 -5.4,-14 -4.6,-6.5 -1.4,-12.2 2.9,-17 0.7,-0.8 1.7,-0.9 1.6,0.4 -0.2,4.9 2.8,8.1 5.6,11.6 1.1,1.3 2.3,2.6 2.6,4.5 0.7,2.2 0.6,4.5 0,6.7 z"
           inkscape:connector-curvature="0"
           style="fill:#120b0a" /><path
           id="XMLID_113_"
           class="st7"
           d="m 511.3,2294 c -2,14.9 -4.8,29.6 -9,44 -0.2,0.6 -0.2,1.3 -0.3,2 -1.9,3.6 -2.6,7.5 -3.9,11.3 -2.9,8.4 -6.2,16.6 -9.5,24.9 -1,2.4 -2.5,3.1 -4.9,3.1 -12.5,-0.1 -25,0 -37.5,0 -3.7,0 -7.3,0 -11,0 -2,0 -3.2,-1 -4,-2.8 -5,-12.1 -9.8,-24.2 -13.2,-36.8 -0.2,-0.6 -0.6,-1.2 -0.9,-1.7 -1.1,-4.9 -2.2,-9.7 -3.4,-14.6 -2.5,-10.2 -4.2,-20.6 -5.4,-31 -1.2,-10.1 -2.3,-20.2 -2.4,-30.4 0,-4 0.1,-4.2 4.1,-4.2 33,0 66,0 99,0 0.7,0 1.5,0.1 2.2,0 2,-0.1 2.8,0.8 2.8,2.8 -0.1,6.4 -0.8,12.8 -1.4,19.2 -0.4,4.8 -0.9,9.5 -1.3,14.2 z"
           inkscape:connector-curvature="0"
           style="fill:#070707" /><path
           id="XMLID_112_"
           class="st8"
           d="m 479.9,2231.6 c -0.1,3.1 -1.3,5.8 -2.9,8.4 -1.9,3.1 -4.5,5.8 -7.1,8.3 -0.3,0.3 -0.7,0.8 -1.2,0.7 -0.6,-0.1 -0.6,-0.8 -0.5,-1.2 1.9,-7.4 -2.4,-12.5 -6.4,-17.8 -1.5,-2.1 -3,-4.1 -3.8,-6.7 -1.5,-4.9 0.2,-9.2 2.8,-13.2 1,-1.5 2.2,-2.9 3.3,-4.4 0.3,-0.4 0.7,-1 1.4,-0.7 0.6,0.2 0.5,0.8 0.5,1.3 -0.2,5.3 2.6,9.1 6.1,12.6 2.4,2.5 4.9,4.8 6.4,7.9 0.8,1.5 1.5,3.1 1.4,4.8 z"
           inkscape:connector-curvature="0"
           style="fill:#0b0909" /></g></g><g
       id="XMLID_80_"><g
         id="Kdsb7q.tif"><g
           id="XMLID_78_"><path
             id="XMLID_156_"
             d="m 912.7,2136.8 c 10.1,0 20.1,0 30.2,0 4.4,0 8,1.5 10.1,5.5 0.9,1.7 1.5,3.9 1.5,5.8 0.1,19.7 0.1,39.5 0.1,59.2 0,7 -5.1,11.8 -11.9,11.8 -19.6,0 -39.1,0.1 -58.7,0 -5.8,0 -9.5,-2.8 -11.4,-8.3 -0.2,-0.7 -0.2,-1.4 -0.2,-2.1 0,-20.6 0,-41.1 0,-61.7 0,-4.9 4.9,-10 9.5,-10 10.3,0 20.6,0 30.8,0 0,-0.1 0,-0.2 0,-0.2 z m 36.7,40.7 c -0.1,0 -0.1,0 0,0 -0.1,-9.7 -0.2,-19.4 0,-29.2 0.1,-4.3 -2.2,-6.6 -6.5,-6.6 -3.2,0 -6.3,0 -9.5,0 -9,0 -18,-0.1 -27,-0.1 -7.6,0 -15.1,0 -22.7,0.1 -3.6,0 -6.4,2.1 -6.3,6.2 0.1,19.8 0.1,39.7 0,59.5 0,4.2 2.7,6.4 6.5,6.5 6.7,0 13.3,0 20,0 7.8,0 15.5,0 23.3,0 5.3,0 10.7,0 16,0 3.7,0 6.1,-2.4 6.1,-6 0.1,-10.2 0.1,-20.3 0.1,-30.4 z"
             inkscape:connector-curvature="0" /><path
             id="XMLID_88_"
             d="m 915.6,2169.2 c 0,-1.2 -0.8,-2.7 -1.6,-3.6 -1.2,-1.3 -2.8,-2.3 -4.4,-3.6 0.1,-0.2 -0.5,0.3 -0.4,0.2 -4.3,3.3 -9.9,3.3 -14.3,0.3 -2.8,0.3 -4.1,2.4 -5.5,4.1 -0.6,0.7 -1.1,1.7 -1.1,2.5 -0.1,6.6 -0.1,13.1 0,19.7 0,1.2 1.9,3.7 3.1,3.8 1.3,0.1 1.3,0.9 1.3,1.8 0,3.7 0,7.4 0,11.2 0,2.5 2.3,4.9 4.6,4.9 2.1,0 4.4,-2.6 4.4,-4.7 0,-2.7 0,-5.3 0,-8 0,-0.6 0.1,-1.2 0.1,-1.7 0.3,-0.1 0.5,-0.1 0.8,-0.2 0.1,0.6 0.4,1.2 0.4,1.8 0,2.8 0,5.6 0,8.3 -0.1,3.5 0.4,3.2 3,4.4 2.7,1.2 5.8,-0.9 5.8,-3.8 0,-3.9 0.1,-7.8 0,-11.7 0,-1.5 0.4,-2.4 1.9,-2.8 1.3,-0.4 2.2,-1.2 2.2,-2.7 -0.2,-6.8 -0.1,-13.5 -0.3,-20.2 z"
             inkscape:connector-curvature="0" /><path
             id="XMLID_145_"
             d="m 930.2,2187 c 2,0 4,-0.1 6,0 2.3,0.1 3.4,1.8 2.3,3.9 -1.9,3.6 -3.9,7.1 -6,10.6 -1.2,2.1 -3.7,1.7 -5.1,-0.8 -1.8,-3.4 -3.6,-6.8 -5.4,-10.2 -1,-1.8 -0.1,-3.5 2,-3.6 2.1,0 4.2,0.1 6.2,0.1 0,0 0,0 0,0 z"
             inkscape:connector-curvature="0" /><path
             id="XMLID_142_"
             d="m 930.3,2168.6 c -2,0 -4.1,0.2 -6.1,0 -2.4,-0.3 -3,-1.7 -1.9,-3.8 1.8,-3.3 3.5,-6.6 5.3,-9.9 1.5,-2.8 3.6,-2.9 5.2,-0.2 2,3.3 3.9,6.6 5.7,10 1,1.9 0.1,3.7 -2,3.9 -2,0.2 -4.1,0.1 -6.2,0 0,0.1 0,0 0,0 z"
             inkscape:connector-curvature="0" /></g></g><circle
         id="XMLID_79_"
         cx="902.09998"
         cy="2154.2"
         r="9.5" /></g><g
       id="opP1B0.tif"><g
         id="XMLID_81_"><path
           id="XMLID_140_"
           d="m 1994.2,2370.6 c -9.5,0 -19,0 -28.5,0 -1.9,0 -2.2,-0.4 -2.2,-2.3 0,-14 0,-28 0,-42.1 0,-2.2 0.2,-2.5 2.5,-2.5 4.9,0 9.7,0 14.6,0 0.6,0 1.3,0.1 1.9,0.1 1,0 1.4,0.6 1.5,1.6 0,0.9 0.1,1.8 0.1,2.7 0,1.5 -0.6,2.2 -2.1,2.2 -3.5,0 -6.9,0 -10.4,0 -1.5,0 -1.7,0.2 -1.7,1.7 0,10 0,20 0,30 0,1.7 0.3,1.9 1.9,1.9 14.6,0 29.2,0 43.7,0 0.3,0 0.6,0 0.9,0 1.3,0.1 1.7,-0.5 1.7,-1.7 0,-6.7 0,-13.3 0,-20 0,-3.4 0,-6.8 0,-10.3 0,-1.2 -0.4,-1.6 -1.6,-1.6 -3.3,0 -6.6,0 -9.9,0 -2.4,0 -2.9,-0.6 -2.9,-3 0,-3.3 0.3,-3.6 3.6,-3.6 5.1,0 10.3,0 15.4,0.1 1.7,0 1.9,0.2 1.9,2 0,13.2 0,26.3 0,39.5 0,1.2 0,2.5 0,3.7 0,1.1 -0.5,1.5 -1.6,1.5 -2.1,0 -4.3,0 -6.4,0 -7.4,0.1 -14.9,0.1 -22.4,0.1 z"
           inkscape:connector-curvature="0" /><path
           id="XMLID_139_"
           d="m 1986.5,2359.3 c -3,0 -6,0.1 -9,0 -0.7,0 -1.9,-0.4 -2,-0.9 -0.3,-0.9 -0.2,-2.1 0.2,-3 0.8,-1.8 2.6,-2 4.3,-2.5 0.8,-0.2 1.5,-0.5 2.2,-0.9 0.9,-0.4 0.9,-1.1 0.6,-2 -0.8,-1.9 -1.5,-3.9 -1.9,-5.9 -0.4,-2.2 0.2,-4.3 2,-5.7 2.5,-2 6.5,-1.1 8.3,1.6 1.1,1.7 1,3.5 0.6,5.3 -0.3,1.4 -0.9,2.7 -1.5,3.9 -0.9,1.8 -0.4,3 1.6,3.6 1.1,0.3 2.3,0.6 3.4,1 1.7,0.7 2.8,3.1 1.9,4.7 -0.3,0.5 -1.2,0.8 -1.9,0.9 -3,-0.1 -5.9,-0.1 -8.8,-0.1 z"
           inkscape:connector-curvature="0" /><path
           id="XMLID_136_"
           d="m 2000.2,2319.8 c 0,2.7 0,5.5 0,8.2 0,1.7 -0.4,2.2 -2.2,2.3 -2.6,0.1 -5.2,0.1 -7.8,0 -1.7,0 -2.3,-0.5 -2.3,-2.3 0,-2.4 0,-4.9 0,-7.3 0,-2.9 0,-5.8 0,-8.7 0,-2.3 0.3,-2.6 2.6,-2.7 2.6,-0.1 5.1,-0.1 7.7,0 1.8,0.1 2,0.4 2.1,2.2 -0.1,2.7 -0.1,5.5 -0.1,8.3 0,0 0,0 0,0 z m -6,-1.9 c -0.9,0 -2.1,0.9 -2.1,1.7 0,0.7 1.3,2 2.1,1.9 0.9,-0.2 1.7,-0.7 1.7,-1.8 0.1,-0.8 -0.8,-1.8 -1.7,-1.8 z"
           inkscape:connector-curvature="0" /><path
           id="XMLID_135_"
           d="m 2005.6,2337.4 c 1.9,0 3.8,0 5.8,0 1.5,0 1.9,0.5 1.9,2 0.1,2.8 -0.4,3.3 -3.2,3.3 -3.1,0 -6.2,0 -9.4,0 -2.5,0 -3.8,-2.1 -2.5,-4.3 0.3,-0.5 1.2,-0.9 1.8,-0.9 1.8,-0.2 3.7,-0.1 5.6,-0.1 0,0 0,0 0,0 z"
           inkscape:connector-curvature="0" /><path
           id="XMLID_134_"
           d="m 2005.5,2350.9 c -1.8,0 -3.6,0 -5.4,0 -1.6,0 -2.2,-0.7 -2.2,-2.6 0,-1.9 0.5,-2.6 2.2,-2.6 3.7,0 7.3,0 11,0 1.7,0 2.2,0.6 2.2,2.4 0,2.1 -0.5,2.7 -2.1,2.8 -1.9,0 -3.8,0 -5.7,0 0,0 0,0 0,0 z"
           inkscape:connector-curvature="0" /><path
           id="XMLID_133_"
           d="m 2008,2359.2 c -1.1,0 -2.3,0 -3.4,0 -1.1,0 -1.7,-0.7 -1.7,-1.8 0,-0.5 0,-0.9 0,-1.4 0,-1.2 0.6,-1.8 1.7,-1.8 2.2,-0.1 4.4,-0.1 6.6,-0.1 1.5,0 2,0.8 2,2.6 0,2 -0.3,2.4 -2.1,2.5 -0.9,0.1 -2,0 -3.1,0 z"
           inkscape:connector-curvature="0" /><path
           id="XMLID_132_"
           class="st9"
           d="m 1994.2,2317.9 c 0.9,0 1.8,1 1.7,1.9 -0.1,1.1 -0.8,1.6 -1.7,1.8 -0.8,0.1 -2.1,-1.1 -2.1,-1.9 0,-0.9 1.2,-1.8 2.1,-1.8 z"
           inkscape:connector-curvature="0"
           style="fill:#ffffff" /></g></g><g
       id="opP1B0.tif_1_"><g
         id="XMLID_83_" /></g><g
       id="CWZxt4.tif"><g
         id="XMLID_82_"><path
           id="XMLID_293_"
           d="m 1082.7,2406.6 c 0,4.3 0,8.2 0,12.1 0,7.7 0,15.3 0,23 0,4.3 -2,6.5 -5.6,6.4 -3.3,0 -5.4,-2.5 -5.4,-6.5 0,-11 0,-22 0,-33 0,-0.7 -0.5,-1.3 -0.8,-2 -0.3,0.7 -0.8,1.3 -0.8,2 -0.1,11.1 0,22.2 -0.1,33.2 0,3.6 -1.9,5.9 -5,6.1 -3.8,0.3 -6.1,-1.9 -6.1,-6.1 0,-9.6 0,-19.2 0,-28.7 0,-1.5 -0.1,-3 0,-4.5 0.1,-1.7 -0.6,-2.1 -2.2,-2.1 -2.7,0.1 -5.5,0 -8.2,0.1 -1.8,0 -2.6,-0.5 -2,-2.5 3.3,-11.1 6.5,-22.2 9.7,-33.3 1.2,-4 2.3,-8.1 3.4,-12.1 -0.3,-0.1 -0.5,-0.2 -0.8,-0.3 -0.5,1.1 -1.1,2.2 -1.4,3.4 -2.1,7.3 -4.2,14.7 -6.4,22.1 -0.2,0.6 -0.5,1.2 -0.7,1.9 -1.2,2.8 -3.6,4.1 -5.9,3.4 -2.8,-0.9 -4.2,-3.6 -3.4,-6.6 0.8,-2.9 1.7,-5.8 2.5,-8.6 2.3,-7.3 4.5,-14.6 6.8,-21.9 1.9,-5.7 7,-9.5 13,-9.7 4.3,-0.1 8.7,-0.1 13,-0.1 7.8,0.1 13.2,3.9 15.5,11.3 3,9.6 5.9,19.3 8.7,28.9 0.3,1.2 0.4,2.9 -0.3,3.8 -1,1.3 -2.7,2.9 -4.2,2.9 -1.4,0 -3.4,-1.4 -4.2,-2.8 -1.2,-2 -1.7,-4.5 -2.4,-6.8 -2,-6.5 -3.9,-13.1 -5.9,-19.6 -0.2,-0.6 -0.5,-1.1 -0.8,-1.6 -0.2,0.1 -0.4,0.1 -0.7,0.2 0.1,0.7 0.1,1.3 0.2,2 2.8,9.4 5.6,18.8 8.4,28.2 1.5,4.9 2.9,9.9 4.4,14.8 0.7,2.5 0.3,3 -2.2,3 -3.1,0 -6.5,0 -10.1,0 z"
           inkscape:connector-curvature="0" /><path
           id="XMLID_292_"
           d="m 1170.5,2360.2 c 0,1.1 0,2.1 0,3.2 0,25.9 0,51.8 0,77.7 0,3.1 -1.6,5.6 -4.2,6.5 -2.7,1 -5.7,0.2 -7.5,-2.4 -0.9,-1.3 -1.3,-3.1 -1.3,-4.6 -0.1,-14.6 -0.1,-29.2 -0.1,-43.7 0,-0.9 -0.1,-1.9 -0.2,-2.8 -0.3,0 -0.5,0 -0.8,0 -0.1,0.8 -0.2,1.6 -0.2,2.4 0,14.7 0,29.3 0,44 0,4.5 -2.4,7.3 -6.3,7.5 -3.9,0.1 -6.6,-2.5 -6.9,-6.7 -0.1,-2.7 0,-5.3 0,-8 0,-23.7 0.1,-47.3 0.1,-71 0,-0.7 -0.1,-1.4 -0.2,-2 -0.2,0 -0.4,0 -0.7,0 -0.1,0.7 -0.2,1.5 -0.2,2.2 0,8.3 0.1,16.7 -0.1,25 0,1.7 -0.4,3.6 -1.4,4.9 -2.5,3.2 -7.3,2 -8.5,-1.9 -0.3,-1 -0.4,-2.1 -0.4,-3.2 0,-9.7 0,-19.5 0,-29.2 0,-5.5 1.7,-10.3 6.5,-13.3 2.2,-1.3 4.9,-2.3 7.5,-2.4 7.2,-0.3 14.5,-0.2 21.7,-0.1 8.2,0.1 14,6.2 14,14.4 0,10.7 0,21.3 0,32 0,3.2 -2,5.5 -4.8,5.5 -2.7,0 -5,-2.4 -5,-5.5 -0.1,-8.6 0,-17.2 0,-25.7 0,-0.9 -0.1,-1.9 -0.2,-2.8 -0.2,-0.1 -0.5,-0.1 -0.8,0 z"
           inkscape:connector-curvature="0" /><path
           id="XMLID_291_"
           d="m 1121.2,2383.3 c 0,20.1 0,40.1 0,60.2 0,4.1 -0.1,4.1 -4.3,4.1 -2.2,0 -4.3,0 -6.5,0 -1.6,0 -2.5,-0.8 -2.4,-2.5 0,-1.2 0,-2.5 0,-3.7 0,-39.4 0,-78.8 0,-118.2 0,-3.4 0.3,-3.8 3.7,-3.7 2.1,0 4.2,0 6.2,0 3,0 3.3,0.3 3.3,3.4 0,20 0,40.2 0,60.4 0,0 0,0 0,0 z"
           inkscape:connector-curvature="0" /><path
           id="XMLID_290_"
           d="m 1055.9,2232.9 c 0.2,4.7 0.5,9.2 0.7,13.7 0.1,1.7 1.2,1.6 2.2,1.6 5.2,0 10.3,0 15.5,0 3.1,0 3.3,0.3 3.3,3.3 0,6.1 0.6,5.8 -5.8,5.7 -4.7,0 -9.3,0 -14,0 -1,3.3 -0.6,4 2.9,3.9 7.5,-0.1 15,0 22.5,-0.2 1.7,0 2.6,0.6 3.2,2.1 3.3,7.7 6.7,15.4 9.9,23.2 0.8,1.8 1.6,2.6 3.5,1.5 0.7,-0.4 1.5,-0.6 2.3,-0.9 4.1,-1.4 4.1,-1.4 5.9,2.3 1.4,2.8 1.3,3.1 -1.6,4.2 -4,1.6 -8.1,3.1 -12,4.8 -1.7,0.7 -2.4,0.2 -3.1,-1.3 -2.2,-5.1 -4.4,-10.2 -6.5,-15.4 -1.3,-3.1 -2.7,-6.1 -3.9,-9.2 -0.7,-1.8 -1.7,-2.5 -3.8,-2.5 -8.2,0.1 -16.3,0 -24.5,0.1 -2.1,0 -2.9,-0.6 -3,-2.8 -0.9,-12.7 -2,-25.4 -3,-38.1 0,-0.6 -0.2,-1.2 -0.3,-1.7 -1.6,-4.8 0.8,-10 5.2,-11.4 4.7,-1.6 9.6,1 11.3,6 1.4,4.1 -1.2,8.7 -5.7,10.5 -0.4,0.3 -0.7,0.4 -1.2,0.6 z"
           inkscape:connector-curvature="0" /><path
           id="XMLID_289_"
           d="m 1215.1,2235.6 c -4.7,0.3 -10,0.3 -14.4,3.8 -1.6,1.2 -2.9,2.7 -4.5,4 -1.5,1.3 -1.4,2.2 0,3.6 4,4 5.7,8.8 4.4,14.3 -0.5,2 -1.4,3.9 -2.4,5.7 -1.2,2.1 -2.4,2.2 -4.1,0.5 -6.7,-6.6 -13.3,-13.3 -20,-20 -3.1,-3.1 -6.1,-6.1 -9.2,-9.2 -1.8,-1.8 -1.7,-2.5 0.3,-3.9 6,-4.4 14.5,-3.7 20,1.5 2.7,2.6 2.9,2.7 5.3,0 7.9,-8.9 18.4,-10.3 29.4,-10.1 1.5,0 2.4,0.7 2.3,2.3 0,0.2 0,0.3 0,0.5 0,7.8 1,7 -7.1,7 z"
           inkscape:connector-curvature="0" /><path
           id="XMLID_288_"
           d="m 1058.6,2308.8 c -18.4,-0.4 -32.6,-16.1 -30.6,-34.4 1.2,-10.3 6.8,-18.1 15.6,-23.4 2.1,-1.3 2.7,-0.9 2.9,1.5 0,0.2 0,0.3 0,0.5 0.8,3.9 -0.2,6.7 -3.3,9.9 -11.8,12.3 -6.2,31 10.2,35.8 10.2,3 22.9,-4.4 25.3,-14.9 0.2,-0.6 0.2,-1.3 0.5,-1.9 0.2,-0.4 0.7,-0.8 1.1,-0.8 0.4,0 0.9,0.4 1.1,0.8 1.3,2.7 2.7,5.3 3.8,8.1 0.4,1 0.1,2.5 -0.4,3.5 -4.3,7.2 -10.5,11.9 -18.6,14 -2.5,0.6 -5.1,0.9 -7.6,1.3 z"
           inkscape:connector-curvature="0" /><path
           id="XMLID_287_"
           d="m 1195.1,2285.9 c -0.7,-0.5 -1.4,-0.9 -2,-1.5 -12.3,-12.3 -24.5,-24.6 -36.8,-37 -2.8,-2.8 -5.5,-5.6 -8.4,-8.2 -1.4,-1.3 -1.5,-2.4 -0.1,-3.7 1.3,-1.2 2.6,-2.4 3.7,-3.7 1.5,-1.7 2.6,-1.4 4.1,0.1 13.5,13.6 27.1,27.1 40.6,40.7 1.5,1.5 3.1,3.1 4.6,4.6 1.1,1 1.5,2 0.3,3.2 -1.5,1.5 -3,3.1 -4.6,4.6 -0.2,0.3 -0.8,0.5 -1.4,0.9 z"
           inkscape:connector-curvature="0" /><path
           id="XMLID_286_"
           d="m 1167.6,2329.2 c 0,6.2 -4.6,11 -10.7,11.1 -5.9,0.1 -11.1,-5.1 -11.1,-10.9 0,-5.9 5,-11 10.9,-11.1 6,0 10.8,4.8 10.9,10.9 z"
           inkscape:connector-curvature="0" /><path
           id="XMLID_285_"
           d="m 1071,2340.3 c -5.9,-0.1 -11,-5.2 -10.9,-11.1 0,-5.7 5.3,-10.9 11,-10.8 5.9,0 11.1,5.2 11.1,11 -0.2,5.8 -5.3,11 -11.2,10.9 z"
           inkscape:connector-curvature="0" /><path
           id="XMLID_284_"
           d="m 1156.3,2262.1 c -1.1,-0.8 -2,-1.1 -2.2,-1.8 -0.3,-0.6 -0.2,-1.8 0.3,-2.2 1.3,-1.2 2.7,-2.2 4.2,-3 0.5,-0.3 1.7,0.1 2.2,0.6 0.5,0.5 0.9,1.9 0.6,2.1 -1.6,1.5 -3.4,2.8 -5.1,4.3 z"
           inkscape:connector-curvature="0" /><path
           id="XMLID_283_"
           d="m 1129.3,2258.7 c 0.1,2.4 -4.7,5.7 -6.6,4.8 -1.3,-0.6 -2.1,-1.9 -0.9,-3 1.3,-1.3 2.9,-2.5 4.6,-3.3 1.5,-0.7 2.5,0.4 2.9,1.5 z"
           inkscape:connector-curvature="0" /><path
           id="XMLID_282_"
           d="m 1143,2256.2 c 1.1,0.9 2,1.2 2.3,1.9 0.3,0.5 0.1,1.7 -0.3,2 -1.3,1.2 -2.8,2.4 -4.4,3.2 -0.5,0.3 -1.7,-0.1 -2.2,-0.6 -0.5,-0.5 -0.8,-1.9 -0.5,-2.2 1.6,-1.5 3.3,-2.8 5.1,-4.3 z"
           inkscape:connector-curvature="0" /><path
           id="XMLID_281_"
           d="m 1134.8,2257.6 c -0.9,-0.7 -1.8,-1.1 -2.1,-1.7 -0.3,-0.6 -0.2,-1.9 0.3,-2.2 1.4,-1.1 3,-2.1 4.6,-2.7 0.6,-0.2 1.9,0.5 2.4,1.2 0.3,0.5 0,1.9 -0.5,2.3 -1.3,1.2 -3,2 -4.7,3.1 z"
           inkscape:connector-curvature="0" /><path
           id="XMLID_280_"
           d="m 1168.7,2299.2 c -1.3,1.8 -2.4,3.6 -3.8,5.1 -0.3,0.3 -1.8,0.1 -2.3,-0.4 -0.5,-0.5 -0.8,-1.7 -0.6,-2.4 0.6,-1.4 1.5,-2.8 2.6,-3.9 0.5,-0.5 1.7,-0.7 2.4,-0.5 0.5,0.2 0.9,1.1 1.7,2.1 z"
           inkscape:connector-curvature="0" /><path
           id="XMLID_279_"
           d="m 1162.2,2292.7 c -1.6,1.8 -3,3.5 -4.6,5 -0.3,0.3 -1.6,-0.2 -2.1,-0.7 -0.4,-0.4 -0.6,-1.5 -0.4,-2 0.8,-1.5 1.8,-2.9 3,-4.2 0.4,-0.4 1.6,-0.6 2.2,-0.3 0.6,0.2 1,1.1 1.9,2.2 z"
           inkscape:connector-curvature="0" /><path
           id="XMLID_278_"
           d="m 1189,2284.6 c -1.4,1.7 -2.7,3.4 -4.2,4.8 -0.4,0.3 -1.8,0 -2.4,-0.5 -0.5,-0.4 -0.7,-1.7 -0.4,-2.2 0.8,-1.5 1.9,-2.9 3.1,-4.2 0.4,-0.4 1.6,-0.5 2.3,-0.2 0.6,0.3 0.9,1.2 1.6,2.3 z"
           inkscape:connector-curvature="0" /><path
           id="XMLID_277_"
           d="m 1149,2244.2 c 0.9,0.7 1.9,1.1 2.1,1.7 0.2,0.7 -0.1,2 -0.6,2.4 -1.4,1 -3,1.8 -4.6,2.3 -0.6,0.2 -1.9,-0.4 -2.2,-1 -0.3,-0.6 -0.2,-2.1 0.3,-2.4 1.5,-1.2 3.2,-2 5,-3 z"
           inkscape:connector-curvature="0" /><path
           id="XMLID_276_"
           d="m 1134.9,2265.8 c 0.1,1.9 -3.8,5.3 -5.6,5 -1.5,-0.3 -2.4,-2 -1.4,-3.2 1.1,-1.4 2.6,-2.6 4.2,-3.4 1.4,-0.8 2.6,0 2.8,1.6 z"
           inkscape:connector-curvature="0" /><path
           id="XMLID_275_"
           d="m 1143.4,2284.3 c -1.5,0 -2.6,-1.6 -1.8,-3 0.9,-1.5 2.2,-2.9 3.6,-4 1.2,-1 3.1,0.3 3.2,1.9 0,1.4 -3.6,5.1 -5,5.1 z"
           inkscape:connector-curvature="0" /><path
           id="XMLID_274_"
           d="m 1182.1,2295.4 c -1,1.7 -1.8,3.3 -2.9,4.5 -0.5,0.5 -2,0.7 -2.6,0.3 -0.6,-0.4 -1.1,-1.8 -0.9,-2.5 0.5,-1.5 1.3,-2.9 2.4,-4 0.5,-0.6 1.8,-0.8 2.6,-0.6 0.6,0.3 0.9,1.4 1.4,2.3 z"
           inkscape:connector-curvature="0" /><path
           id="XMLID_273_"
           d="m 1169,2309.7 c 0.4,-3.2 2.8,-6.4 4.2,-5.8 0.8,0.3 1.9,1.6 1.9,2.3 -0.1,2.8 -2.7,5.8 -4.2,5.3 -0.9,-0.3 -1.5,-1.4 -1.9,-1.8 z"
           inkscape:connector-curvature="0" /><path
           id="XMLID_272_"
           d="m 1146.8,2270.1 c -2.2,-0.4 -3.4,-2.3 -2.3,-3.7 1.1,-1.3 2.5,-2.4 3.9,-3.3 0.5,-0.3 1.7,-0.1 2.2,0.3 0.5,0.3 0.9,1.6 0.7,1.9 -1.3,1.6 -2.9,3.2 -4.5,4.8 z"
           inkscape:connector-curvature="0" /><path
           id="XMLID_271_"
           d="m 1136.4,2277.6 c -1.5,-0.2 -2.5,-1.4 -1.7,-2.7 1,-1.7 2.5,-3.2 4.2,-4.2 1.3,-0.8 2.6,0.2 2.7,1.9 0,1.5 -3.5,5 -5.2,5 z"
           inkscape:connector-curvature="0" /><path
           id="XMLID_270_"
           d="m 1156,2251.1 c -0.1,2.5 -4.9,5.5 -6.5,4.7 -1.2,-0.6 -2.2,-1.9 -1,-3 1.5,-1.3 3.4,-2.3 5.2,-3 0.6,-0.2 1.7,1 2.3,1.3 z"
           inkscape:connector-curvature="0" /><path
           id="XMLID_269_"
           d="m 1170.3,2283.3 c -1.6,1.6 -3.1,3.5 -5,4.7 -1.2,0.8 -3,-1.4 -2.2,-2.8 0.9,-1.5 2.1,-3 3.5,-4.2 1.1,-0.9 3.1,0.2 3.7,2.3 z"
           inkscape:connector-curvature="0" /><path
           id="XMLID_268_"
           d="m 1178.8,2283.9 c -1.7,0.1 -2.9,-1.5 -2,-3 0.9,-1.5 2.2,-2.9 3.5,-4.1 1.1,-0.9 2.9,0.1 3.2,1.5 0.2,1.7 -3.1,5.5 -4.7,5.6 z"
           inkscape:connector-curvature="0" /><path
           id="XMLID_267_"
           d="m 1176.2,2289.3 c -1.4,1.6 -2.6,3.3 -4.1,4.8 -0.3,0.3 -1.7,0.1 -2.2,-0.3 -0.5,-0.4 -0.9,-1.7 -0.6,-2.1 0.9,-1.6 1.9,-3.1 3.2,-4.4 0.4,-0.4 1.6,-0.4 2.2,-0.1 0.6,0.1 0.8,1 1.5,2.1 z"
           inkscape:connector-curvature="0" /><path
           id="XMLID_266_"
           d="m 1153.6,2283.7 c 0.3,0.6 1.4,1.9 1.2,2.4 -0.9,1.8 -2.2,3.5 -3.7,4.7 -1.3,1 -2.5,-0.1 -2.9,-1.6 -0.4,-1.6 2.9,-5.4 5.4,-5.5 z"
           inkscape:connector-curvature="0" /><path
           id="XMLID_265_"
           d="m 1166.8,2262.4 c 0.1,1.7 -3.9,5.1 -5.5,4.9 -1.5,-0.2 -2.4,-2.3 -1.4,-3.5 1.1,-1.3 2.6,-2.4 4.1,-3.1 1.6,-0.8 2.6,0.2 2.8,1.7 z"
           inkscape:connector-curvature="0" /><path
           id="XMLID_264_"
           d="m 1157.5,2270.7 c 0,1.8 -3.5,5.1 -5.1,5.1 -1.5,-0.1 -2.7,-1.6 -1.8,-2.8 1.1,-1.6 2.6,-3.1 4.2,-4 1.4,-0.8 2.5,0.2 2.7,1.7 z"
           inkscape:connector-curvature="0" /><path
           id="XMLID_263_"
           d="m 1172.5,2267.8 c 0.1,1.7 -3.9,5.2 -5.6,4.9 -1.5,-0.3 -2.3,-2 -1.3,-3.3 1,-1.3 2.3,-2.4 3.6,-3.4 1.3,-0.9 3.2,0.3 3.3,1.8 z"
           inkscape:connector-curvature="0" /><path
           id="XMLID_262_"
           d="m 1163.6,2276.9 c 0,1.5 -3.2,4.9 -4.7,5 -1.7,0.1 -3,-1.4 -2.1,-2.9 0.9,-1.4 2.1,-2.8 3.4,-3.8 1.5,-1.2 3.4,-0.1 3.4,1.7 z"
           inkscape:connector-curvature="0" /><path
           id="XMLID_261_"
           d="m 1178.4,2274 c -1.7,1.5 -3.3,3.3 -5.3,4.3 -1.3,0.7 -3,-1.5 -2.1,-2.8 1.1,-1.6 2.6,-3 4.1,-4.1 1.2,-0.9 2.9,0.6 3.3,2.6 z"
           inkscape:connector-curvature="0" /></g></g><g
       id="XMLID_95_"><path
         id="XMLID_103_"
         d="m 943.8,1404.8 c 0,2.9 0,5.6 0,8.3 0,5.3 0,10.6 0,15.9 0,2.9 -1.2,4.5 -3.5,4.4 -2.1,0 -3.4,-1.7 -3.4,-4.5 0,-7.6 0,-15.2 0,-22.8 0,-0.5 -0.3,-0.9 -0.5,-1.4 -0.2,0.5 -0.5,0.9 -0.5,1.4 0,7.7 0,15.3 0,23 0,2.5 -1.2,4.1 -3.2,4.2 -2.4,0.2 -3.9,-1.3 -3.9,-4.2 0,-6.6 0,-13.3 0,-19.9 0,-1 -0.1,-2.1 0,-3.1 0.1,-1.2 -0.4,-1.5 -1.4,-1.4 -1.8,0.1 -3.5,0 -5.3,0 -1.2,0 -1.7,-0.4 -1.3,-1.7 2.1,-7.7 4.1,-15.3 6.2,-23 0.7,-2.8 1.4,-5.6 2.2,-8.4 -0.2,-0.1 -0.3,-0.1 -0.5,-0.2 -0.3,0.8 -0.7,1.5 -0.9,2.3 -1.4,5.1 -2.7,10.2 -4.1,15.3 -0.1,0.4 -0.3,0.9 -0.5,1.3 -0.8,1.9 -2.3,2.9 -3.7,2.3 -1.8,-0.7 -2.7,-2.5 -2.1,-4.6 0.5,-2 1.1,-4 1.6,-6 1.4,-5.1 2.8,-10.1 4.4,-15.2 1.2,-3.9 4.5,-6.6 8.3,-6.7 2.8,-0.1 5.5,-0.1 8.3,0 5,0 8.4,2.7 9.9,7.8 1.9,6.6 3.7,13.3 5.5,20 0.2,0.8 0.2,2 -0.2,2.6 -0.6,0.9 -1.7,2 -2.7,2 -0.9,0 -2.2,-1 -2.7,-1.9 -0.8,-1.4 -1.1,-3.1 -1.5,-4.7 -1.3,-4.5 -2.5,-9 -3.7,-13.5 -0.1,-0.4 -0.3,-0.7 -0.5,-1.1 -0.1,0 -0.3,0.1 -0.4,0.1 0,0.5 0,0.9 0.1,1.4 1.8,6.5 3.6,13 5.3,19.5 0.9,3.4 1.9,6.8 2.8,10.3 0.5,1.7 0.2,2.1 -1.4,2.1 -2.3,0.1 -4.4,0.1 -6.7,0.1 z"
         inkscape:connector-curvature="0" /><path
         id="XMLID_100_"
         d="m 936.3,1358.9 c -3.8,0 -7,-3.6 -7,-7.7 0,-3.9 3.4,-7.5 7,-7.5 3.8,0 7.1,3.6 7,7.6 0,4.1 -3.3,7.7 -7,7.6 z"
         inkscape:connector-curvature="0" /></g><g
       id="XMLID_104_"><path
         id="XMLID_102_"
         d="m 1450,1372.9 c 0,0.7 0,1.5 0,2.2 0,18.3 0,36.5 0,54.8 0,2.2 -1.2,3.9 -3,4.6 -1.9,0.7 -4.1,0.2 -5.3,-1.7 -0.6,-0.9 -0.9,-2.2 -0.9,-3.3 -0.1,-10.3 0,-20.5 -0.1,-30.8 0,-0.7 -0.1,-1.3 -0.1,-2 -0.2,0 -0.4,0 -0.5,0 0,0.6 -0.1,1.2 -0.1,1.7 0,10.3 0,20.7 0,31 0,3.2 -1.7,5.2 -4.4,5.3 -2.7,0.1 -4.7,-1.8 -4.8,-4.7 -0.1,-1.9 0,-3.8 0,-5.6 0,-16.7 0,-33.3 0.1,-50 0,-0.5 -0.1,-1 -0.1,-1.4 -0.2,0 -0.3,0 -0.5,0 0,0.5 -0.1,1 -0.1,1.6 0,5.9 0,11.7 0,17.6 0,1.2 -0.3,2.6 -1,3.4 -1.7,2.2 -5.1,1.4 -6,-1.3 -0.2,-0.7 -0.3,-1.5 -0.3,-2.3 0,-6.9 0,-13.7 0,-20.6 0,-3.9 1.2,-7.3 4.6,-9.3 1.5,-0.9 3.5,-1.6 5.3,-1.7 5.1,-0.2 10.2,-0.1 15.3,-0.1 5.8,0.1 9.9,4.4 9.8,10.2 0,7.5 0,15 0,22.5 0,2.2 -1.4,3.9 -3.4,3.9 -1.9,0 -3.5,-1.7 -3.5,-3.9 0,-6 0,-12.1 0,-18.1 0,-0.7 -0.1,-1.3 -0.1,-2 -0.4,-0.1 -0.6,0 -0.9,0 z"
         inkscape:connector-curvature="0" /><path
         id="XMLID_101_"
         d="m 1448,1351.1 c 0,4.4 -3.3,7.8 -7.5,7.8 -4.1,0 -7.8,-3.6 -7.8,-7.6 0,-4.2 3.5,-7.8 7.7,-7.8 4.1,-0.1 7.6,3.3 7.6,7.6 z"
         inkscape:connector-curvature="0" /></g><g
       id="xI9Azl.tif"><g
         id="XMLID_105_" /></g><g
       id="XMLID_166_"><path
         id="XMLID_170_"
         d="m 1329.4,1350.2 c 0.1,1.8 0.2,3.5 0.3,5.3 0,0.6 0.4,0.6 0.9,0.6 2,0 4,0 6,0 1.2,0 1.3,0.1 1.3,1.3 0,2.4 0.2,2.2 -2.2,2.2 -1.8,0 -3.6,0 -5.4,0 -0.4,1.3 -0.2,1.5 1.1,1.5 2.9,0 5.8,0 8.6,-0.1 0.7,0 1,0.2 1.2,0.8 1.3,3 2.6,5.9 3.8,8.9 0.3,0.7 0.6,1 1.3,0.6 0.3,-0.2 0.6,-0.2 0.9,-0.3 1.6,-0.6 1.6,-0.6 2.3,0.9 0.5,1.1 0.5,1.2 -0.6,1.6 -1.5,0.6 -3.1,1.2 -4.6,1.9 -0.6,0.3 -0.9,0.1 -1.2,-0.5 -0.8,-2 -1.7,-3.9 -2.5,-5.9 -0.5,-1.2 -1,-2.3 -1.5,-3.5 -0.3,-0.7 -0.7,-1 -1.4,-0.9 -3.1,0 -6.3,0 -9.4,0 -0.8,0 -1.1,-0.2 -1.2,-1.1 -0.3,-4.9 -0.7,-9.8 -1.1,-14.6 0,-0.2 -0.1,-0.4 -0.1,-0.7 -0.6,-1.8 0.3,-3.8 2,-4.4 1.8,-0.6 3.7,0.4 4.3,2.3 0.5,1.6 -0.4,3.4 -2.2,4.1 -0.3,-0.2 -0.4,-0.1 -0.6,0 z"
         inkscape:connector-curvature="0" /><path
         id="XMLID_169_"
         d="m 1330.4,1379.3 c -7.1,-0.2 -12.5,-6.2 -11.7,-13.2 0.4,-4 2.6,-6.9 6,-9 0.8,-0.5 1.1,-0.4 1.1,0.6 0,0.1 0,0.1 0,0.2 0.3,1.5 -0.1,2.6 -1.3,3.8 -4.5,4.7 -2.4,11.9 3.9,13.7 3.9,1.1 8.8,-1.7 9.7,-5.7 0.1,-0.2 0.1,-0.5 0.2,-0.7 0.1,-0.1 0.3,-0.3 0.4,-0.3 0.1,0 0.3,0.2 0.4,0.3 0.5,1 1.1,2 1.5,3.1 0.1,0.4 0,1 -0.2,1.3 -1.6,2.8 -4.1,4.6 -7.2,5.4 -0.8,0.3 -1.8,0.3 -2.8,0.5 z"
         inkscape:connector-curvature="0" /></g><g
       id="bGRrOd.tif"><g
         id="XMLID_171_" /></g><g
       id="bGRrOd.tif_1_"><g
         id="XMLID_173_" /></g><g
       id="bGRrOd.tif_2_"><g
         id="XMLID_177_" /></g><g
       id="bGRrOd.tif_3_"><g
         id="XMLID_181_" /></g><g
       id="bGRrOd.tif_4_"><g
         id="XMLID_187_" /></g><g
       id="wAVeDs.tif"><g
         id="XMLID_172_"><path
           id="XMLID_328_"
           d="m 2130.2,1809.6 c 0.6,-0.7 1,-1.1 1.2,-1.6 2,-4.8 4,-9.7 6,-14.5 0.2,-0.5 0.7,-0.9 1.1,-1.4 0.4,0.5 0.9,0.9 1.1,1.4 2.7,7.5 5.4,15.1 8.4,23.2 0.7,-1.3 1.2,-2 1.6,-2.8 1.7,-3.9 3.4,-7.9 5.1,-11.9 1,-2.2 6.3,-3.9 8.3,-2.5 0.4,0.3 0.7,1.1 0.7,1.7 0,7.7 0,15.5 0.1,23.2 0,2 -1.3,1.8 -2.5,1.8 -12.2,0 -24.5,0 -36.7,0 -4,0 -8,0 -12,0 -1.4,0 -2.1,-0.3 -2.1,-1.9 0.1,-6.3 0.1,-12.7 0,-19 0,-1.9 0.7,-2.6 2.5,-2.4 0.6,0.1 1.2,-0.1 1.7,0 3.8,0.8 6.4,-0.7 7.7,-4.4 0.2,-0.5 0.8,-0.9 1.2,-1.4 0.4,0.5 1,1 1.3,1.6 1.7,3.7 3.4,7.1 5.3,10.9 z"
           inkscape:connector-curvature="0" /><path
           id="XMLID_327_"
           d="m 2138.5,1783.3 c -2.7,6.2 -5.3,12.4 -8,18.6 -0.3,0 -0.5,-0.1 -0.8,-0.1 -1.9,-3.8 -3.8,-7.6 -5.9,-11.9 -1.6,2.7 -2.8,5 -4.2,7.2 -1.4,2.4 -5.9,4 -8.3,2.8 -0.4,-0.2 -0.9,-1 -0.9,-1.6 -0.1,-7.8 0,-15.7 -0.1,-23.5 0,-1.8 1.2,-1.7 2.4,-1.7 10.8,0 21.6,0 32.5,0 5.3,0 10.7,0.1 16,0 1.8,0 2.5,0.5 2.4,2.4 -0.1,6.2 -0.1,12.3 0,18.5 0,1.9 -0.6,2.6 -2.5,2.4 -0.2,0 -0.3,0 -0.5,0 -7.1,0 -7.1,0.1 -9.9,6.7 -0.7,1.6 -1.4,3.2 -2,4.8 -0.3,-0.1 -0.5,-0.1 -0.8,-0.2 -3,-8.1 -5.9,-16.2 -8.9,-24.3 -0.1,0 -0.3,-0.1 -0.5,-0.1 z"
           inkscape:connector-curvature="0" /><path
           id="XMLID_326_"
           d="m 2097.2,1775 c 0,-1.8 -0.1,-3.7 0,-5.5 0.2,-5.4 4.1,-9.4 9.5,-9.4 3.8,-0.1 7.6,0 11.5,-0.1 1.8,-0.1 2.7,0.5 2.4,2.4 -0.1,0.7 -0.1,1.3 0,2 0.2,1.6 -0.5,2.2 -2.1,2.2 -3.4,0 -6.8,0 -10.2,0 -3.2,0 -4.5,1.4 -4.4,4.6 0.1,3.2 0,6.5 0.1,9.7 0,1.6 -0.4,2.6 -2.3,2.3 -0.7,-0.1 -1.3,-0.1 -2,0 -1.8,0.2 -2.6,-0.5 -2.5,-2.4 0.1,-1.8 0,-3.8 0,-5.8 z"
           inkscape:connector-curvature="0" /><path
           id="XMLID_325_"
           d="m 2112,1839.5 c -1.7,0 -3.5,0 -5.2,0 -5.3,-0.1 -9.3,-3.9 -9.6,-9.2 -0.2,-4 0,-8 0,-12 0,-1.4 0.5,-2.2 2.1,-2.1 0.2,0 0.3,0 0.5,0 4.2,0 4.2,0 4.1,4.2 0,2.7 -0.1,5.5 0,8.2 0.1,2.8 1.3,4.2 4.1,4.2 3.3,0.1 6.7,0.1 10,-0.1 1.9,-0.1 2.9,0.5 2.6,2.5 -0.1,0.7 -0.1,1.3 0,2 0.2,1.6 -0.5,2.3 -2.1,2.2 -2.2,-0.1 -4.3,0 -6.5,0 0,0.2 0,0.1 0,0.1 z"
           inkscape:connector-curvature="0" /><path
           id="XMLID_324_"
           d="m 2162,1760.1 c 1.8,0 3.7,0 5.5,0 5,0.2 9,4.1 9.2,9.1 0.1,4.1 0,8.2 0,12.2 0,1.5 -0.6,2.1 -2.1,2 -0.7,-0.1 -1.5,-0.1 -2.2,0 -1.8,0.2 -2.3,-0.7 -2.3,-2.3 0.1,-3.3 0.1,-6.7 0,-10 0,-3.1 -1.2,-4.3 -4.2,-4.3 -3.1,-0.1 -6.2,0 -9.2,-0.1 -3.2,0 -3.2,-0.1 -3.2,-3.4 0,-0.5 -0.2,-1.1 0,-1.5 0.5,-0.7 1.1,-1.6 1.8,-1.7 2.2,-0.2 4.5,-0.1 6.7,0 0,0 0,0 0,0 z"
           inkscape:connector-curvature="0" /><path
           id="XMLID_323_"
           d="m 2176.7,1824.6 c 0,1.7 0,3.5 0,5.2 0,5.6 -4.1,9.7 -9.8,9.7 -3.7,0 -7.5,-0.1 -11.2,0 -1.8,0 -2.4,-0.6 -2.2,-2.3 0.1,-0.6 0,-1.2 0,-1.7 -0.2,-1.8 0.5,-2.6 2.4,-2.5 3.1,0.1 6.2,0.1 9.2,0.1 3.8,0 5.1,-1.3 5,-5.1 0,-3.2 0.1,-6.3 0,-9.5 0,-1.6 0.6,-2.3 2.2,-2.2 0.8,0.1 1.7,0.1 2.5,0 1.4,-0.1 2,0.5 1.9,1.9 0,2.1 0,4.2 0,6.4 0,0 0,0 0,0 z"
           inkscape:connector-curvature="0" /><path
           id="XMLID_322_"
           d="m 2126.9,1766.6 c -3.4,0 -3.4,0 -3.4,-3.6 0,-3 0,-3 3.8,-3.1 3.2,0 3.3,0.1 3.3,3.3 0,3.5 0,3.5 -3.7,3.4 z"
           inkscape:connector-curvature="0" /><path
           id="XMLID_321_"
           d="m 2101,1793.3 c -3.9,0 -3.9,0 -3.9,-3.7 0,-3.2 0.1,-3.1 4.1,-3.3 3.7,-0.2 2.4,2.4 2.7,4.2 0.4,2.7 -1,3.3 -2.9,2.8 z"
           inkscape:connector-curvature="0" /><path
           id="XMLID_320_"
           d="m 2097.2,1810.1 c 0,-3.9 0,-3.9 3.6,-3.9 3.1,0 3.1,0 3,3.8 0,3.2 0,3.1 -3.9,3.3 -3,0.2 -2.9,-1.5 -2.7,-3.2 z"
           inkscape:connector-curvature="0" /><path
           id="XMLID_319_"
           d="m 2097.2,1800.7 c 0,-4.4 0,-4.4 3.3,-4.4 1.9,0 3.6,-0.2 3.5,2.7 -0.2,4.3 -0.1,4.2 -4.2,4.4 -3,0.2 -2.6,-1.7 -2.6,-2.7 z"
           inkscape:connector-curvature="0" /><path
           id="XMLID_318_"
           d="m 2136.9,1766.7 c -3.4,0 -3.2,0 -3.5,-3.7 -0.2,-2.9 1.3,-3.1 3.5,-3 3.6,0.1 3.4,0 3.6,4.1 0.2,3.1 -1.8,2.6 -3.6,2.6 z"
           inkscape:connector-curvature="0" /><path
           id="XMLID_317_"
           d="m 2147.1,1766.7 c -3.8,-0.1 -3.8,-0.1 -3.7,-4.5 0.1,-3.7 3.1,-2 4.7,-2.1 3.5,-0.4 2.1,2.5 2.3,4.2 0.5,3 -1.9,2.2 -3.3,2.4 z"
           inkscape:connector-curvature="0" /><path
           id="XMLID_316_"
           d="m 2176.7,1800 c 0.2,1.9 0.3,3.6 -2.8,3.4 -3.8,-0.3 -3.8,-0.1 -3.8,-4.1 0,-3 0,-2.8 3.9,-3 3.2,-0.3 2.8,1.6 2.7,3.7 z"
           inkscape:connector-curvature="0" /><path
           id="XMLID_315_"
           d="m 2173.7,1793.3 c -3.5,0 -3.5,0 -3.5,-3.5 0,-3.6 0,-3.6 3.8,-3.6 2.8,0 2.6,0 2.8,4.3 0.1,3 -1.4,3.1 -3.1,2.8 z"
           inkscape:connector-curvature="0" /><path
           id="XMLID_314_"
           d="m 2172.9,1813.3 c -2.2,0.6 -2.9,-0.7 -2.8,-3 0.1,-4 0,-3.9 3.9,-4.1 2.3,-0.1 2.9,0.7 2.8,2.8 -0.1,4.2 0,4.2 -3.9,4.3 z"
           inkscape:connector-curvature="0" /><path
           id="XMLID_313_"
           d="m 2126.4,1839.5 c -1.4,0.1 -3.1,0.3 -2.9,-2.5 0.2,-4.1 0.1,-4.2 3.3,-4.1 1.6,0.1 3.9,-0.9 3.8,2.3 -0.1,4.3 0,4.3 -4.2,4.3 z"
           inkscape:connector-curvature="0" /><path
           id="XMLID_312_"
           d="m 2140.5,1836.8 c 0.6,2.2 -0.6,3 -2.8,2.7 -1.6,-0.3 -4.3,1.3 -4.2,-2.3 0.1,-4.1 0,-4.1 3,-4.2 3.9,-0.1 3.9,-0.1 4,3.8 z"
           inkscape:connector-curvature="0" /><path
           id="XMLID_311_"
           d="m 2147,1839.5 c -3.5,0 -3.4,0 -3.6,-4 -0.2,-3.5 2.4,-2.4 4.1,-2.6 2,-0.2 3.2,0.3 3.1,2.8 -0.3,3.8 -0.1,3.8 -3.6,3.8 z"
           inkscape:connector-curvature="0" /></g></g></g><rect
     id="rect4273"
     width="552.00244"
     height="135.67026"
     x="477.07632"
     y="185.20285"
     style="fill:#0054a5;fill-opacity:1;stroke:#000000;stroke-width:1;stroke-linecap:round;stroke-linejoin:round;stroke-miterlimit:90;stroke-dasharray:none;stroke-opacity:1"
     ry="0" /><rect
     id="rect4273-5-6-5-9-5-7"
     width="551.52655"
     height="231.4324"
     x="1256.9003"
     y="194.77206"
     style="fill:#0054a5;fill-opacity:1;stroke:#000000;stroke-width:1;stroke-linecap:round;stroke-linejoin:round;stroke-miterlimit:90;stroke-dasharray:none;stroke-opacity:1"
     ry="0" /><rect
     id="rect4273-5-6-5-60-3-0-6-5"
     width="675.47534"
     height="135.1293"
     x="2246.9441"
     y="180.68167"
     style="fill:#0054a5;fill-opacity:1;stroke:#000000;stroke-width:1;stroke-linecap:round;stroke-linejoin:round;stroke-miterlimit:90;stroke-dasharray:none;stroke-opacity:1"
     ry="0"
     rx="0" /><rect
     id="rect4273-5-6-5-60-3-0-6"
     width="675.47534"
     height="135.1293"
     x="2245.4727"
     y="345.57156"
     style="fill:#0054a5;fill-opacity:1;stroke:#000000;stroke-width:1;stroke-linecap:round;stroke-linejoin:round;stroke-miterlimit:90;stroke-dasharray:none;stroke-opacity:1"
     ry="0" /><rect
     id="rect4273-5-6-5-60-3-7"
     width="675.47534"
     height="135.1293"
     x="2249.0435"
     y="1179.0607"
     style="fill:#0054a5;fill-opacity:1;stroke:#000000;stroke-width:1;stroke-linecap:round;stroke-linejoin:round;stroke-miterlimit:90;stroke-dasharray:none;stroke-opacity:1"
     ry="0" /><rect
     id="rect4273-5-6-5-9-5"
     width="551.52655"
     height="231.4324"
     x="1279.0455"
     y="1336.1837"
     style="fill:#0054a5;fill-opacity:1;stroke:#000000;stroke-width:1;stroke-linecap:round;stroke-linejoin:round;stroke-miterlimit:90;stroke-dasharray:none;stroke-opacity:1"
     ry="0" /><rect
     id="rect4273-5-6-5-9"
     width="551.52655"
     height="231.4324"
     x="486.39301"
     y="1189.1493"
     style="fill:#0054a5;fill-opacity:1;stroke:#000000;stroke-width:1;stroke-linecap:round;stroke-linejoin:round;stroke-miterlimit:90;stroke-dasharray:none;stroke-opacity:1"
     ry="0" /><rect
     id="rect4273-5-6"
     width="552.00244"
     height="135.67026"
     x="477.07635"
     y="502.54333"
     style="fill:#0054a5;fill-opacity:1;stroke:#000000;stroke-width:1;stroke-linecap:round;stroke-linejoin:round;stroke-miterlimit:90;stroke-dasharray:none;stroke-opacity:1"
     ry="0" /><rect
     id="rect4273-5"
     width="552.00244"
     height="135.67026"
     x="475.07629"
     y="344.87308"
     style="fill:#0054a5;fill-opacity:1;stroke:#000000;stroke-width:1;stroke-linecap:round;stroke-linejoin:round;stroke-miterlimit:90;stroke-dasharray:none;stroke-opacity:1"
     ry="0" /><rect
     id="rect4273-5-6-5-60"
     width="552.00244"
     height="135.67026"
     x="2315.2092"
     y="1854.8331"
     style="fill:#0054a5;fill-opacity:1;stroke:#000000;stroke-width:1;stroke-linecap:round;stroke-linejoin:round;stroke-miterlimit:90;stroke-dasharray:none;stroke-opacity:1"
     ry="0" /><rect
     id="rect4273-5-6-5-60-9"
     width="388.94913"
     height="136.49237"
     x="1237.8062"
     y="1817.9003"
     style="fill:#0054a5;fill-opacity:1;stroke:#000000;stroke-width:1;stroke-linecap:round;stroke-linejoin:round;stroke-miterlimit:90;stroke-dasharray:none;stroke-opacity:1"
     ry="0" /><text
     style="font-size:47.0284996px;font-family:HelveticaNeue-Thin"
     class="st11 st22"
     transform="rotate(-0.61192531)"
     id="XMLID_163_"
     x="1899.0565"
     y="2143.2764">Reception</text>
<text
     transform="rotate(-0.61192531)"
     id="XMLID_165_"
     x="540.55798"
     y="1960.1116"><tspan
       style="font-size:80.56569672px;font-family:HelveticaNeue-Thin"
       id="tspan3937"
       class="st11 st24"
       y="1960.1116"
       x="540.55798">Café</tspan></text>
<g
     id="SVl4fr.tif"
     transform="rotate(-0.61192531,-29569.916,2633.4072)"><g
       id="XMLID_167_" /></g><rect
     id="rect4273-5-6-5"
     width="552.00244"
     height="135.67026"
     x="480.43393"
     y="658.84698"
     style="fill:#0054a5;fill-opacity:1;stroke:#000000;stroke-width:1;stroke-linecap:round;stroke-linejoin:round;stroke-miterlimit:90;stroke-dasharray:none;stroke-opacity:1"
     ry="0" /><rect
     id="rect4273-5-6-5-6"
     width="552.00244"
     height="135.67026"
     x="481.15363"
     y="815.70496"
     style="fill:#0054a5;fill-opacity:1;stroke:#000000;stroke-width:1;stroke-linecap:round;stroke-linejoin:round;stroke-miterlimit:90;stroke-dasharray:none;stroke-opacity:1"
     ry="0" /><rect
     id="rect4273-5-6-5-60-3"
     width="675.47534"
     height="135.1293"
     x="2249.0435"
     y="1350.1899"
     style="fill:#0054a5;fill-opacity:1;stroke:#000000;stroke-width:1;stroke-linecap:round;stroke-linejoin:round;stroke-miterlimit:90;stroke-dasharray:none;stroke-opacity:1"
     ry="0" /><rect
     id="rect4273-5-6-5-60-3-0"
     width="675.47534"
     height="135.1293"
     x="2245.4727"
     y="514.70087"
     style="fill:#0054a5;fill-opacity:1;stroke:#000000;stroke-width:0.00057427;stroke-linecap:round;stroke-linejoin:round;stroke-miterlimit:90;stroke-dasharray:none;stroke-opacity:1"
     ry="0" /><rect
     id="rect4273-5-6-5-60-3-8"
     width="675.47534"
     height="135.1293"
     x="2245.4727"
     y="685.83014"
     style="fill:#0054a5;fill-opacity:1;stroke:#000000;stroke-width:0.00057427;stroke-linecap:round;stroke-linejoin:round;stroke-miterlimit:90;stroke-dasharray:none;stroke-opacity:1"
     ry="0" /><rect
     id="rect4273-5-6-5-60-9-5"
     width="407.90811"
     height="136.83644"
     x="1242.5476"
     y="1974.817"
     style="fill:#0054a5;fill-opacity:1;stroke:#000000;stroke-width:1;stroke-linecap:round;stroke-linejoin:round;stroke-miterlimit:90;stroke-dasharray:none;stroke-opacity:1"
     ry="0" /><flowRoot
     xml:space="preserve"
     id="flowRoot4712"
     style="font-style:normal;font-weight:normal;font-size:40px;line-height:1.25;font-family:sans-serif;letter-spacing:0px;word-spacing:0px;fill:#000000;fill-opacity:1;stroke:none"><flowRegion
       id="flowRegion4714"><rect
         id="rect4716"
         width="502.01993"
         height="98.727745"
         x="527.05884"
         y="222.14536" /></flowRegion><flowPara
       id="flowPara4718" /></flowRoot><flowRoot
     xml:space="preserve"
     id="flowRoot4720"
     style="fill:black;fill-opacity:1;stroke:none;font-family:sans-serif;font-style:normal;font-weight:normal;font-size:40px;line-height:1.25;letter-spacing:0px;word-spacing:0px"><flowRegion
       id="flowRegion4722"><rect
         id="rect4724"
         width="456.19376"
         height="62.00692"
         x="518.20068"
         y="222.14536" /></flowRegion><flowPara
       id="flowPara4726"></flowPara></flowRoot><text
     xml:space="preserve"
     style="font-style:normal;font-variant:normal;font-weight:normal;font-stretch:normal;font-size:88.17048645px;line-height:1.25;font-family:sans-serif;-inkscape-font-specification:'sans-serif, Normal';font-variant-ligatures:normal;font-variant-caps:normal;font-variant-numeric:normal;font-feature-settings:normal;text-align:start;letter-spacing:0px;word-spacing:0px;writing-mode:lr-tb;text-anchor:start;fill:#ffffff;fill-opacity:1;stroke:none;stroke-width:1.1808548"
     x="528.3092"
     y="270.70471"
     id="text4208-4"
     transform="scale(0.94834641,1.054467)"><tspan
       sodipodi:role="line"
       id="tspan4206-7"
       x="528.3092"
       y="270.70471"
       style="fill:#ffffff;fill-opacity:1;stroke-width:1.1808548">Operations </tspan></text>
<text
     xml:space="preserve"
     style="font-style:normal;font-variant:normal;font-weight:normal;font-stretch:normal;font-size:88.17048645px;line-height:1.25;font-family:sans-serif;-inkscape-font-specification:'sans-serif, Normal';font-variant-ligatures:normal;font-variant-caps:normal;font-variant-numeric:normal;font-feature-settings:normal;text-align:start;letter-spacing:0px;word-spacing:0px;writing-mode:lr-tb;text-anchor:start;fill:#ffffff;fill-opacity:1;stroke:none;stroke-width:1.1808548"
     x="530.32611"
     y="419.80783"
     id="text4208-4-9"
     transform="scale(0.94834641,1.054467)"><tspan
       sodipodi:role="line"
       id="tspan4206-7-5"
       x="530.32611"
       y="419.80783"
       style="fill:#ffffff;fill-opacity:1;stroke-width:1.1808548"><tspan
   style="font-size:74.66666667px"
   id="tspan4808">Cloud Expand</tspan> </tspan></text>
<text
     xml:space="preserve"
     style="font-style:normal;font-variant:normal;font-weight:normal;font-stretch:normal;font-size:88.17048645px;line-height:1.25;font-family:sans-serif;-inkscape-font-specification:'sans-serif, Normal';font-variant-ligatures:normal;font-variant-caps:normal;font-variant-numeric:normal;font-feature-settings:normal;text-align:start;letter-spacing:0px;word-spacing:0px;writing-mode:lr-tb;text-anchor:start;fill:#ffffff;fill-opacity:1;stroke:none;stroke-width:1.1808548"
     x="534.42291"
     y="568.66382"
     id="text4208-4-5"
     transform="scale(0.94834641,1.054467)"><tspan
       sodipodi:role="line"
       id="tspan4206-7-6"
       x="534.42291"
       y="568.66382"
       style="fill:#ffffff;fill-opacity:1;stroke-width:1.1808548">Cloud Land </tspan></text>
<text
     xml:space="preserve"
     style="font-style:normal;font-variant:normal;font-weight:normal;font-stretch:normal;font-size:88.17048645px;line-height:1.25;font-family:sans-serif;-inkscape-font-specification:'sans-serif, Normal';font-variant-ligatures:normal;font-variant-caps:normal;font-variant-numeric:normal;font-feature-settings:normal;text-align:start;letter-spacing:0px;word-spacing:0px;writing-mode:lr-tb;text-anchor:start;fill:#ffffff;fill-opacity:1;stroke:none;stroke-width:1.1808548"
     x="534.42285"
     y="714.19641"
     id="text4208-4-3"
     transform="scale(0.94834641,1.054467)"><tspan
       sodipodi:role="line"
       id="tspan4206-7-2"
       x="534.42285"
       y="714.19641"
       style="fill:#ffffff;fill-opacity:1;stroke-width:1.1808548">Tech Sales </tspan></text>
<text
     xml:space="preserve"
     style="font-style:normal;font-variant:normal;font-weight:normal;font-stretch:normal;font-size:74.66666667px;line-height:1.25;font-family:sans-serif;-inkscape-font-specification:'sans-serif, Normal';font-variant-ligatures:normal;font-variant-caps:normal;font-variant-numeric:normal;font-feature-settings:normal;text-align:start;letter-spacing:0px;word-spacing:0px;writing-mode:lr-tb;text-anchor:start;fill:#ffffff;fill-opacity:1;stroke:none;stroke-width:1.1808548;"
     x="534.42285"
     y="862.69904"
     id="text4208-4-30"
     transform="scale(0.94834641,1.054467)"><tspan
       sodipodi:role="line"
       id="tspan4206-7-3"
       x="534.42285"
       y="862.69904"
       style="fill:#ffffff;fill-opacity:1;stroke-width:1.1808548;font-size:74.66666667px;">Cloud Express </tspan></text>
<text
     xml:space="preserve"
     style="font-style:normal;font-variant:normal;font-weight:normal;font-stretch:normal;font-size:88.17048645px;line-height:1.25;font-family:sans-serif;-inkscape-font-specification:'sans-serif, Normal';font-variant-ligatures:normal;font-variant-caps:normal;font-variant-numeric:normal;font-feature-settings:normal;text-align:start;letter-spacing:0px;word-spacing:0px;writing-mode:lr-tb;text-anchor:start;fill:#ffffff;fill-opacity:1;stroke:none;stroke-width:1.1808548"
     x="1502.0271"
     y="271.65857"
     id="text4208-4-53"
     transform="scale(0.94834641,1.054467)"><tspan
       sodipodi:role="line"
       id="tspan4206-7-8"
       x="1502.0271"
       y="271.65857"
       style="fill:#ffffff;fill-opacity:1;stroke-width:1.1808548">S &amp; S</tspan></text>
<text
     xml:space="preserve"
     style="font-style:normal;font-variant:normal;font-weight:normal;font-stretch:normal;font-size:88.17048645px;line-height:1.25;font-family:sans-serif;-inkscape-font-specification:'sans-serif, Normal';font-variant-ligatures:normal;font-variant-caps:normal;font-variant-numeric:normal;font-feature-settings:normal;text-align:start;letter-spacing:0px;word-spacing:0px;writing-mode:lr-tb;text-anchor:start;fill:#ffffff;fill-opacity:1;stroke:none;stroke-width:1.1808548"
     x="1607.704"
     y="779.53754"
     id="text4208-4-1"
     transform="scale(0.94834641,1.054467)"><tspan
       sodipodi:role="line"
       id="tspan4206-7-57"
       x="1607.704"
       y="779.53754"
       style="fill:#ffffff;fill-opacity:1;stroke-width:1.1808548">Operations </tspan></text>
<text
     xml:space="preserve"
     style="font-style:normal;font-variant:normal;font-weight:normal;font-stretch:normal;font-size:88.17048645px;line-height:1.25;font-family:sans-serif;-inkscape-font-specification:'sans-serif, Normal';font-variant-ligatures:normal;font-variant-caps:normal;font-variant-numeric:normal;font-feature-settings:normal;text-align:start;letter-spacing:0px;word-spacing:0px;writing-mode:lr-tb;text-anchor:start;fill:#ffffff;fill-opacity:1;stroke:none;stroke-width:1.1808548"
     x="1406.8652"
     y="362.59091"
     id="text4208-4-53-8"
     transform="scale(0.94834641,1.054467)"><tspan
       sodipodi:role="line"
       id="tspan4206-7-8-9"
       x="1406.8652"
       y="362.59091"
       style="fill:#ffffff;fill-opacity:1;stroke-width:1.1808548">Renewals</tspan></text>
<text
     xml:space="preserve"
     style="font-style:normal;font-variant:normal;font-weight:normal;font-stretch:normal;font-size:88.17048645px;line-height:1.25;font-family:sans-serif;-inkscape-font-specification:'sans-serif, Normal';font-variant-ligatures:normal;font-variant-caps:normal;font-variant-numeric:normal;font-feature-settings:normal;text-align:start;letter-spacing:0px;word-spacing:0px;writing-mode:lr-tb;text-anchor:start;fill:#ffffff;fill-opacity:1;stroke:none;stroke-width:1.1808548"
     x="2519.1672"
     y="262.74841"
     id="text4208-4-92"
     transform="scale(0.94834641,1.054467)"><tspan
       sodipodi:role="line"
       id="tspan4206-7-7"
       x="2519.1672"
       y="262.74841"
       style="fill:#ffffff;fill-opacity:1;stroke-width:1.1808548">Solutions </tspan></text>
<text
     xml:space="preserve"
     style="font-style:normal;font-variant:normal;font-weight:normal;font-stretch:normal;font-size:88.17048645px;line-height:1.25;font-family:sans-serif;-inkscape-font-specification:'sans-serif, Normal';font-variant-ligatures:normal;font-variant-caps:normal;font-variant-numeric:normal;font-feature-settings:normal;text-align:start;letter-spacing:0px;word-spacing:0px;writing-mode:lr-tb;text-anchor:start;fill:#ffffff;fill-opacity:1;stroke:none;stroke-width:1.1808548"
     x="2522.4697"
     y="423.13126"
     id="text4208-4-4"
     transform="scale(0.94834641,1.054467)"><tspan
       sodipodi:role="line"
       id="tspan4206-7-50"
       x="2522.4697"
       y="423.13126"
       style="fill:#ffffff;fill-opacity:1;stroke-width:1.1808548">Analytics</tspan></text>
<text
     xml:space="preserve"
     style="font-style:normal;font-variant:normal;font-weight:normal;font-stretch:normal;font-size:88.17048645px;line-height:1.25;font-family:sans-serif;-inkscape-font-specification:'sans-serif, Normal';font-variant-ligatures:normal;font-variant-caps:normal;font-variant-numeric:normal;font-feature-settings:normal;text-align:start;letter-spacing:0px;word-spacing:0px;writing-mode:lr-tb;text-anchor:start;fill:#ffffff;fill-opacity:1;stroke:none;stroke-width:1.1808548"
     x="2608.3323"
     y="580.54407"
     id="text4208-4-2"
     transform="scale(0.94834641,1.054467)"><tspan
       sodipodi:role="line"
       id="tspan4206-7-1"
       x="2608.3323"
       y="580.54407"
       style="fill:#ffffff;fill-opacity:1;stroke-width:1.1808548">SaaS</tspan></text>
<text
     xml:space="preserve"
     style="font-style:normal;font-variant:normal;font-weight:normal;font-stretch:normal;font-size:88.17048645px;line-height:1.25;font-family:sans-serif;-inkscape-font-specification:'sans-serif, Normal';font-variant-ligatures:normal;font-variant-caps:normal;font-variant-numeric:normal;font-feature-settings:normal;text-align:start;letter-spacing:0px;word-spacing:0px;writing-mode:lr-tb;text-anchor:start;fill:#ffffff;fill-opacity:1;stroke:none;stroke-width:1.1808548"
     x="2547.9417"
     y="739.7876"
     id="text4208-4-2-4"
     transform="scale(0.94834641,1.054467)"><tspan
       sodipodi:role="line"
       id="tspan4206-7-1-2"
       x="2547.9417"
       y="739.7876"
       style="fill:#ffffff;fill-opacity:1;stroke-width:1.1808548">Security</tspan></text>
<text
     xml:space="preserve"
     style="font-style:normal;font-variant:normal;font-weight:normal;font-stretch:normal;font-size:74.66666412px;line-height:1.25;font-family:sans-serif;-inkscape-font-specification:'sans-serif, Normal';font-variant-ligatures:normal;font-variant-caps:normal;font-variant-numeric:normal;font-feature-settings:normal;text-align:start;letter-spacing:0px;word-spacing:0px;writing-mode:lr-tb;text-anchor:start;fill:#ffffff;fill-opacity:1;stroke:none;stroke-width:1.1808548"
     x="532.61652"
     y="1209.4398"
     id="text4208-4-30-3"
     transform="scale(0.94834641,1.054467)"><tspan
       sodipodi:role="line"
       id="tspan4206-7-3-0"
       x="532.61652"
       y="1209.4398"
       style="font-size:74.66666412px;fill:#ffffff;fill-opacity:1;stroke-width:1.1808548">Infrastructure</tspan><tspan
       sodipodi:role="line"
       x="532.61652"
       y="1302.7732"
       style="font-size:74.66666412px;fill:#ffffff;fill-opacity:1;stroke-width:1.1808548"
       id="tspan4938">Services</tspan></text>
<text
     xml:space="preserve"
     style="font-style:normal;font-variant:normal;font-weight:normal;font-stretch:normal;font-size:88.17048645px;line-height:1.25;font-family:sans-serif;-inkscape-font-specification:'sans-serif, Normal';font-variant-ligatures:normal;font-variant-caps:normal;font-variant-numeric:normal;font-feature-settings:normal;text-align:start;letter-spacing:0px;word-spacing:0px;writing-mode:lr-tb;text-anchor:start;fill:#ffffff;fill-opacity:1;stroke:none;stroke-width:1.1808548"
     x="1459.7037"
     y="1455.5703"
     id="text4208-4-53-2"
     transform="scale(0.94834641,1.054467)"><tspan
       sodipodi:role="line"
       id="tspan4206-7-8-7"
       x="1459.7037"
       y="1455.5703"
       style="fill:#ffffff;fill-opacity:1;stroke-width:1.1808548">Software</tspan></text>
<text
     xml:space="preserve"
     style="font-style:normal;font-variant:normal;font-weight:normal;font-stretch:normal;font-size:88.17048645px;line-height:1.25;font-family:sans-serif;-inkscape-font-specification:'sans-serif, Normal';font-variant-ligatures:normal;font-variant-caps:normal;font-variant-numeric:normal;font-feature-settings:normal;text-align:start;letter-spacing:0px;word-spacing:0px;writing-mode:lr-tb;text-anchor:start;fill:#ffffff;fill-opacity:1;stroke:none;stroke-width:1.1808548"
     x="1539.7563"
     y="1357.6016"
     id="text4208-4-53-2-6"
     transform="scale(0.94834641,1.054467)"><tspan
       sodipodi:role="line"
       id="tspan4206-7-8-7-2"
       x="1539.7563"
       y="1357.6016"
       style="fill:#ffffff;fill-opacity:1;stroke-width:1.1808548">DDR</tspan></text>
<text
     xml:space="preserve"
     style="font-style:normal;font-variant:normal;font-weight:normal;font-stretch:normal;font-size:74.66666412px;line-height:1.25;font-family:sans-serif;-inkscape-font-specification:'sans-serif, Normal';font-variant-ligatures:normal;font-variant-caps:normal;font-variant-numeric:normal;font-feature-settings:normal;text-align:start;letter-spacing:0px;word-spacing:0px;writing-mode:lr-tb;text-anchor:start;fill:#ffffff;fill-opacity:1;stroke:none;stroke-width:1.1808548"
     x="2378.6599"
     y="1209.4398"
     id="text4208-4-30-0"
     transform="scale(0.94834641,1.054467)"><tspan
       sodipodi:role="line"
       id="tspan4206-7-3-9"
       x="2378.6599"
       y="1209.4398"
       style="font-size:74.66666412px;fill:#ffffff;fill-opacity:1;stroke-width:1.1808548">Systems Hardware</tspan></text>
<text
     xml:space="preserve"
     style="font-style:normal;font-variant:normal;font-weight:normal;font-stretch:normal;font-size:74.66666412px;line-height:1.25;font-family:sans-serif;-inkscape-font-specification:'sans-serif, Normal';font-variant-ligatures:normal;font-variant-caps:normal;font-variant-numeric:normal;font-feature-settings:normal;text-align:start;letter-spacing:0px;word-spacing:0px;writing-mode:lr-tb;text-anchor:start;fill:#ffffff;fill-opacity:1;stroke:none;stroke-width:1.1808548"
     x="2464.5225"
     y="1366.8527"
     id="text4208-4-30-1"
     transform="scale(0.94834641,1.054467)"><tspan
       sodipodi:role="line"
       id="tspan4206-7-3-3"
       x="2464.5225"
       y="1366.8527"
       style="font-size:74.66666412px;fill:#ffffff;fill-opacity:1;stroke-width:1.1808548">DDR Hardware</tspan></text>
<text
     xml:space="preserve"
     style="font-style:normal;font-variant:normal;font-weight:normal;font-stretch:normal;font-size:88.17048645px;line-height:1.25;font-family:sans-serif;-inkscape-font-specification:'sans-serif, Normal';font-variant-ligatures:normal;font-variant-caps:normal;font-variant-numeric:normal;font-feature-settings:normal;text-align:start;letter-spacing:0px;word-spacing:0px;writing-mode:lr-tb;text-anchor:start;fill:#ffffff;fill-opacity:1;stroke:none;stroke-width:1.1808548"
     x="2632.8518"
     y="1850.6304"
     id="text4208-4-53-2-6-2"
     transform="scale(0.94834641,1.054467)"><tspan
       sodipodi:role="line"
       id="tspan4206-7-8-7-2-4"
       x="2632.8518"
       y="1850.6304"
       style="fill:#ffffff;fill-opacity:1;stroke-width:1.1808548">DDR</tspan></text>
<text
     xml:space="preserve"
     style="font-style:normal;font-variant:normal;font-weight:normal;font-stretch:normal;font-size:72.91516876px;line-height:1.25;font-family:sans-serif;-inkscape-font-specification:'sans-serif, Normal';font-variant-ligatures:normal;font-variant-caps:normal;font-variant-numeric:normal;font-feature-settings:normal;text-align:start;letter-spacing:0px;word-spacing:0px;writing-mode:lr-tb;text-anchor:start;fill:#ffffff;fill-opacity:1;stroke:none;stroke-width:0.97654247"
     x="1320.5398"
     y="1968.6222"
     id="text4208-4-7"
     transform="scale(0.94951126,1.0531734)"><tspan
       sodipodi:role="line"
       id="tspan4206-7-31"
       x="1320.5398"
       y="1968.6222"
       style="fill:#ffffff;fill-opacity:1;stroke-width:0.97654247">Operations </tspan></text>
<text
     xml:space="preserve"
     style="font-style:normal;font-variant:normal;font-weight:normal;font-stretch:normal;font-size:60.64723587px;line-height:1.25;font-family:sans-serif;-inkscape-font-specification:'sans-serif, Normal';font-variant-ligatures:normal;font-variant-caps:normal;font-variant-numeric:normal;font-feature-settings:normal;text-align:start;letter-spacing:0px;word-spacing:0px;writing-mode:lr-tb;text-anchor:start;fill:#ffffff;fill-opacity:1;stroke:none;stroke-width:0.95913726"
     x="1208.9612"
     y="1804.0811"
     id="text4208-4-30-3-6"
     transform="scale(1.0346297,0.96652937)"><tspan
       sodipodi:role="line"
       id="tspan4206-7-3-0-8"
       x="1208.9612"
       y="1857.7396"
       style="font-size:60.64723587px;fill:#ffffff;fill-opacity:1;stroke-width:0.95913726" /><tspan
       sodipodi:role="line"
       x="1208.9612"
       y="1933.5487"
       style="font-size:60.64723587px;fill:#ffffff;fill-opacity:1;stroke-width:0.95913726"
       id="tspan4938-9">Training &amp; </tspan><tspan
       sodipodi:role="line"
       x="1208.9612"
       y="2009.3578"
       style="font-size:60.64723587px;fill:#ffffff;fill-opacity:1;stroke-width:0.95913726"
       id="tspan5059">New Hire</tspan></text>
</svg>